<svg width="1564" height="766" viewBox="0 0 1564 766" fill="none" xmlns="http://www.w3.org/2000/svg">
<rect x="86.5" y="610.5" width="1391" height="95" fill="white" stroke="#376BC3" stroke-width="5"/>
<path d="M681.77 652.288C679.37 652.288 677.498 651.624 676.154 650.296C674.826 648.968 674.162 647.072 674.162 644.608V635.2H678.05V644.464C678.05 647.472 679.298 648.976 681.794 648.976C683.01 648.976 683.938 648.616 684.578 647.896C685.218 647.16 685.538 646.016 685.538 644.464V635.2H689.378V644.608C689.378 647.072 688.706 648.968 687.362 650.296C686.034 651.624 684.17 652.288 681.77 652.288Z" fill="black"/>
<path d="M709.828 635.2V652H706.636L698.26 641.8V652H694.42V635.2H697.636L705.988 645.4V635.2H709.828Z" fill="black"/>
<path d="M714.739 639.088H718.483V652H714.739V639.088ZM716.611 637.288C715.923 637.288 715.363 637.088 714.931 636.688C714.499 636.288 714.283 635.792 714.283 635.2C714.283 634.608 714.499 634.112 714.931 633.712C715.363 633.312 715.923 633.112 716.611 633.112C717.299 633.112 717.859 633.304 718.291 633.688C718.723 634.072 718.939 634.552 718.939 635.128C718.939 635.752 718.723 636.272 718.291 636.688C717.859 637.088 717.299 637.288 716.611 637.288Z" fill="black"/>
<path d="M723.422 635.2H731.054C732.878 635.2 734.486 635.552 735.878 636.256C737.286 636.944 738.374 637.92 739.142 639.184C739.926 640.448 740.318 641.92 740.318 643.6C740.318 645.28 739.926 646.752 739.142 648.016C738.374 649.28 737.286 650.264 735.878 650.968C734.486 651.656 732.878 652 731.054 652H723.422V635.2ZM730.862 648.808C732.542 648.808 733.878 648.344 734.87 647.416C735.878 646.472 736.382 645.2 736.382 643.6C736.382 642 735.878 640.736 734.87 639.808C733.878 638.864 732.542 638.392 730.862 638.392H727.31V648.808H730.862Z" fill="black"/>
<path d="M767.855 635.2V652H764.663L756.287 641.8V652H752.447V635.2H755.663L764.015 645.4V635.2H767.855Z" fill="black"/>
<path d="M786.038 648.88V652H773.03V635.2H785.726V638.32H776.894V641.968H784.694V644.992H776.894V648.88H786.038Z" fill="black"/>
<path d="M793.811 638.368H788.435V635.2H803.075V638.368H797.699V652H793.811V638.368Z" fill="black"/>
<path d="M831.455 635.2L825.959 652H821.783L818.087 640.624L814.271 652H810.119L804.599 635.2H808.631L812.423 647.008L816.383 635.2H819.983L823.823 647.104L827.735 635.2H831.455Z" fill="black"/>
<path d="M842.75 652.288C841.006 652.288 839.43 651.912 838.022 651.16C836.63 650.408 835.534 649.376 834.734 648.064C833.95 646.736 833.558 645.248 833.558 643.6C833.558 641.952 833.95 640.472 834.734 639.16C835.534 637.832 836.63 636.792 838.022 636.04C839.43 635.288 841.006 634.912 842.75 634.912C844.494 634.912 846.062 635.288 847.454 636.04C848.846 636.792 849.942 637.832 850.742 639.16C851.542 640.472 851.942 641.952 851.942 643.6C851.942 645.248 851.542 646.736 850.742 648.064C849.942 649.376 848.846 650.408 847.454 651.16C846.062 651.912 844.494 652.288 842.75 652.288ZM842.75 648.976C843.742 648.976 844.638 648.752 845.438 648.304C846.238 647.84 846.862 647.2 847.31 646.384C847.774 645.568 848.006 644.64 848.006 643.6C848.006 642.56 847.774 641.632 847.31 640.816C846.862 640 846.238 639.368 845.438 638.92C844.638 638.456 843.742 638.224 842.75 638.224C841.758 638.224 840.862 638.456 840.062 638.92C839.262 639.368 838.63 640 838.166 640.816C837.718 641.632 837.494 642.56 837.494 643.6C837.494 644.64 837.718 645.568 838.166 646.384C838.63 647.2 839.262 647.84 840.062 648.304C840.862 648.752 841.758 648.976 842.75 648.976Z" fill="black"/>
<path d="M866.768 652L863.528 647.32H863.336H859.952V652H856.064V635.2H863.336C864.824 635.2 866.112 635.448 867.2 635.944C868.304 636.44 869.152 637.144 869.744 638.056C870.336 638.968 870.632 640.048 870.632 641.296C870.632 642.544 870.328 643.624 869.72 644.536C869.128 645.432 868.28 646.12 867.176 646.6L870.944 652H866.768ZM866.696 641.296C866.696 640.352 866.392 639.632 865.784 639.136C865.176 638.624 864.288 638.368 863.12 638.368H859.952V644.224H863.12C864.288 644.224 865.176 643.968 865.784 643.456C866.392 642.944 866.696 642.224 866.696 641.296Z" fill="black"/>
<path d="M881.033 645.4L878.777 647.752V652H874.913V635.2H878.777V643.048L886.217 635.2H890.537L883.577 642.688L890.945 652H886.409L881.033 645.4Z" fill="black"/>
<path d="M511.446 664.2H519.078C520.902 664.2 522.51 664.552 523.902 665.256C525.31 665.944 526.398 666.92 527.166 668.184C527.95 669.448 528.342 670.92 528.342 672.6C528.342 674.28 527.95 675.752 527.166 677.016C526.398 678.28 525.31 679.264 523.902 679.968C522.51 680.656 520.902 681 519.078 681H511.446V664.2ZM518.886 677.808C520.566 677.808 521.902 677.344 522.894 676.416C523.902 675.472 524.406 674.2 524.406 672.6C524.406 671 523.902 669.736 522.894 668.808C521.902 667.864 520.566 667.392 518.886 667.392H515.334V677.808H518.886Z" fill="black"/>
<path d="M544.858 674.592C544.858 674.64 544.834 674.976 544.786 675.6H535.018C535.194 676.4 535.61 677.032 536.266 677.496C536.922 677.96 537.738 678.192 538.714 678.192C539.386 678.192 539.978 678.096 540.49 677.904C541.018 677.696 541.506 677.376 541.954 676.944L543.946 679.104C542.73 680.496 540.954 681.192 538.618 681.192C537.162 681.192 535.874 680.912 534.754 680.352C533.634 679.776 532.77 678.984 532.162 677.976C531.554 676.968 531.25 675.824 531.25 674.544C531.25 673.28 531.546 672.144 532.138 671.136C532.746 670.112 533.57 669.32 534.61 668.76C535.666 668.184 536.842 667.896 538.138 667.896C539.402 667.896 540.546 668.168 541.57 668.712C542.594 669.256 543.394 670.04 543.97 671.064C544.562 672.072 544.858 673.248 544.858 674.592ZM538.162 670.728C537.314 670.728 536.602 670.968 536.026 671.448C535.45 671.928 535.098 672.584 534.97 673.416H541.33C541.202 672.6 540.85 671.952 540.274 671.472C539.698 670.976 538.994 670.728 538.162 670.728Z" fill="black"/>
<path d="M554.791 681.192C553.415 681.192 552.175 680.912 551.071 680.352C549.983 679.776 549.127 678.984 548.503 677.976C547.895 676.968 547.591 675.824 547.591 674.544C547.591 673.264 547.895 672.12 548.503 671.112C549.127 670.104 549.983 669.32 551.071 668.76C552.175 668.184 553.415 667.896 554.791 667.896C556.151 667.896 557.335 668.184 558.343 668.76C559.367 669.32 560.111 670.128 560.575 671.184L557.671 672.744C556.999 671.56 556.031 670.968 554.767 670.968C553.791 670.968 552.983 671.288 552.343 671.928C551.703 672.568 551.383 673.44 551.383 674.544C551.383 675.648 551.703 676.52 552.343 677.16C552.983 677.8 553.791 678.12 554.767 678.12C556.047 678.12 557.015 677.528 557.671 676.344L560.575 677.928C560.111 678.952 559.367 679.752 558.343 680.328C557.335 680.904 556.151 681.192 554.791 681.192Z" fill="black"/>
<path d="M576.415 674.592C576.415 674.64 576.391 674.976 576.343 675.6H566.575C566.751 676.4 567.167 677.032 567.823 677.496C568.479 677.96 569.295 678.192 570.271 678.192C570.943 678.192 571.535 678.096 572.047 677.904C572.575 677.696 573.063 677.376 573.511 676.944L575.503 679.104C574.287 680.496 572.511 681.192 570.175 681.192C568.719 681.192 567.431 680.912 566.311 680.352C565.191 679.776 564.327 678.984 563.719 677.976C563.111 676.968 562.807 675.824 562.807 674.544C562.807 673.28 563.103 672.144 563.695 671.136C564.303 670.112 565.127 669.32 566.167 668.76C567.223 668.184 568.399 667.896 569.695 667.896C570.959 667.896 572.103 668.168 573.127 668.712C574.151 669.256 574.951 670.04 575.527 671.064C576.119 672.072 576.415 673.248 576.415 674.592ZM569.719 670.728C568.871 670.728 568.159 670.968 567.583 671.448C567.007 671.928 566.655 672.584 566.527 673.416H572.887C572.759 672.6 572.407 671.952 571.831 671.472C571.255 670.976 570.551 670.728 569.719 670.728Z" fill="black"/>
<path d="M587.955 667.896C589.555 667.896 590.843 668.376 591.819 669.336C592.811 670.296 593.307 671.72 593.307 673.608V681H589.563V674.184C589.563 673.16 589.339 672.4 588.891 671.904C588.443 671.392 587.795 671.136 586.947 671.136C586.003 671.136 585.251 671.432 584.691 672.024C584.131 672.6 583.851 673.464 583.851 674.616V681H580.107V668.088H583.683V669.6C584.179 669.056 584.795 668.64 585.531 668.352C586.267 668.048 587.075 667.896 587.955 667.896Z" fill="black"/>
<path d="M606.229 680.376C605.861 680.648 605.405 680.856 604.861 681C604.333 681.128 603.773 681.192 603.181 681.192C601.645 681.192 600.453 680.8 599.605 680.016C598.773 679.232 598.357 678.08 598.357 676.56V671.256H596.365V668.376H598.357V665.232H602.101V668.376H605.317V671.256H602.101V676.512C602.101 677.056 602.237 677.48 602.509 677.784C602.797 678.072 603.197 678.216 603.709 678.216C604.301 678.216 604.805 678.056 605.221 677.736L606.229 680.376Z" fill="black"/>
<path d="M613.107 669.792C613.555 669.168 614.155 668.696 614.907 668.376C615.675 668.056 616.555 667.896 617.547 667.896V671.352C617.131 671.32 616.851 671.304 616.707 671.304C615.635 671.304 614.795 671.608 614.187 672.216C613.579 672.808 613.275 673.704 613.275 674.904V681H609.531V668.088H613.107V669.792Z" fill="black"/>
<path d="M626.111 667.896C628.111 667.896 629.647 668.376 630.719 669.336C631.791 670.28 632.327 671.712 632.327 673.632V681H628.823V679.392C628.119 680.592 626.807 681.192 624.887 681.192C623.895 681.192 623.031 681.024 622.295 680.688C621.575 680.352 621.023 679.888 620.639 679.296C620.255 678.704 620.063 678.032 620.063 677.28C620.063 676.08 620.511 675.136 621.407 674.448C622.319 673.76 623.719 673.416 625.607 673.416H628.583C628.583 672.6 628.335 671.976 627.839 671.544C627.343 671.096 626.599 670.872 625.607 670.872C624.919 670.872 624.239 670.984 623.567 671.208C622.911 671.416 622.351 671.704 621.887 672.072L620.543 669.456C621.247 668.96 622.087 668.576 623.063 668.304C624.055 668.032 625.071 667.896 626.111 667.896ZM625.823 678.672C626.463 678.672 627.031 678.528 627.527 678.24C628.023 677.936 628.375 677.496 628.583 676.92V675.6H626.015C624.479 675.6 623.711 676.104 623.711 677.112C623.711 677.592 623.895 677.976 624.263 678.264C624.647 678.536 625.167 678.672 625.823 678.672Z" fill="black"/>
<path d="M636.915 663.192H640.659V681H636.915V663.192Z" fill="black"/>
<path d="M645.334 668.088H649.078V681H645.334V668.088ZM647.206 666.288C646.518 666.288 645.958 666.088 645.526 665.688C645.094 665.288 644.878 664.792 644.878 664.2C644.878 663.608 645.094 663.112 645.526 662.712C645.958 662.312 646.518 662.112 647.206 662.112C647.894 662.112 648.454 662.304 648.886 662.688C649.318 663.072 649.534 663.552 649.534 664.128C649.534 664.752 649.318 665.272 648.886 665.688C648.454 666.088 647.894 666.288 647.206 666.288Z" fill="black"/>
<path d="M664.385 678.12V681H652.865V678.744L659.441 670.968H653.033V668.088H664.169V670.344L657.593 678.12H664.385Z" fill="black"/>
<path d="M680.468 674.592C680.468 674.64 680.444 674.976 680.396 675.6H670.628C670.804 676.4 671.22 677.032 671.876 677.496C672.532 677.96 673.348 678.192 674.324 678.192C674.996 678.192 675.588 678.096 676.1 677.904C676.628 677.696 677.116 677.376 677.564 676.944L679.556 679.104C678.34 680.496 676.564 681.192 674.228 681.192C672.772 681.192 671.484 680.912 670.364 680.352C669.244 679.776 668.38 678.984 667.772 677.976C667.164 676.968 666.86 675.824 666.86 674.544C666.86 673.28 667.156 672.144 667.748 671.136C668.356 670.112 669.18 669.32 670.22 668.76C671.276 668.184 672.452 667.896 673.748 667.896C675.012 667.896 676.156 668.168 677.18 668.712C678.204 669.256 679.004 670.04 679.58 671.064C680.172 672.072 680.468 673.248 680.468 674.592ZM673.772 670.728C672.924 670.728 672.212 670.968 671.636 671.448C671.06 671.928 670.708 672.584 670.58 673.416H676.94C676.812 672.6 676.46 671.952 675.884 671.472C675.308 670.976 674.604 670.728 673.772 670.728Z" fill="black"/>
<path d="M697.312 663.192V681H693.736V679.512C692.808 680.632 691.464 681.192 689.704 681.192C688.488 681.192 687.384 680.92 686.392 680.376C685.416 679.832 684.648 679.056 684.088 678.048C683.528 677.04 683.248 675.872 683.248 674.544C683.248 673.216 683.528 672.048 684.088 671.04C684.648 670.032 685.416 669.256 686.392 668.712C687.384 668.168 688.488 667.896 689.704 667.896C691.352 667.896 692.64 668.416 693.568 669.456V663.192H697.312ZM690.352 678.12C691.296 678.12 692.08 677.8 692.704 677.16C693.328 676.504 693.64 675.632 693.64 674.544C693.64 673.456 693.328 672.592 692.704 671.952C692.08 671.296 691.296 670.968 690.352 670.968C689.392 670.968 688.6 671.296 687.976 671.952C687.352 672.592 687.04 673.456 687.04 674.544C687.04 675.632 687.352 676.504 687.976 677.16C688.6 677.8 689.392 678.12 690.352 678.12Z" fill="black"/>
<path d="M717.51 664.2C718.998 664.2 720.286 664.448 721.374 664.944C722.478 665.44 723.326 666.144 723.918 667.056C724.51 667.968 724.806 669.048 724.806 670.296C724.806 671.528 724.51 672.608 723.918 673.536C723.326 674.448 722.478 675.152 721.374 675.648C720.286 676.128 718.998 676.368 717.51 676.368H714.126V681H710.238V664.2H717.51ZM717.294 673.2C718.462 673.2 719.35 672.952 719.958 672.456C720.566 671.944 720.87 671.224 720.87 670.296C720.87 669.352 720.566 668.632 719.958 668.136C719.35 667.624 718.462 667.368 717.294 667.368H714.126V673.2H717.294Z" fill="black"/>
<path d="M741.761 668.088V681H738.209V679.464C737.713 680.024 737.121 680.456 736.433 680.76C735.745 681.048 735.001 681.192 734.201 681.192C732.505 681.192 731.161 680.704 730.169 679.728C729.177 678.752 728.681 677.304 728.681 675.384V668.088H732.425V674.832C732.425 676.912 733.297 677.952 735.041 677.952C735.937 677.952 736.657 677.664 737.201 677.088C737.745 676.496 738.017 675.624 738.017 674.472V668.088H741.761Z" fill="black"/>
<path d="M754.061 667.896C755.261 667.896 756.349 668.176 757.325 668.736C758.317 669.28 759.093 670.056 759.653 671.064C760.213 672.056 760.493 673.216 760.493 674.544C760.493 675.872 760.213 677.04 759.653 678.048C759.093 679.04 758.317 679.816 757.325 680.376C756.349 680.92 755.261 681.192 754.061 681.192C752.285 681.192 750.933 680.632 750.005 679.512V681H746.429V663.192H750.173V669.456C751.117 668.416 752.413 667.896 754.061 667.896ZM753.413 678.12C754.373 678.12 755.157 677.8 755.765 677.16C756.389 676.504 756.701 675.632 756.701 674.544C756.701 673.456 756.389 672.592 755.765 671.952C755.157 671.296 754.373 670.968 753.413 670.968C752.453 670.968 751.661 671.296 751.037 671.952C750.429 672.592 750.125 673.456 750.125 674.544C750.125 675.632 750.429 676.504 751.037 677.16C751.661 677.8 752.453 678.12 753.413 678.12Z" fill="black"/>
<path d="M764.199 663.192H767.943V681H764.199V663.192Z" fill="black"/>
<path d="M772.618 668.088H776.362V681H772.618V668.088ZM774.49 666.288C773.802 666.288 773.242 666.088 772.81 665.688C772.378 665.288 772.162 664.792 772.162 664.2C772.162 663.608 772.378 663.112 772.81 662.712C773.242 662.312 773.802 662.112 774.49 662.112C775.178 662.112 775.738 662.304 776.17 662.688C776.602 663.072 776.818 663.552 776.818 664.128C776.818 664.752 776.602 665.272 776.17 665.688C775.738 666.088 775.178 666.288 774.49 666.288Z" fill="black"/>
<path d="M787.277 681.192C785.901 681.192 784.661 680.912 783.557 680.352C782.469 679.776 781.613 678.984 780.989 677.976C780.381 676.968 780.077 675.824 780.077 674.544C780.077 673.264 780.381 672.12 780.989 671.112C781.613 670.104 782.469 669.32 783.557 668.76C784.661 668.184 785.901 667.896 787.277 667.896C788.637 667.896 789.821 668.184 790.829 668.76C791.853 669.32 792.597 670.128 793.061 671.184L790.157 672.744C789.485 671.56 788.517 670.968 787.253 670.968C786.277 670.968 785.469 671.288 784.829 671.928C784.189 672.568 783.869 673.44 783.869 674.544C783.869 675.648 784.189 676.52 784.829 677.16C785.469 677.8 786.277 678.12 787.253 678.12C788.533 678.12 789.501 677.528 790.157 676.344L793.061 677.928C792.597 678.952 791.853 679.752 790.829 680.328C789.821 680.904 788.637 681.192 787.277 681.192Z" fill="black"/>
<path d="M810.798 674.4L808.542 676.752V681H804.678V664.2H808.542V672.048L815.982 664.2H820.302L813.342 671.688L820.71 681H816.174L810.798 674.4Z" fill="black"/>
<path d="M835.488 674.592C835.488 674.64 835.464 674.976 835.416 675.6H825.648C825.824 676.4 826.24 677.032 826.896 677.496C827.552 677.96 828.368 678.192 829.344 678.192C830.016 678.192 830.608 678.096 831.12 677.904C831.648 677.696 832.136 677.376 832.584 676.944L834.576 679.104C833.36 680.496 831.584 681.192 829.248 681.192C827.792 681.192 826.504 680.912 825.384 680.352C824.264 679.776 823.4 678.984 822.792 677.976C822.184 676.968 821.88 675.824 821.88 674.544C821.88 673.28 822.176 672.144 822.768 671.136C823.376 670.112 824.2 669.32 825.24 668.76C826.296 668.184 827.472 667.896 828.768 667.896C830.032 667.896 831.176 668.168 832.2 668.712C833.224 669.256 834.024 670.04 834.6 671.064C835.192 672.072 835.488 673.248 835.488 674.592ZM828.792 670.728C827.944 670.728 827.232 670.968 826.656 671.448C826.08 671.928 825.728 672.584 825.6 673.416H831.96C831.832 672.6 831.48 671.952 830.904 671.472C830.328 670.976 829.624 670.728 828.792 670.728Z" fill="black"/>
<path d="M851.762 668.088L845.93 681.792C845.338 683.28 844.602 684.328 843.722 684.936C842.858 685.544 841.81 685.848 840.578 685.848C839.906 685.848 839.242 685.744 838.586 685.536C837.93 685.328 837.394 685.04 836.978 684.672L838.346 682.008C838.634 682.264 838.962 682.464 839.33 682.608C839.714 682.752 840.09 682.824 840.458 682.824C840.97 682.824 841.386 682.696 841.706 682.44C842.026 682.2 842.314 681.792 842.57 681.216L842.618 681.096L837.026 668.088H840.89L844.514 676.848L848.162 668.088H851.762Z" fill="black"/>
<path d="M862.751 664.2H866.639V681H862.751V664.2Z" fill="black"/>
<path d="M879.41 667.896C881.01 667.896 882.298 668.376 883.274 669.336C884.266 670.296 884.762 671.72 884.762 673.608V681H881.018V674.184C881.018 673.16 880.794 672.4 880.346 671.904C879.898 671.392 879.25 671.136 878.402 671.136C877.458 671.136 876.706 671.432 876.146 672.024C875.586 672.6 875.306 673.464 875.306 674.616V681H871.562V668.088H875.138V669.6C875.634 669.056 876.25 668.64 876.986 668.352C877.722 668.048 878.53 667.896 879.41 667.896Z" fill="black"/>
<path d="M893.46 668.376H896.772V671.256H893.556V681H889.812V671.256H887.82V668.376H889.812V667.8C889.812 666.328 890.244 665.16 891.108 664.296C891.988 663.432 893.22 663 894.804 663C895.364 663 895.892 663.064 896.388 663.192C896.9 663.304 897.324 663.472 897.66 663.696L896.676 666.408C896.244 666.104 895.74 665.952 895.164 665.952C894.028 665.952 893.46 666.576 893.46 667.824V668.376Z" fill="black"/>
<path d="M905.335 669.792C905.783 669.168 906.383 668.696 907.135 668.376C907.903 668.056 908.783 667.896 909.775 667.896V671.352C909.359 671.32 909.079 671.304 908.935 671.304C907.863 671.304 907.023 671.608 906.415 672.216C905.807 672.808 905.503 673.704 905.503 674.904V681H901.759V668.088H905.335V669.792Z" fill="black"/>
<path d="M918.339 667.896C920.339 667.896 921.875 668.376 922.947 669.336C924.019 670.28 924.555 671.712 924.555 673.632V681H921.051V679.392C920.347 680.592 919.035 681.192 917.115 681.192C916.123 681.192 915.259 681.024 914.523 680.688C913.803 680.352 913.251 679.888 912.867 679.296C912.483 678.704 912.291 678.032 912.291 677.28C912.291 676.08 912.739 675.136 913.635 674.448C914.547 673.76 915.947 673.416 917.835 673.416H920.811C920.811 672.6 920.563 671.976 920.067 671.544C919.571 671.096 918.827 670.872 917.835 670.872C917.147 670.872 916.467 670.984 915.795 671.208C915.139 671.416 914.579 671.704 914.115 672.072L912.771 669.456C913.475 668.96 914.315 668.576 915.291 668.304C916.283 668.032 917.299 667.896 918.339 667.896ZM918.051 678.672C918.691 678.672 919.259 678.528 919.755 678.24C920.251 677.936 920.603 677.496 920.811 676.92V675.6H918.243C916.707 675.6 915.939 676.104 915.939 677.112C915.939 677.592 916.123 677.976 916.491 678.264C916.875 678.536 917.395 678.672 918.051 678.672Z" fill="black"/>
<path d="M933.487 681.192C932.415 681.192 931.367 681.064 930.343 680.808C929.319 680.536 928.503 680.2 927.895 679.8L929.143 677.112C929.719 677.48 930.415 677.784 931.231 678.024C932.047 678.248 932.847 678.36 933.631 678.36C935.215 678.36 936.007 677.968 936.007 677.184C936.007 676.816 935.791 676.552 935.359 676.392C934.927 676.232 934.263 676.096 933.367 675.984C932.311 675.824 931.439 675.64 930.751 675.432C930.063 675.224 929.463 674.856 928.951 674.328C928.455 673.8 928.207 673.048 928.207 672.072C928.207 671.256 928.439 670.536 928.903 669.912C929.383 669.272 930.071 668.776 930.967 668.424C931.879 668.072 932.951 667.896 934.183 667.896C935.095 667.896 935.999 668 936.895 668.208C937.807 668.4 938.559 668.672 939.151 669.024L937.903 671.688C936.767 671.048 935.527 670.728 934.183 670.728C933.383 670.728 932.783 670.84 932.383 671.064C931.983 671.288 931.783 671.576 931.783 671.928C931.783 672.328 931.999 672.608 932.431 672.768C932.863 672.928 933.551 673.08 934.495 673.224C935.551 673.4 936.415 673.592 937.087 673.8C937.759 673.992 938.343 674.352 938.839 674.88C939.335 675.408 939.583 676.144 939.583 677.088C939.583 677.888 939.343 678.6 938.863 679.224C938.383 679.848 937.679 680.336 936.751 680.688C935.839 681.024 934.751 681.192 933.487 681.192Z" fill="black"/>
<path d="M951.421 680.376C951.053 680.648 950.597 680.856 950.053 681C949.525 681.128 948.965 681.192 948.373 681.192C946.837 681.192 945.645 680.8 944.797 680.016C943.965 679.232 943.549 678.08 943.549 676.56V671.256H941.557V668.376H943.549V665.232H947.293V668.376H950.509V671.256H947.293V676.512C947.293 677.056 947.429 677.48 947.701 677.784C947.989 678.072 948.389 678.216 948.901 678.216C949.493 678.216 949.997 678.056 950.413 677.736L951.421 680.376Z" fill="black"/>
<path d="M958.299 669.792C958.747 669.168 959.347 668.696 960.099 668.376C960.867 668.056 961.747 667.896 962.739 667.896V671.352C962.323 671.32 962.043 671.304 961.899 671.304C960.827 671.304 959.987 671.608 959.379 672.216C958.771 672.808 958.467 673.704 958.467 674.904V681H954.723V668.088H958.299V669.792Z" fill="black"/>
<path d="M979.267 668.088V681H975.715V679.464C975.219 680.024 974.627 680.456 973.939 680.76C973.251 681.048 972.507 681.192 971.707 681.192C970.011 681.192 968.667 680.704 967.675 679.728C966.683 678.752 966.187 677.304 966.187 675.384V668.088H969.931V674.832C969.931 676.912 970.803 677.952 972.547 677.952C973.443 677.952 974.163 677.664 974.707 677.088C975.251 676.496 975.523 675.624 975.523 674.472V668.088H979.267Z" fill="black"/>
<path d="M990.175 681.192C988.799 681.192 987.559 680.912 986.455 680.352C985.367 679.776 984.511 678.984 983.887 677.976C983.279 676.968 982.975 675.824 982.975 674.544C982.975 673.264 983.279 672.12 983.887 671.112C984.511 670.104 985.367 669.32 986.455 668.76C987.559 668.184 988.799 667.896 990.175 667.896C991.535 667.896 992.719 668.184 993.727 668.76C994.751 669.32 995.495 670.128 995.959 671.184L993.055 672.744C992.383 671.56 991.415 670.968 990.151 670.968C989.175 670.968 988.367 671.288 987.727 671.928C987.087 672.568 986.767 673.44 986.767 674.544C986.767 675.648 987.087 676.52 987.727 677.16C988.367 677.8 989.175 678.12 990.151 678.12C991.431 678.12 992.399 677.528 993.055 676.344L995.959 677.928C995.495 678.952 994.751 679.752 993.727 680.328C992.719 680.904 991.535 681.192 990.175 681.192Z" fill="black"/>
<path d="M1007.83 680.376C1007.46 680.648 1007.01 680.856 1006.46 681C1005.93 681.128 1005.37 681.192 1004.78 681.192C1003.25 681.192 1002.05 680.8 1001.21 680.016C1000.37 679.232 999.959 678.08 999.959 676.56V671.256H997.967V668.376H999.959V665.232H1003.7V668.376H1006.92V671.256H1003.7V676.512C1003.7 677.056 1003.84 677.48 1004.11 677.784C1004.4 678.072 1004.8 678.216 1005.31 678.216C1005.9 678.216 1006.41 678.056 1006.82 677.736L1007.83 680.376Z" fill="black"/>
<path d="M1024.14 668.088V681H1020.59V679.464C1020.09 680.024 1019.5 680.456 1018.81 680.76C1018.12 681.048 1017.38 681.192 1016.58 681.192C1014.88 681.192 1013.54 680.704 1012.55 679.728C1011.56 678.752 1011.06 677.304 1011.06 675.384V668.088H1014.8V674.832C1014.8 676.912 1015.68 677.952 1017.42 677.952C1018.32 677.952 1019.04 677.664 1019.58 677.088C1020.12 676.496 1020.4 675.624 1020.4 674.472V668.088H1024.14Z" fill="black"/>
<path d="M1032.38 669.792C1032.83 669.168 1033.43 668.696 1034.18 668.376C1034.95 668.056 1035.83 667.896 1036.82 667.896V671.352C1036.41 671.32 1036.13 671.304 1035.98 671.304C1034.91 671.304 1034.07 671.608 1033.46 672.216C1032.86 672.808 1032.55 673.704 1032.55 674.904V681H1028.81V668.088H1032.38V669.792Z" fill="black"/>
<path d="M1052.78 674.592C1052.78 674.64 1052.76 674.976 1052.71 675.6H1042.94C1043.12 676.4 1043.53 677.032 1044.19 677.496C1044.85 677.96 1045.66 678.192 1046.64 678.192C1047.31 678.192 1047.9 678.096 1048.41 677.904C1048.94 677.696 1049.43 677.376 1049.88 676.944L1051.87 679.104C1050.65 680.496 1048.88 681.192 1046.54 681.192C1045.09 681.192 1043.8 680.912 1042.68 680.352C1041.56 679.776 1040.69 678.984 1040.09 677.976C1039.48 676.968 1039.17 675.824 1039.17 674.544C1039.17 673.28 1039.47 672.144 1040.06 671.136C1040.67 670.112 1041.49 669.32 1042.53 668.76C1043.59 668.184 1044.77 667.896 1046.06 667.896C1047.33 667.896 1048.47 668.168 1049.49 668.712C1050.52 669.256 1051.32 670.04 1051.89 671.064C1052.49 672.072 1052.78 673.248 1052.78 674.592ZM1046.09 670.728C1045.24 670.728 1044.53 670.968 1043.95 671.448C1043.37 671.928 1043.02 672.584 1042.89 673.416H1049.25C1049.13 672.6 1048.77 671.952 1048.2 671.472C1047.62 670.976 1046.92 670.728 1046.09 670.728Z" fill="black"/>
<rect x="86.5" y="334.5" width="195" height="95" fill="white" stroke="#376BC3" stroke-width="5"/>
<path d="M116.812 390.787C114.412 390.787 112.54 390.123 111.196 388.795C109.868 387.467 109.204 385.571 109.204 383.107V373.699H113.092V382.963C113.092 385.971 114.34 387.475 116.836 387.475C118.052 387.475 118.98 387.115 119.62 386.395C120.26 385.659 120.58 384.515 120.58 382.963V373.699H124.42V383.107C124.42 385.571 123.748 387.467 122.404 388.795C121.076 390.123 119.212 390.787 116.812 390.787Z" fill="black"/>
<path d="M144.87 373.699V390.499H141.678L133.302 380.299V390.499H129.462V373.699H132.678L141.03 383.899V373.699H144.87Z" fill="black"/>
<path d="M149.781 377.587H153.525V390.499H149.781V377.587ZM151.653 375.787C150.965 375.787 150.405 375.587 149.973 375.187C149.541 374.787 149.325 374.291 149.325 373.699C149.325 373.107 149.541 372.611 149.973 372.211C150.405 371.811 150.965 371.611 151.653 371.611C152.341 371.611 152.901 371.803 153.333 372.187C153.765 372.571 153.981 373.051 153.981 373.627C153.981 374.251 153.765 374.771 153.333 375.187C152.901 375.587 152.341 375.787 151.653 375.787Z" fill="black"/>
<path d="M158.464 373.699H166.096C167.92 373.699 169.528 374.051 170.92 374.755C172.328 375.443 173.416 376.419 174.184 377.683C174.968 378.947 175.36 380.419 175.36 382.099C175.36 383.779 174.968 385.251 174.184 386.515C173.416 387.779 172.328 388.763 170.92 389.467C169.528 390.155 167.92 390.499 166.096 390.499H158.464V373.699ZM165.904 387.307C167.584 387.307 168.92 386.843 169.912 385.915C170.92 384.971 171.424 383.699 171.424 382.099C171.424 380.499 170.92 379.235 169.912 378.307C168.92 377.363 167.584 376.891 165.904 376.891H162.352V387.307H165.904Z" fill="black"/>
<path d="M200.497 387.379V390.499H187.489V373.699H200.185V376.819H191.353V380.467H199.153V383.491H191.353V387.379H200.497Z" fill="black"/>
<path d="M204.79 373.699H212.422C214.246 373.699 215.854 374.051 217.246 374.755C218.654 375.443 219.742 376.419 220.51 377.683C221.294 378.947 221.686 380.419 221.686 382.099C221.686 383.779 221.294 385.251 220.51 386.515C219.742 387.779 218.654 388.763 217.246 389.467C215.854 390.155 214.246 390.499 212.422 390.499H204.79V373.699ZM212.23 387.307C213.91 387.307 215.246 386.843 216.238 385.915C217.246 384.971 217.75 383.699 217.75 382.099C217.75 380.499 217.246 379.235 216.238 378.307C215.246 377.363 213.91 376.891 212.23 376.891H208.678V387.307H212.23Z" fill="black"/>
<path d="M237.17 381.835H240.722V388.651C239.81 389.339 238.754 389.867 237.554 390.235C236.354 390.603 235.146 390.787 233.93 390.787C232.186 390.787 230.618 390.419 229.226 389.683C227.834 388.931 226.738 387.899 225.938 386.587C225.154 385.259 224.762 383.763 224.762 382.099C224.762 380.435 225.154 378.947 225.938 377.635C226.738 376.307 227.842 375.275 229.25 374.539C230.658 373.787 232.242 373.411 234.002 373.411C235.474 373.411 236.81 373.659 238.01 374.155C239.21 374.651 240.218 375.371 241.034 376.315L238.538 378.619C237.338 377.355 235.89 376.723 234.194 376.723C233.122 376.723 232.17 376.947 231.338 377.395C230.506 377.843 229.858 378.475 229.394 379.291C228.93 380.107 228.698 381.043 228.698 382.099C228.698 383.139 228.93 384.067 229.394 384.883C229.858 385.699 230.498 386.339 231.314 386.803C232.146 387.251 233.09 387.475 234.146 387.475C235.266 387.475 236.274 387.235 237.17 386.755V381.835Z" fill="black"/>
<path d="M258.542 387.379V390.499H245.534V373.699H258.23V376.819H249.398V380.467H257.198V383.491H249.398V387.379H258.542Z" fill="black"/>
<path d="M221.106 511.2C222.594 511.2 223.882 511.448 224.97 511.944C226.074 512.44 226.922 513.144 227.514 514.056C228.106 514.968 228.402 516.048 228.402 517.296C228.402 518.528 228.106 519.608 227.514 520.536C226.922 521.448 226.074 522.152 224.97 522.648C223.882 523.128 222.594 523.368 221.106 523.368H217.722V528H213.834V511.2H221.106ZM220.89 520.2C222.058 520.2 222.946 519.952 223.554 519.456C224.162 518.944 224.466 518.224 224.466 517.296C224.466 516.352 224.162 515.632 223.554 515.136C222.946 514.624 222.058 514.368 220.89 514.368H217.722V520.2H220.89Z" fill="black"/>
<path d="M245.356 515.088V528H241.804V526.464C241.308 527.024 240.716 527.456 240.028 527.76C239.34 528.048 238.596 528.192 237.796 528.192C236.1 528.192 234.756 527.704 233.764 526.728C232.772 525.752 232.276 524.304 232.276 522.384V515.088H236.02V521.832C236.02 523.912 236.892 524.952 238.636 524.952C239.532 524.952 240.252 524.664 240.796 524.088C241.34 523.496 241.612 522.624 241.612 521.472V515.088H245.356Z" fill="black"/>
<path d="M257.657 514.896C258.857 514.896 259.945 515.176 260.921 515.736C261.913 516.28 262.689 517.056 263.249 518.064C263.809 519.056 264.089 520.216 264.089 521.544C264.089 522.872 263.809 524.04 263.249 525.048C262.689 526.04 261.913 526.816 260.921 527.376C259.945 527.92 258.857 528.192 257.657 528.192C255.881 528.192 254.529 527.632 253.601 526.512V528H250.025V510.192H253.769V516.456C254.713 515.416 256.009 514.896 257.657 514.896ZM257.009 525.12C257.969 525.12 258.753 524.8 259.361 524.16C259.985 523.504 260.297 522.632 260.297 521.544C260.297 520.456 259.985 519.592 259.361 518.952C258.753 518.296 257.969 517.968 257.009 517.968C256.049 517.968 255.257 518.296 254.633 518.952C254.025 519.592 253.721 520.456 253.721 521.544C253.721 522.632 254.025 523.504 254.633 524.16C255.257 524.8 256.049 525.12 257.009 525.12Z" fill="black"/>
<path d="M267.795 510.192H271.539V528H267.795V510.192Z" fill="black"/>
<path d="M276.214 515.088H279.958V528H276.214V515.088ZM278.086 513.288C277.398 513.288 276.838 513.088 276.406 512.688C275.974 512.288 275.758 511.792 275.758 511.2C275.758 510.608 275.974 510.112 276.406 509.712C276.838 509.312 277.398 509.112 278.086 509.112C278.774 509.112 279.334 509.304 279.766 509.688C280.198 510.072 280.414 510.552 280.414 511.128C280.414 511.752 280.198 512.272 279.766 512.688C279.334 513.088 278.774 513.288 278.086 513.288Z" fill="black"/>
<path d="M290.872 528.192C289.496 528.192 288.256 527.912 287.152 527.352C286.064 526.776 285.208 525.984 284.584 524.976C283.976 523.968 283.672 522.824 283.672 521.544C283.672 520.264 283.976 519.12 284.584 518.112C285.208 517.104 286.064 516.32 287.152 515.76C288.256 515.184 289.496 514.896 290.872 514.896C292.232 514.896 293.416 515.184 294.424 515.76C295.448 516.32 296.192 517.128 296.656 518.184L293.752 519.744C293.08 518.56 292.112 517.968 290.848 517.968C289.872 517.968 289.064 518.288 288.424 518.928C287.784 519.568 287.464 520.44 287.464 521.544C287.464 522.648 287.784 523.52 288.424 524.16C289.064 524.8 289.872 525.12 290.848 525.12C292.128 525.12 293.096 524.528 293.752 523.344L296.656 524.928C296.192 525.952 295.448 526.752 294.424 527.328C293.416 527.904 292.232 528.192 290.872 528.192Z" fill="black"/>
<path d="M314.393 521.4L312.137 523.752V528H308.273V511.2H312.137V519.048L319.577 511.2H323.897L316.937 518.688L324.305 528H319.769L314.393 521.4Z" fill="black"/>
<path d="M339.084 521.592C339.084 521.64 339.06 521.976 339.012 522.6H329.244C329.42 523.4 329.836 524.032 330.492 524.496C331.148 524.96 331.964 525.192 332.94 525.192C333.612 525.192 334.204 525.096 334.716 524.904C335.244 524.696 335.732 524.376 336.18 523.944L338.172 526.104C336.956 527.496 335.18 528.192 332.844 528.192C331.388 528.192 330.1 527.912 328.98 527.352C327.86 526.776 326.996 525.984 326.388 524.976C325.78 523.968 325.476 522.824 325.476 521.544C325.476 520.28 325.772 519.144 326.364 518.136C326.972 517.112 327.796 516.32 328.836 515.76C329.892 515.184 331.068 514.896 332.364 514.896C333.628 514.896 334.772 515.168 335.796 515.712C336.82 516.256 337.62 517.04 338.196 518.064C338.788 519.072 339.084 520.248 339.084 521.592ZM332.388 517.728C331.54 517.728 330.828 517.968 330.252 518.448C329.676 518.928 329.324 519.584 329.196 520.416H335.556C335.428 519.6 335.076 518.952 334.5 518.472C333.924 517.976 333.22 517.728 332.388 517.728Z" fill="black"/>
<path d="M355.358 515.088L349.526 528.792C348.934 530.28 348.198 531.328 347.318 531.936C346.454 532.544 345.406 532.848 344.174 532.848C343.502 532.848 342.838 532.744 342.182 532.536C341.526 532.328 340.99 532.04 340.574 531.672L341.942 529.008C342.23 529.264 342.558 529.464 342.926 529.608C343.31 529.752 343.686 529.824 344.054 529.824C344.566 529.824 344.982 529.696 345.302 529.44C345.622 529.2 345.91 528.792 346.166 528.216L346.214 528.096L340.622 515.088H344.486L348.11 523.848L351.758 515.088H355.358Z" fill="black"/>
<path d="M362.339 361.88V365H349.331V348.2H362.027V351.32H353.195V354.968H360.995V357.992H353.195V361.88H362.339Z" fill="black"/>
<path d="M378.035 361.832V365H365.339V362.48L371.819 356.36C372.507 355.704 372.971 355.144 373.211 354.68C373.451 354.2 373.571 353.728 373.571 353.264C373.571 352.592 373.339 352.08 372.875 351.728C372.427 351.36 371.763 351.176 370.883 351.176C370.147 351.176 369.483 351.32 368.891 351.608C368.299 351.88 367.803 352.296 367.403 352.856L364.571 351.032C365.227 350.056 366.131 349.296 367.283 348.752C368.435 348.192 369.755 347.912 371.243 347.912C372.491 347.912 373.579 348.12 374.507 348.536C375.451 348.936 376.179 349.512 376.691 350.264C377.219 351 377.483 351.872 377.483 352.88C377.483 353.792 377.291 354.648 376.907 355.448C376.523 356.248 375.779 357.16 374.675 358.184L370.811 361.832H378.035Z" fill="black"/>
<path d="M394.903 361.88V365H381.895V348.2H394.591V351.32H385.759V354.968H393.559V357.992H385.759V361.88H394.903Z" fill="black"/>
<path d="M412.714 365.288C411.386 365.288 410.098 365.112 408.85 364.76C407.618 364.392 406.626 363.92 405.874 363.344L407.194 360.416C407.914 360.944 408.77 361.368 409.762 361.688C410.754 362.008 411.746 362.168 412.738 362.168C413.842 362.168 414.658 362.008 415.186 361.688C415.714 361.352 415.978 360.912 415.978 360.368C415.978 359.968 415.818 359.64 415.498 359.384C415.194 359.112 414.794 358.896 414.298 358.736C413.818 358.576 413.162 358.4 412.33 358.208C411.05 357.904 410.002 357.6 409.186 357.296C408.37 356.992 407.666 356.504 407.074 355.832C406.498 355.16 406.21 354.264 406.21 353.144C406.21 352.168 406.474 351.288 407.002 350.504C407.53 349.704 408.322 349.072 409.378 348.608C410.45 348.144 411.754 347.912 413.29 347.912C414.362 347.912 415.41 348.04 416.434 348.296C417.458 348.552 418.354 348.92 419.122 349.4L417.922 352.352C416.37 351.472 414.818 351.032 413.266 351.032C412.178 351.032 411.37 351.208 410.842 351.56C410.33 351.912 410.074 352.376 410.074 352.952C410.074 353.528 410.37 353.96 410.962 354.248C411.57 354.52 412.49 354.792 413.722 355.064C415.002 355.368 416.05 355.672 416.866 355.976C417.682 356.28 418.378 356.76 418.954 357.416C419.546 358.072 419.842 358.96 419.842 360.08C419.842 361.04 419.57 361.92 419.026 362.72C418.498 363.504 417.698 364.128 416.626 364.592C415.554 365.056 414.25 365.288 412.714 365.288Z" fill="black"/>
<path d="M436.082 358.592C436.082 358.64 436.058 358.976 436.01 359.6H426.242C426.418 360.4 426.834 361.032 427.49 361.496C428.146 361.96 428.962 362.192 429.938 362.192C430.61 362.192 431.202 362.096 431.714 361.904C432.242 361.696 432.73 361.376 433.178 360.944L435.17 363.104C433.954 364.496 432.178 365.192 429.842 365.192C428.386 365.192 427.098 364.912 425.978 364.352C424.858 363.776 423.994 362.984 423.386 361.976C422.778 360.968 422.474 359.824 422.474 358.544C422.474 357.28 422.77 356.144 423.362 355.136C423.97 354.112 424.794 353.32 425.834 352.76C426.89 352.184 428.066 351.896 429.362 351.896C430.626 351.896 431.77 352.168 432.794 352.712C433.818 353.256 434.618 354.04 435.194 355.064C435.786 356.072 436.082 357.248 436.082 358.592ZM429.386 354.728C428.538 354.728 427.826 354.968 427.25 355.448C426.674 355.928 426.322 356.584 426.194 357.416H432.554C432.426 356.6 432.074 355.952 431.498 355.472C430.922 354.976 430.218 354.728 429.386 354.728Z" fill="black"/>
<path d="M446.015 365.192C444.639 365.192 443.399 364.912 442.295 364.352C441.207 363.776 440.351 362.984 439.727 361.976C439.119 360.968 438.815 359.824 438.815 358.544C438.815 357.264 439.119 356.12 439.727 355.112C440.351 354.104 441.207 353.32 442.295 352.76C443.399 352.184 444.639 351.896 446.015 351.896C447.375 351.896 448.559 352.184 449.567 352.76C450.591 353.32 451.335 354.128 451.799 355.184L448.895 356.744C448.223 355.56 447.255 354.968 445.991 354.968C445.015 354.968 444.207 355.288 443.567 355.928C442.927 356.568 442.607 357.44 442.607 358.544C442.607 359.648 442.927 360.52 443.567 361.16C444.207 361.8 445.015 362.12 445.991 362.12C447.271 362.12 448.239 361.528 448.895 360.344L451.799 361.928C451.335 362.952 450.591 363.752 449.567 364.328C448.559 364.904 447.375 365.192 446.015 365.192Z" fill="black"/>
<path d="M468.163 352.088V365H464.611V363.464C464.115 364.024 463.523 364.456 462.835 364.76C462.147 365.048 461.403 365.192 460.603 365.192C458.907 365.192 457.563 364.704 456.571 363.728C455.579 362.752 455.083 361.304 455.083 359.384V352.088H458.827V358.832C458.827 360.912 459.699 361.952 461.443 361.952C462.339 361.952 463.059 361.664 463.603 361.088C464.147 360.496 464.419 359.624 464.419 358.472V352.088H468.163Z" fill="black"/>
<path d="M476.407 353.792C476.855 353.168 477.455 352.696 478.207 352.376C478.975 352.056 479.855 351.896 480.847 351.896V355.352C480.431 355.32 480.151 355.304 480.007 355.304C478.935 355.304 478.095 355.608 477.487 356.216C476.879 356.808 476.575 357.704 476.575 358.904V365H472.831V352.088H476.407V353.792Z" fill="black"/>
<path d="M496.804 358.592C496.804 358.64 496.78 358.976 496.732 359.6H486.964C487.14 360.4 487.556 361.032 488.212 361.496C488.868 361.96 489.684 362.192 490.66 362.192C491.332 362.192 491.924 362.096 492.436 361.904C492.964 361.696 493.452 361.376 493.9 360.944L495.892 363.104C494.676 364.496 492.9 365.192 490.564 365.192C489.108 365.192 487.82 364.912 486.7 364.352C485.58 363.776 484.716 362.984 484.108 361.976C483.5 360.968 483.196 359.824 483.196 358.544C483.196 357.28 483.492 356.144 484.084 355.136C484.692 354.112 485.516 353.32 486.556 352.76C487.612 352.184 488.788 351.896 490.084 351.896C491.348 351.896 492.492 352.168 493.516 352.712C494.54 353.256 495.34 354.04 495.916 355.064C496.508 356.072 496.804 357.248 496.804 358.592ZM490.108 354.728C489.26 354.728 488.548 354.968 487.972 355.448C487.396 355.928 487.044 356.584 486.916 357.416H493.276C493.148 356.6 492.796 355.952 492.22 355.472C491.644 354.976 490.94 354.728 490.108 354.728Z" fill="black"/>
<path d="M516.798 365.288C515.086 365.288 513.534 364.92 512.142 364.184C510.766 363.432 509.678 362.4 508.878 361.088C508.094 359.76 507.702 358.264 507.702 356.6C507.702 354.936 508.094 353.448 508.878 352.136C509.678 350.808 510.766 349.776 512.142 349.04C513.534 348.288 515.094 347.912 516.822 347.912C518.278 347.912 519.59 348.168 520.758 348.68C521.942 349.192 522.934 349.928 523.734 350.888L521.238 353.192C520.102 351.88 518.694 351.224 517.014 351.224C515.974 351.224 515.046 351.456 514.23 351.92C513.414 352.368 512.774 353 512.31 353.816C511.862 354.632 511.638 355.56 511.638 356.6C511.638 357.64 511.862 358.568 512.31 359.384C512.774 360.2 513.414 360.84 514.23 361.304C515.046 361.752 515.974 361.976 517.014 361.976C518.694 361.976 520.102 361.312 521.238 359.984L523.734 362.288C522.934 363.264 521.942 364.008 520.758 364.52C519.574 365.032 518.254 365.288 516.798 365.288Z" fill="black"/>
<path d="M535.143 351.896C536.743 351.896 538.031 352.376 539.007 353.336C539.999 354.296 540.495 355.72 540.495 357.608V365H536.751V358.184C536.751 357.16 536.527 356.4 536.079 355.904C535.631 355.392 534.983 355.136 534.135 355.136C533.191 355.136 532.439 355.432 531.879 356.024C531.319 356.6 531.039 357.464 531.039 358.616V365H527.295V347.192H531.039V353.432C531.535 352.936 532.135 352.56 532.839 352.304C533.543 352.032 534.311 351.896 535.143 351.896Z" fill="black"/>
<path d="M550.297 351.896C552.297 351.896 553.833 352.376 554.905 353.336C555.977 354.28 556.513 355.712 556.513 357.632V365H553.009V363.392C552.305 364.592 550.993 365.192 549.073 365.192C548.081 365.192 547.217 365.024 546.481 364.688C545.761 364.352 545.209 363.888 544.825 363.296C544.441 362.704 544.249 362.032 544.249 361.28C544.249 360.08 544.697 359.136 545.593 358.448C546.505 357.76 547.905 357.416 549.793 357.416H552.769C552.769 356.6 552.521 355.976 552.025 355.544C551.529 355.096 550.785 354.872 549.793 354.872C549.105 354.872 548.425 354.984 547.753 355.208C547.097 355.416 546.537 355.704 546.073 356.072L544.729 353.456C545.433 352.96 546.273 352.576 547.249 352.304C548.241 352.032 549.257 351.896 550.297 351.896ZM550.009 362.672C550.649 362.672 551.217 362.528 551.713 362.24C552.209 361.936 552.561 361.496 552.769 360.92V359.6H550.201C548.665 359.6 547.897 360.104 547.897 361.112C547.897 361.592 548.081 361.976 548.449 362.264C548.833 362.536 549.353 362.672 550.009 362.672Z" fill="black"/>
<path d="M568.949 351.896C570.549 351.896 571.837 352.376 572.813 353.336C573.805 354.296 574.301 355.72 574.301 357.608V365H570.557V358.184C570.557 357.16 570.333 356.4 569.885 355.904C569.437 355.392 568.789 355.136 567.941 355.136C566.997 355.136 566.245 355.432 565.685 356.024C565.125 356.6 564.845 357.464 564.845 358.616V365H561.101V352.088H564.677V353.6C565.173 353.056 565.789 352.64 566.525 352.352C567.261 352.048 568.069 351.896 568.949 351.896Z" fill="black"/>
<path d="M586.743 351.896C588.343 351.896 589.631 352.376 590.607 353.336C591.599 354.296 592.095 355.72 592.095 357.608V365H588.351V358.184C588.351 357.16 588.127 356.4 587.679 355.904C587.231 355.392 586.583 355.136 585.735 355.136C584.791 355.136 584.039 355.432 583.479 356.024C582.919 356.6 582.639 357.464 582.639 358.616V365H578.895V352.088H582.471V353.6C582.967 353.056 583.583 352.64 584.319 352.352C585.055 352.048 585.863 351.896 586.743 351.896Z" fill="black"/>
<path d="M609.478 358.592C609.478 358.64 609.454 358.976 609.406 359.6H599.638C599.814 360.4 600.23 361.032 600.886 361.496C601.542 361.96 602.358 362.192 603.334 362.192C604.006 362.192 604.598 362.096 605.11 361.904C605.638 361.696 606.126 361.376 606.574 360.944L608.566 363.104C607.35 364.496 605.574 365.192 603.238 365.192C601.782 365.192 600.494 364.912 599.374 364.352C598.254 363.776 597.39 362.984 596.782 361.976C596.174 360.968 595.87 359.824 595.87 358.544C595.87 357.28 596.166 356.144 596.758 355.136C597.366 354.112 598.19 353.32 599.23 352.76C600.286 352.184 601.462 351.896 602.758 351.896C604.022 351.896 605.166 352.168 606.19 352.712C607.214 353.256 608.014 354.04 608.59 355.064C609.182 356.072 609.478 357.248 609.478 358.592ZM602.782 354.728C601.934 354.728 601.222 354.968 600.646 355.448C600.07 355.928 599.718 356.584 599.59 357.416H605.95C605.822 356.6 605.47 355.952 604.894 355.472C604.318 354.976 603.614 354.728 602.782 354.728Z" fill="black"/>
<path d="M613.17 347.192H616.914V365H613.17V347.192Z" fill="black"/>
<path d="M960.339 361.88V365H947.331V348.2H960.027V351.32H951.195V354.968H958.995V357.992H951.195V361.88H960.339Z" fill="black"/>
<path d="M976.035 361.832V365H963.339V362.48L969.819 356.36C970.507 355.704 970.971 355.144 971.211 354.68C971.451 354.2 971.571 353.728 971.571 353.264C971.571 352.592 971.339 352.08 970.875 351.728C970.427 351.36 969.763 351.176 968.883 351.176C968.147 351.176 967.483 351.32 966.891 351.608C966.299 351.88 965.803 352.296 965.403 352.856L962.571 351.032C963.227 350.056 964.131 349.296 965.283 348.752C966.435 348.192 967.755 347.912 969.243 347.912C970.491 347.912 971.579 348.12 972.507 348.536C973.451 348.936 974.179 349.512 974.691 350.264C975.219 351 975.483 351.872 975.483 352.88C975.483 353.792 975.291 354.648 974.907 355.448C974.523 356.248 973.779 357.16 972.675 358.184L968.811 361.832H976.035Z" fill="black"/>
<path d="M992.903 361.88V365H979.895V348.2H992.591V351.32H983.759V354.968H991.559V357.992H983.759V361.88H992.903Z" fill="black"/>
<path d="M1010.71 365.288C1009.39 365.288 1008.1 365.112 1006.85 364.76C1005.62 364.392 1004.63 363.92 1003.87 363.344L1005.19 360.416C1005.91 360.944 1006.77 361.368 1007.76 361.688C1008.75 362.008 1009.75 362.168 1010.74 362.168C1011.84 362.168 1012.66 362.008 1013.19 361.688C1013.71 361.352 1013.98 360.912 1013.98 360.368C1013.98 359.968 1013.82 359.64 1013.5 359.384C1013.19 359.112 1012.79 358.896 1012.3 358.736C1011.82 358.576 1011.16 358.4 1010.33 358.208C1009.05 357.904 1008 357.6 1007.19 357.296C1006.37 356.992 1005.67 356.504 1005.07 355.832C1004.5 355.16 1004.21 354.264 1004.21 353.144C1004.21 352.168 1004.47 351.288 1005 350.504C1005.53 349.704 1006.32 349.072 1007.38 348.608C1008.45 348.144 1009.75 347.912 1011.29 347.912C1012.36 347.912 1013.41 348.04 1014.43 348.296C1015.46 348.552 1016.35 348.92 1017.12 349.4L1015.92 352.352C1014.37 351.472 1012.82 351.032 1011.27 351.032C1010.18 351.032 1009.37 351.208 1008.84 351.56C1008.33 351.912 1008.07 352.376 1008.07 352.952C1008.07 353.528 1008.37 353.96 1008.96 354.248C1009.57 354.52 1010.49 354.792 1011.72 355.064C1013 355.368 1014.05 355.672 1014.87 355.976C1015.68 356.28 1016.38 356.76 1016.95 357.416C1017.55 358.072 1017.84 358.96 1017.84 360.08C1017.84 361.04 1017.57 361.92 1017.03 362.72C1016.5 363.504 1015.7 364.128 1014.63 364.592C1013.55 365.056 1012.25 365.288 1010.71 365.288Z" fill="black"/>
<path d="M1034.08 358.592C1034.08 358.64 1034.06 358.976 1034.01 359.6H1024.24C1024.42 360.4 1024.83 361.032 1025.49 361.496C1026.15 361.96 1026.96 362.192 1027.94 362.192C1028.61 362.192 1029.2 362.096 1029.71 361.904C1030.24 361.696 1030.73 361.376 1031.18 360.944L1033.17 363.104C1031.95 364.496 1030.18 365.192 1027.84 365.192C1026.39 365.192 1025.1 364.912 1023.98 364.352C1022.86 363.776 1021.99 362.984 1021.39 361.976C1020.78 360.968 1020.47 359.824 1020.47 358.544C1020.47 357.28 1020.77 356.144 1021.36 355.136C1021.97 354.112 1022.79 353.32 1023.83 352.76C1024.89 352.184 1026.07 351.896 1027.36 351.896C1028.63 351.896 1029.77 352.168 1030.79 352.712C1031.82 353.256 1032.62 354.04 1033.19 355.064C1033.79 356.072 1034.08 357.248 1034.08 358.592ZM1027.39 354.728C1026.54 354.728 1025.83 354.968 1025.25 355.448C1024.67 355.928 1024.32 356.584 1024.19 357.416H1030.55C1030.43 356.6 1030.07 355.952 1029.5 355.472C1028.92 354.976 1028.22 354.728 1027.39 354.728Z" fill="black"/>
<path d="M1044.01 365.192C1042.64 365.192 1041.4 364.912 1040.29 364.352C1039.21 363.776 1038.35 362.984 1037.73 361.976C1037.12 360.968 1036.81 359.824 1036.81 358.544C1036.81 357.264 1037.12 356.12 1037.73 355.112C1038.35 354.104 1039.21 353.32 1040.29 352.76C1041.4 352.184 1042.64 351.896 1044.01 351.896C1045.37 351.896 1046.56 352.184 1047.57 352.76C1048.59 353.32 1049.33 354.128 1049.8 355.184L1046.89 356.744C1046.22 355.56 1045.25 354.968 1043.99 354.968C1043.01 354.968 1042.21 355.288 1041.57 355.928C1040.93 356.568 1040.61 357.44 1040.61 358.544C1040.61 359.648 1040.93 360.52 1041.57 361.16C1042.21 361.8 1043.01 362.12 1043.99 362.12C1045.27 362.12 1046.24 361.528 1046.89 360.344L1049.8 361.928C1049.33 362.952 1048.59 363.752 1047.57 364.328C1046.56 364.904 1045.37 365.192 1044.01 365.192Z" fill="black"/>
<path d="M1066.16 352.088V365H1062.61V363.464C1062.11 364.024 1061.52 364.456 1060.83 364.76C1060.15 365.048 1059.4 365.192 1058.6 365.192C1056.91 365.192 1055.56 364.704 1054.57 363.728C1053.58 362.752 1053.08 361.304 1053.08 359.384V352.088H1056.83V358.832C1056.83 360.912 1057.7 361.952 1059.44 361.952C1060.34 361.952 1061.06 361.664 1061.6 361.088C1062.15 360.496 1062.42 359.624 1062.42 358.472V352.088H1066.16Z" fill="black"/>
<path d="M1074.41 353.792C1074.86 353.168 1075.46 352.696 1076.21 352.376C1076.98 352.056 1077.86 351.896 1078.85 351.896V355.352C1078.43 355.32 1078.15 355.304 1078.01 355.304C1076.94 355.304 1076.1 355.608 1075.49 356.216C1074.88 356.808 1074.58 357.704 1074.58 358.904V365H1070.83V352.088H1074.41V353.792Z" fill="black"/>
<path d="M1094.8 358.592C1094.8 358.64 1094.78 358.976 1094.73 359.6H1084.96C1085.14 360.4 1085.56 361.032 1086.21 361.496C1086.87 361.96 1087.68 362.192 1088.66 362.192C1089.33 362.192 1089.92 362.096 1090.44 361.904C1090.96 361.696 1091.45 361.376 1091.9 360.944L1093.89 363.104C1092.68 364.496 1090.9 365.192 1088.56 365.192C1087.11 365.192 1085.82 364.912 1084.7 364.352C1083.58 363.776 1082.72 362.984 1082.11 361.976C1081.5 360.968 1081.2 359.824 1081.2 358.544C1081.2 357.28 1081.49 356.144 1082.08 355.136C1082.69 354.112 1083.52 353.32 1084.56 352.76C1085.61 352.184 1086.79 351.896 1088.08 351.896C1089.35 351.896 1090.49 352.168 1091.52 352.712C1092.54 353.256 1093.34 354.04 1093.92 355.064C1094.51 356.072 1094.8 357.248 1094.8 358.592ZM1088.11 354.728C1087.26 354.728 1086.55 354.968 1085.97 355.448C1085.4 355.928 1085.04 356.584 1084.92 357.416H1091.28C1091.15 356.6 1090.8 355.952 1090.22 355.472C1089.64 354.976 1088.94 354.728 1088.11 354.728Z" fill="black"/>
<path d="M1114.8 365.288C1113.09 365.288 1111.53 364.92 1110.14 364.184C1108.77 363.432 1107.68 362.4 1106.88 361.088C1106.09 359.76 1105.7 358.264 1105.7 356.6C1105.7 354.936 1106.09 353.448 1106.88 352.136C1107.68 350.808 1108.77 349.776 1110.14 349.04C1111.53 348.288 1113.09 347.912 1114.82 347.912C1116.28 347.912 1117.59 348.168 1118.76 348.68C1119.94 349.192 1120.93 349.928 1121.73 350.888L1119.24 353.192C1118.1 351.88 1116.69 351.224 1115.01 351.224C1113.97 351.224 1113.05 351.456 1112.23 351.92C1111.41 352.368 1110.77 353 1110.31 353.816C1109.86 354.632 1109.64 355.56 1109.64 356.6C1109.64 357.64 1109.86 358.568 1110.31 359.384C1110.77 360.2 1111.41 360.84 1112.23 361.304C1113.05 361.752 1113.97 361.976 1115.01 361.976C1116.69 361.976 1118.1 361.312 1119.24 359.984L1121.73 362.288C1120.93 363.264 1119.94 364.008 1118.76 364.52C1117.57 365.032 1116.25 365.288 1114.8 365.288Z" fill="black"/>
<path d="M1133.14 351.896C1134.74 351.896 1136.03 352.376 1137.01 353.336C1138 354.296 1138.5 355.72 1138.5 357.608V365H1134.75V358.184C1134.75 357.16 1134.53 356.4 1134.08 355.904C1133.63 355.392 1132.98 355.136 1132.14 355.136C1131.19 355.136 1130.44 355.432 1129.88 356.024C1129.32 356.6 1129.04 357.464 1129.04 358.616V365H1125.3V347.192H1129.04V353.432C1129.54 352.936 1130.14 352.56 1130.84 352.304C1131.54 352.032 1132.31 351.896 1133.14 351.896Z" fill="black"/>
<path d="M1148.3 351.896C1150.3 351.896 1151.83 352.376 1152.9 353.336C1153.98 354.28 1154.51 355.712 1154.51 357.632V365H1151.01V363.392C1150.3 364.592 1148.99 365.192 1147.07 365.192C1146.08 365.192 1145.22 365.024 1144.48 364.688C1143.76 364.352 1143.21 363.888 1142.82 363.296C1142.44 362.704 1142.25 362.032 1142.25 361.28C1142.25 360.08 1142.7 359.136 1143.59 358.448C1144.5 357.76 1145.9 357.416 1147.79 357.416H1150.77C1150.77 356.6 1150.52 355.976 1150.02 355.544C1149.53 355.096 1148.78 354.872 1147.79 354.872C1147.1 354.872 1146.42 354.984 1145.75 355.208C1145.1 355.416 1144.54 355.704 1144.07 356.072L1142.73 353.456C1143.43 352.96 1144.27 352.576 1145.25 352.304C1146.24 352.032 1147.26 351.896 1148.3 351.896ZM1148.01 362.672C1148.65 362.672 1149.22 362.528 1149.71 362.24C1150.21 361.936 1150.56 361.496 1150.77 360.92V359.6H1148.2C1146.66 359.6 1145.9 360.104 1145.9 361.112C1145.9 361.592 1146.08 361.976 1146.45 362.264C1146.83 362.536 1147.35 362.672 1148.01 362.672Z" fill="black"/>
<path d="M1166.95 351.896C1168.55 351.896 1169.84 352.376 1170.81 353.336C1171.81 354.296 1172.3 355.72 1172.3 357.608V365H1168.56V358.184C1168.56 357.16 1168.33 356.4 1167.89 355.904C1167.44 355.392 1166.79 355.136 1165.94 355.136C1165 355.136 1164.25 355.432 1163.69 356.024C1163.13 356.6 1162.85 357.464 1162.85 358.616V365H1159.1V352.088H1162.68V353.6C1163.17 353.056 1163.79 352.64 1164.53 352.352C1165.26 352.048 1166.07 351.896 1166.95 351.896Z" fill="black"/>
<path d="M1184.74 351.896C1186.34 351.896 1187.63 352.376 1188.61 353.336C1189.6 354.296 1190.1 355.72 1190.1 357.608V365H1186.35V358.184C1186.35 357.16 1186.13 356.4 1185.68 355.904C1185.23 355.392 1184.58 355.136 1183.74 355.136C1182.79 355.136 1182.04 355.432 1181.48 356.024C1180.92 356.6 1180.64 357.464 1180.64 358.616V365H1176.9V352.088H1180.47V353.6C1180.97 353.056 1181.58 352.64 1182.32 352.352C1183.06 352.048 1183.86 351.896 1184.74 351.896Z" fill="black"/>
<path d="M1207.48 358.592C1207.48 358.64 1207.45 358.976 1207.41 359.6H1197.64C1197.81 360.4 1198.23 361.032 1198.89 361.496C1199.54 361.96 1200.36 362.192 1201.33 362.192C1202.01 362.192 1202.6 362.096 1203.11 361.904C1203.64 361.696 1204.13 361.376 1204.57 360.944L1206.57 363.104C1205.35 364.496 1203.57 365.192 1201.24 365.192C1199.78 365.192 1198.49 364.912 1197.37 364.352C1196.25 363.776 1195.39 362.984 1194.78 361.976C1194.17 360.968 1193.87 359.824 1193.87 358.544C1193.87 357.28 1194.17 356.144 1194.76 355.136C1195.37 354.112 1196.19 353.32 1197.23 352.76C1198.29 352.184 1199.46 351.896 1200.76 351.896C1202.02 351.896 1203.17 352.168 1204.19 352.712C1205.21 353.256 1206.01 354.04 1206.59 355.064C1207.18 356.072 1207.48 357.248 1207.48 358.592ZM1200.78 354.728C1199.93 354.728 1199.22 354.968 1198.65 355.448C1198.07 355.928 1197.72 356.584 1197.59 357.416H1203.95C1203.82 356.6 1203.47 355.952 1202.89 355.472C1202.32 354.976 1201.61 354.728 1200.78 354.728Z" fill="black"/>
<path d="M1211.17 347.192H1214.91V365H1211.17V347.192Z" fill="black"/>
<rect x="684.5" y="334.5" width="195" height="95" fill="white" stroke="#376BC3" stroke-width="5"/>
<path d="M721.862 390.787C719.462 390.787 717.59 390.123 716.246 388.795C714.918 387.467 714.254 385.571 714.254 383.107V373.699H718.142V382.963C718.142 385.971 719.39 387.475 721.886 387.475C723.102 387.475 724.03 387.115 724.67 386.395C725.31 385.659 725.63 384.515 725.63 382.963V373.699H729.47V383.107C729.47 385.571 728.798 387.467 727.454 388.795C726.126 390.123 724.262 390.787 721.862 390.787Z" fill="black"/>
<path d="M749.92 373.699V390.499H746.728L738.352 380.299V390.499H734.512V373.699H737.728L746.08 383.899V373.699H749.92Z" fill="black"/>
<path d="M754.831 377.587H758.575V390.499H754.831V377.587ZM756.703 375.787C756.015 375.787 755.455 375.587 755.023 375.187C754.591 374.787 754.375 374.291 754.375 373.699C754.375 373.107 754.591 372.611 755.023 372.211C755.455 371.811 756.015 371.611 756.703 371.611C757.391 371.611 757.951 371.803 758.383 372.187C758.815 372.571 759.031 373.051 759.031 373.627C759.031 374.251 758.815 374.771 758.383 375.187C757.951 375.587 757.391 375.787 756.703 375.787Z" fill="black"/>
<path d="M763.514 373.699H771.146C772.97 373.699 774.578 374.051 775.97 374.755C777.378 375.443 778.466 376.419 779.234 377.683C780.018 378.947 780.41 380.419 780.41 382.099C780.41 383.779 780.018 385.251 779.234 386.515C778.466 387.779 777.378 388.763 775.97 389.467C774.578 390.155 772.97 390.499 771.146 390.499H763.514V373.699ZM770.954 387.307C772.634 387.307 773.97 386.843 774.962 385.915C775.97 384.971 776.474 383.699 776.474 382.099C776.474 380.499 775.97 379.235 774.962 378.307C773.97 377.363 772.634 376.891 770.954 376.891H767.402V387.307H770.954Z" fill="black"/>
<path d="M807.947 373.699V390.499H804.059V383.611H796.427V390.499H792.539V373.699H796.427V380.323H804.059V373.699H807.947Z" fill="black"/>
<path d="M820.585 390.787C818.185 390.787 816.313 390.123 814.969 388.795C813.641 387.467 812.977 385.571 812.977 383.107V373.699H816.865V382.963C816.865 385.971 818.113 387.475 820.609 387.475C821.825 387.475 822.753 387.115 823.393 386.395C824.033 385.659 824.353 384.515 824.353 382.963V373.699H828.193V383.107C828.193 385.571 827.521 387.467 826.177 388.795C824.849 390.123 822.985 390.787 820.585 390.787Z" fill="black"/>
<path d="M845.571 381.763C846.531 382.067 847.283 382.579 847.827 383.299C848.371 384.003 848.643 384.875 848.643 385.915C848.643 387.387 848.067 388.523 846.915 389.323C845.779 390.107 844.115 390.499 841.923 390.499H833.235V373.699H841.443C843.491 373.699 845.059 374.091 846.147 374.875C847.251 375.659 847.803 376.723 847.803 378.067C847.803 378.883 847.603 379.611 847.203 380.251C846.819 380.891 846.275 381.395 845.571 381.763ZM837.099 376.627V380.587H840.963C841.923 380.587 842.651 380.419 843.147 380.083C843.643 379.747 843.891 379.251 843.891 378.595C843.891 377.939 843.643 377.451 843.147 377.131C842.651 376.795 841.923 376.627 840.963 376.627H837.099ZM841.635 387.571C842.659 387.571 843.427 387.403 843.939 387.067C844.467 386.731 844.731 386.211 844.731 385.507C844.731 384.115 843.699 383.419 841.635 383.419H837.099V387.571H841.635Z" fill="black"/>
<rect x="684.5" y="60.5" width="195" height="95" fill="white" stroke="#376BC3" stroke-width="5"/>
<path d="M743.234 116.788C741.522 116.788 739.97 116.42 738.578 115.684C737.202 114.932 736.114 113.9 735.314 112.588C734.53 111.26 734.138 109.764 734.138 108.1C734.138 106.436 734.53 104.948 735.314 103.636C736.114 102.308 737.202 101.276 738.578 100.54C739.97 99.7881 741.53 99.4121 743.258 99.4121C744.714 99.4121 746.026 99.6681 747.194 100.18C748.378 100.692 749.37 101.428 750.17 102.388L747.674 104.692C746.538 103.38 745.13 102.724 743.45 102.724C742.41 102.724 741.482 102.956 740.666 103.42C739.85 103.868 739.21 104.5 738.746 105.316C738.298 106.132 738.074 107.06 738.074 108.1C738.074 109.14 738.298 110.068 738.746 110.884C739.21 111.7 739.85 112.34 740.666 112.804C741.482 113.252 742.41 113.476 743.45 113.476C745.13 113.476 746.538 112.812 747.674 111.484L750.17 113.788C749.37 114.764 748.378 115.508 747.194 116.02C746.01 116.532 744.69 116.788 743.234 116.788Z" fill="black"/>
<path d="M753.995 99.7001H757.883V113.332H766.307V116.5H753.995V99.7001Z" fill="black"/>
<path d="M777.534 116.788C775.79 116.788 774.214 116.412 772.806 115.66C771.414 114.908 770.318 113.876 769.518 112.564C768.734 111.236 768.342 109.748 768.342 108.1C768.342 106.452 768.734 104.972 769.518 103.66C770.318 102.332 771.414 101.292 772.806 100.54C774.214 99.7881 775.79 99.4121 777.534 99.4121C779.278 99.4121 780.846 99.7881 782.238 100.54C783.63 101.292 784.726 102.332 785.526 103.66C786.326 104.972 786.726 106.452 786.726 108.1C786.726 109.748 786.326 111.236 785.526 112.564C784.726 113.876 783.63 114.908 782.238 115.66C780.846 116.412 779.278 116.788 777.534 116.788ZM777.534 113.476C778.526 113.476 779.422 113.252 780.222 112.804C781.022 112.34 781.646 111.7 782.094 110.884C782.558 110.068 782.79 109.14 782.79 108.1C782.79 107.06 782.558 106.132 782.094 105.316C781.646 104.5 781.022 103.868 780.222 103.42C779.422 102.956 778.526 102.724 777.534 102.724C776.542 102.724 775.646 102.956 774.846 103.42C774.046 103.868 773.414 104.5 772.95 105.316C772.502 106.132 772.278 107.06 772.278 108.1C772.278 109.14 772.502 110.068 772.95 110.884C773.414 111.7 774.046 112.34 774.846 112.804C775.646 113.252 776.542 113.476 777.534 113.476Z" fill="black"/>
<path d="M798.312 116.788C795.912 116.788 794.04 116.124 792.696 114.796C791.368 113.468 790.704 111.572 790.704 109.108V99.7001H794.592V108.964C794.592 111.972 795.84 113.476 798.336 113.476C799.552 113.476 800.48 113.116 801.12 112.396C801.76 111.66 802.08 110.516 802.08 108.964V99.7001H805.92V109.108C805.92 111.572 805.248 113.468 803.904 114.796C802.576 116.124 800.712 116.788 798.312 116.788Z" fill="black"/>
<path d="M810.962 99.7001H818.594C820.418 99.7001 822.026 100.052 823.418 100.756C824.826 101.444 825.914 102.42 826.682 103.684C827.466 104.948 827.858 106.42 827.858 108.1C827.858 109.78 827.466 111.252 826.682 112.516C825.914 113.78 824.826 114.764 823.418 115.468C822.026 116.156 820.418 116.5 818.594 116.5H810.962V99.7001ZM818.402 113.308C820.082 113.308 821.418 112.844 822.41 111.916C823.418 110.972 823.922 109.7 823.922 108.1C823.922 106.5 823.418 105.236 822.41 104.308C821.418 103.364 820.082 102.892 818.402 102.892H814.85V113.308H818.402Z" fill="black"/>
<rect x="1282.5" y="334.5" width="195" height="95" fill="white" stroke="#376BC3" stroke-width="5"/>
<path d="M1312.81 390.787C1310.41 390.787 1308.54 390.123 1307.2 388.795C1305.87 387.467 1305.2 385.571 1305.2 383.107V373.699H1309.09V382.963C1309.09 385.971 1310.34 387.475 1312.84 387.475C1314.05 387.475 1314.98 387.115 1315.62 386.395C1316.26 385.659 1316.58 384.515 1316.58 382.963V373.699H1320.42V383.107C1320.42 385.571 1319.75 387.467 1318.4 388.795C1317.08 390.123 1315.21 390.787 1312.81 390.787Z" fill="black"/>
<path d="M1340.87 373.699V390.499H1337.68L1329.3 380.299V390.499H1325.46V373.699H1328.68L1337.03 383.899V373.699H1340.87Z" fill="black"/>
<path d="M1345.78 377.587H1349.52V390.499H1345.78V377.587ZM1347.65 375.787C1346.96 375.787 1346.4 375.587 1345.97 375.187C1345.54 374.787 1345.32 374.291 1345.32 373.699C1345.32 373.107 1345.54 372.611 1345.97 372.211C1346.4 371.811 1346.96 371.611 1347.65 371.611C1348.34 371.611 1348.9 371.803 1349.33 372.187C1349.76 372.571 1349.98 373.051 1349.98 373.627C1349.98 374.251 1349.76 374.771 1349.33 375.187C1348.9 375.587 1348.34 375.787 1347.65 375.787Z" fill="black"/>
<path d="M1354.46 373.699H1362.1C1363.92 373.699 1365.53 374.051 1366.92 374.755C1368.33 375.443 1369.42 376.419 1370.18 377.683C1370.97 378.947 1371.36 380.419 1371.36 382.099C1371.36 383.779 1370.97 385.251 1370.18 386.515C1369.42 387.779 1368.33 388.763 1366.92 389.467C1365.53 390.155 1363.92 390.499 1362.1 390.499H1354.46V373.699ZM1361.9 387.307C1363.58 387.307 1364.92 386.843 1365.91 385.915C1366.92 384.971 1367.42 383.699 1367.42 382.099C1367.42 380.499 1366.92 379.235 1365.91 378.307C1364.92 377.363 1363.58 376.891 1361.9 376.891H1358.35V387.307H1361.9Z" fill="black"/>
<path d="M1396.5 387.379V390.499H1383.49V373.699H1396.18V376.819H1387.35V380.467H1395.15V383.491H1387.35V387.379H1396.5Z" fill="black"/>
<path d="M1400.79 373.699H1408.42C1410.25 373.699 1411.85 374.051 1413.25 374.755C1414.65 375.443 1415.74 376.419 1416.51 377.683C1417.29 378.947 1417.69 380.419 1417.69 382.099C1417.69 383.779 1417.29 385.251 1416.51 386.515C1415.74 387.779 1414.65 388.763 1413.25 389.467C1411.85 390.155 1410.25 390.499 1408.42 390.499H1400.79V373.699ZM1408.23 387.307C1409.91 387.307 1411.25 386.843 1412.24 385.915C1413.25 384.971 1413.75 383.699 1413.75 382.099C1413.75 380.499 1413.25 379.235 1412.24 378.307C1411.25 377.363 1409.91 376.891 1408.23 376.891H1404.68V387.307H1408.23Z" fill="black"/>
<path d="M1433.17 381.835H1436.72V388.651C1435.81 389.339 1434.75 389.867 1433.55 390.235C1432.35 390.603 1431.15 390.787 1429.93 390.787C1428.19 390.787 1426.62 390.419 1425.23 389.683C1423.83 388.931 1422.74 387.899 1421.94 386.587C1421.15 385.259 1420.76 383.763 1420.76 382.099C1420.76 380.435 1421.15 378.947 1421.94 377.635C1422.74 376.307 1423.84 375.275 1425.25 374.539C1426.66 373.787 1428.24 373.411 1430 373.411C1431.47 373.411 1432.81 373.659 1434.01 374.155C1435.21 374.651 1436.22 375.371 1437.03 376.315L1434.54 378.619C1433.34 377.355 1431.89 376.723 1430.19 376.723C1429.12 376.723 1428.17 376.947 1427.34 377.395C1426.51 377.843 1425.86 378.475 1425.39 379.291C1424.93 380.107 1424.7 381.043 1424.7 382.099C1424.7 383.139 1424.93 384.067 1425.39 384.883C1425.86 385.699 1426.5 386.339 1427.31 386.803C1428.15 387.251 1429.09 387.475 1430.15 387.475C1431.27 387.475 1432.27 387.235 1433.17 386.755V381.835Z" fill="black"/>
<path d="M1454.54 387.379V390.499H1441.53V373.699H1454.23V376.819H1445.4V380.467H1453.2V383.491H1445.4V387.379H1454.54Z" fill="black"/>
<path d="M185.061 430.939C184.475 430.354 183.525 430.354 182.939 430.939L173.393 440.485C172.808 441.071 172.808 442.021 173.393 442.607C173.979 443.192 174.929 443.192 175.515 442.607L184 434.121L192.485 442.607C193.071 443.192 194.021 443.192 194.607 442.607C195.192 442.021 195.192 441.071 194.607 440.485L185.061 430.939ZM182.939 608.061C183.525 608.646 184.475 608.646 185.061 608.061L194.607 598.515C195.192 597.929 195.192 596.979 194.607 596.393C194.021 595.808 193.071 595.808 192.485 596.393L184 604.879L175.515 596.393C174.929 595.808 173.979 595.808 173.393 596.393C172.808 596.979 172.808 597.929 173.393 598.515L182.939 608.061ZM182.5 432L182.5 607L185.5 607L185.5 432L182.5 432Z" fill="black"/>
<path d="M282.939 380.939C282.354 381.525 282.354 382.475 282.939 383.061L292.485 392.607C293.071 393.192 294.021 393.192 294.607 392.607C295.192 392.021 295.192 391.071 294.607 390.485L286.121 382L294.607 373.515C295.192 372.929 295.192 371.979 294.607 371.393C294.021 370.808 293.071 370.808 292.485 371.393L282.939 380.939ZM683.061 383.061C683.646 382.475 683.646 381.525 683.061 380.939L673.515 371.393C672.929 370.808 671.979 370.808 671.393 371.393C670.808 371.979 670.808 372.929 671.393 373.515L679.879 382L671.393 390.485C670.808 391.071 670.808 392.021 671.393 392.607C671.979 393.192 672.929 393.192 673.515 392.607L683.061 383.061ZM284 383.5L682 383.5L682 380.5L284 380.5L284 383.5Z" fill="black"/>
<path d="M880.939 380.939C880.354 381.525 880.354 382.475 880.939 383.061L890.485 392.607C891.071 393.192 892.021 393.192 892.607 392.607C893.192 392.021 893.192 391.071 892.607 390.485L884.121 382L892.607 373.515C893.192 372.929 893.192 371.979 892.607 371.393C892.021 370.808 891.071 370.808 890.485 371.393L880.939 380.939ZM1281.06 383.061C1281.65 382.475 1281.65 381.525 1281.06 380.939L1271.51 371.393C1270.93 370.808 1269.98 370.808 1269.39 371.393C1268.81 371.979 1268.81 372.929 1269.39 373.515L1277.88 382L1269.39 390.485C1268.81 391.071 1268.81 392.021 1269.39 392.607C1269.98 393.192 1270.93 393.192 1271.51 392.607L1281.06 383.061ZM882 383.5H1280V380.5H882V383.5Z" fill="black"/>
<path d="M819.106 511.2C820.594 511.2 821.882 511.448 822.97 511.944C824.074 512.44 824.922 513.144 825.514 514.056C826.106 514.968 826.402 516.048 826.402 517.296C826.402 518.528 826.106 519.608 825.514 520.536C824.922 521.448 824.074 522.152 822.97 522.648C821.882 523.128 820.594 523.368 819.106 523.368H815.722V528H811.834V511.2H819.106ZM818.89 520.2C820.058 520.2 820.946 519.952 821.554 519.456C822.162 518.944 822.466 518.224 822.466 517.296C822.466 516.352 822.162 515.632 821.554 515.136C820.946 514.624 820.058 514.368 818.89 514.368H815.722V520.2H818.89Z" fill="black"/>
<path d="M843.356 515.088V528H839.804V526.464C839.308 527.024 838.716 527.456 838.028 527.76C837.34 528.048 836.596 528.192 835.796 528.192C834.1 528.192 832.756 527.704 831.764 526.728C830.772 525.752 830.276 524.304 830.276 522.384V515.088H834.02V521.832C834.02 523.912 834.892 524.952 836.636 524.952C837.532 524.952 838.252 524.664 838.796 524.088C839.34 523.496 839.612 522.624 839.612 521.472V515.088H843.356Z" fill="black"/>
<path d="M855.657 514.896C856.857 514.896 857.945 515.176 858.921 515.736C859.913 516.28 860.689 517.056 861.249 518.064C861.809 519.056 862.089 520.216 862.089 521.544C862.089 522.872 861.809 524.04 861.249 525.048C860.689 526.04 859.913 526.816 858.921 527.376C857.945 527.92 856.857 528.192 855.657 528.192C853.881 528.192 852.529 527.632 851.601 526.512V528H848.025V510.192H851.769V516.456C852.713 515.416 854.009 514.896 855.657 514.896ZM855.009 525.12C855.969 525.12 856.753 524.8 857.361 524.16C857.985 523.504 858.297 522.632 858.297 521.544C858.297 520.456 857.985 519.592 857.361 518.952C856.753 518.296 855.969 517.968 855.009 517.968C854.049 517.968 853.257 518.296 852.633 518.952C852.025 519.592 851.721 520.456 851.721 521.544C851.721 522.632 852.025 523.504 852.633 524.16C853.257 524.8 854.049 525.12 855.009 525.12Z" fill="black"/>
<path d="M865.795 510.192H869.539V528H865.795V510.192Z" fill="black"/>
<path d="M874.214 515.088H877.958V528H874.214V515.088ZM876.086 513.288C875.398 513.288 874.838 513.088 874.406 512.688C873.974 512.288 873.758 511.792 873.758 511.2C873.758 510.608 873.974 510.112 874.406 509.712C874.838 509.312 875.398 509.112 876.086 509.112C876.774 509.112 877.334 509.304 877.766 509.688C878.198 510.072 878.414 510.552 878.414 511.128C878.414 511.752 878.198 512.272 877.766 512.688C877.334 513.088 876.774 513.288 876.086 513.288Z" fill="black"/>
<path d="M888.872 528.192C887.496 528.192 886.256 527.912 885.152 527.352C884.064 526.776 883.208 525.984 882.584 524.976C881.976 523.968 881.672 522.824 881.672 521.544C881.672 520.264 881.976 519.12 882.584 518.112C883.208 517.104 884.064 516.32 885.152 515.76C886.256 515.184 887.496 514.896 888.872 514.896C890.232 514.896 891.416 515.184 892.424 515.76C893.448 516.32 894.192 517.128 894.656 518.184L891.752 519.744C891.08 518.56 890.112 517.968 888.848 517.968C887.872 517.968 887.064 518.288 886.424 518.928C885.784 519.568 885.464 520.44 885.464 521.544C885.464 522.648 885.784 523.52 886.424 524.16C887.064 524.8 887.872 525.12 888.848 525.12C890.128 525.12 891.096 524.528 891.752 523.344L894.656 524.928C894.192 525.952 893.448 526.752 892.424 527.328C891.416 527.904 890.232 528.192 888.872 528.192Z" fill="black"/>
<path d="M912.393 521.4L910.137 523.752V528H906.273V511.2H910.137V519.048L917.577 511.2H921.897L914.937 518.688L922.305 528H917.769L912.393 521.4Z" fill="black"/>
<path d="M937.084 521.592C937.084 521.64 937.06 521.976 937.012 522.6H927.244C927.42 523.4 927.836 524.032 928.492 524.496C929.148 524.96 929.964 525.192 930.94 525.192C931.612 525.192 932.204 525.096 932.716 524.904C933.244 524.696 933.732 524.376 934.18 523.944L936.172 526.104C934.956 527.496 933.18 528.192 930.844 528.192C929.388 528.192 928.1 527.912 926.98 527.352C925.86 526.776 924.996 525.984 924.388 524.976C923.78 523.968 923.476 522.824 923.476 521.544C923.476 520.28 923.772 519.144 924.364 518.136C924.972 517.112 925.796 516.32 926.836 515.76C927.892 515.184 929.068 514.896 930.364 514.896C931.628 514.896 932.772 515.168 933.796 515.712C934.82 516.256 935.62 517.04 936.196 518.064C936.788 519.072 937.084 520.248 937.084 521.592ZM930.388 517.728C929.54 517.728 928.828 517.968 928.252 518.448C927.676 518.928 927.324 519.584 927.196 520.416H933.556C933.428 519.6 933.076 518.952 932.5 518.472C931.924 517.976 931.22 517.728 930.388 517.728Z" fill="black"/>
<path d="M953.358 515.088L947.526 528.792C946.934 530.28 946.198 531.328 945.318 531.936C944.454 532.544 943.406 532.848 942.174 532.848C941.502 532.848 940.838 532.744 940.182 532.536C939.526 532.328 938.99 532.04 938.574 531.672L939.942 529.008C940.23 529.264 940.558 529.464 940.926 529.608C941.31 529.752 941.686 529.824 942.054 529.824C942.566 529.824 942.982 529.696 943.302 529.44C943.622 529.2 943.91 528.792 944.166 528.216L944.214 528.096L938.622 515.088H942.486L946.11 523.848L949.758 515.088H953.358Z" fill="black"/>
<path d="M783.061 430.939C782.475 430.354 781.525 430.354 780.939 430.939L771.393 440.485C770.808 441.071 770.808 442.021 771.393 442.607C771.979 443.192 772.929 443.192 773.515 442.607L782 434.121L790.485 442.607C791.071 443.192 792.021 443.192 792.607 442.607C793.192 442.021 793.192 441.071 792.607 440.485L783.061 430.939ZM780.939 608.061C781.525 608.646 782.475 608.646 783.061 608.061L792.607 598.515C793.192 597.929 793.192 596.979 792.607 596.393C792.021 595.808 791.071 595.808 790.485 596.393L782 604.879L773.515 596.393C772.929 595.808 771.979 595.808 771.393 596.393C770.808 596.979 770.808 597.929 771.393 598.515L780.939 608.061ZM780.5 432L780.5 607L783.5 607L783.5 432L780.5 432Z" fill="black"/>
<path d="M825.948 250.4H818.148L816.66 254H812.676L820.164 237.2H824.004L831.516 254H827.436L825.948 250.4ZM824.724 247.448L822.06 241.016L819.396 247.448H824.724Z" fill="black"/>
<path d="M841.731 237.2C843.219 237.2 844.507 237.448 845.595 237.944C846.699 238.44 847.547 239.144 848.139 240.056C848.731 240.968 849.027 242.048 849.027 243.296C849.027 244.528 848.731 245.608 848.139 246.536C847.547 247.448 846.699 248.152 845.595 248.648C844.507 249.128 843.219 249.368 841.731 249.368H838.347V254H834.459V237.2H841.731ZM841.515 246.2C842.683 246.2 843.571 245.952 844.179 245.456C844.787 244.944 845.091 244.224 845.091 243.296C845.091 242.352 844.787 241.632 844.179 241.136C843.571 240.624 842.683 240.368 841.515 240.368H838.347V246.2H841.515Z" fill="black"/>
<path d="M853.003 237.2H856.891V254H853.003V237.2Z" fill="black"/>
<path d="M863.254 249.536C863.926 249.536 864.478 249.752 864.91 250.184C865.342 250.6 865.558 251.152 865.558 251.84C865.558 252.16 865.518 252.48 865.438 252.8C865.358 253.12 865.182 253.6 864.91 254.24L863.542 257.696H861.166L862.222 253.88C861.822 253.72 861.502 253.464 861.262 253.112C861.038 252.744 860.926 252.32 860.926 251.84C860.926 251.152 861.142 250.6 861.574 250.184C862.022 249.752 862.582 249.536 863.254 249.536Z" fill="black"/>
<path d="M902.948 237.2L897.452 254H893.276L889.58 242.624L885.764 254H881.612L876.092 237.2H880.124L883.916 249.008L887.876 237.2H891.476L895.316 249.104L899.228 237.2H902.948Z" fill="black"/>
<path d="M917.741 247.592C917.741 247.64 917.717 247.976 917.669 248.6H907.901C908.077 249.4 908.493 250.032 909.149 250.496C909.805 250.96 910.621 251.192 911.597 251.192C912.269 251.192 912.861 251.096 913.373 250.904C913.901 250.696 914.389 250.376 914.837 249.944L916.829 252.104C915.613 253.496 913.837 254.192 911.501 254.192C910.045 254.192 908.757 253.912 907.637 253.352C906.517 252.776 905.653 251.984 905.045 250.976C904.437 249.968 904.133 248.824 904.133 247.544C904.133 246.28 904.429 245.144 905.021 244.136C905.629 243.112 906.453 242.32 907.493 241.76C908.549 241.184 909.725 240.896 911.021 240.896C912.285 240.896 913.429 241.168 914.453 241.712C915.477 242.256 916.277 243.04 916.853 244.064C917.445 245.072 917.741 246.248 917.741 247.592ZM911.045 243.728C910.197 243.728 909.485 243.968 908.909 244.448C908.333 244.928 907.981 245.584 907.853 246.416H914.213C914.085 245.6 913.733 244.952 913.157 244.472C912.581 243.976 911.877 243.728 911.045 243.728Z" fill="black"/>
<path d="M929.066 240.896C930.266 240.896 931.354 241.176 932.33 241.736C933.322 242.28 934.098 243.056 934.658 244.064C935.218 245.056 935.498 246.216 935.498 247.544C935.498 248.872 935.218 250.04 934.658 251.048C934.098 252.04 933.322 252.816 932.33 253.376C931.354 253.92 930.266 254.192 929.066 254.192C927.29 254.192 925.938 253.632 925.01 252.512V254H921.434V236.192H925.178V242.456C926.122 241.416 927.418 240.896 929.066 240.896ZM928.418 251.12C929.378 251.12 930.162 250.8 930.77 250.16C931.394 249.504 931.706 248.632 931.706 247.544C931.706 246.456 931.394 245.592 930.77 244.952C930.162 244.296 929.378 243.968 928.418 243.968C927.458 243.968 926.666 244.296 926.042 244.952C925.434 245.592 925.13 246.456 925.13 247.544C925.13 248.632 925.434 249.504 926.042 250.16C926.666 250.8 927.458 251.12 928.418 251.12Z" fill="black"/>
<path d="M947.052 240.896C948.652 240.896 949.94 241.376 950.916 242.336C951.908 243.296 952.404 244.72 952.404 246.608V254H948.66V247.184C948.66 246.16 948.436 245.4 947.988 244.904C947.54 244.392 946.892 244.136 946.044 244.136C945.1 244.136 944.348 244.432 943.788 245.024C943.228 245.6 942.948 246.464 942.948 247.616V254H939.204V236.192H942.948V242.432C943.444 241.936 944.044 241.56 944.748 241.304C945.452 241.032 946.22 240.896 947.052 240.896Z" fill="black"/>
<path d="M963.283 254.192C961.923 254.192 960.699 253.912 959.611 253.352C958.539 252.776 957.699 251.984 957.091 250.976C956.483 249.968 956.179 248.824 956.179 247.544C956.179 246.264 956.483 245.12 957.091 244.112C957.699 243.104 958.539 242.32 959.611 241.76C960.699 241.184 961.923 240.896 963.283 240.896C964.643 240.896 965.859 241.184 966.931 241.76C968.003 242.32 968.843 243.104 969.451 244.112C970.059 245.12 970.363 246.264 970.363 247.544C970.363 248.824 970.059 249.968 969.451 250.976C968.843 251.984 968.003 252.776 966.931 253.352C965.859 253.912 964.643 254.192 963.283 254.192ZM963.283 251.12C964.243 251.12 965.027 250.8 965.635 250.16C966.259 249.504 966.571 248.632 966.571 247.544C966.571 246.456 966.259 245.592 965.635 244.952C965.027 244.296 964.243 243.968 963.283 243.968C962.323 243.968 961.531 244.296 960.907 244.952C960.283 245.592 959.971 246.456 959.971 247.544C959.971 248.632 960.283 249.504 960.907 250.16C961.531 250.8 962.323 251.12 963.283 251.12Z" fill="black"/>
<path d="M980.209 254.192C978.849 254.192 977.625 253.912 976.537 253.352C975.465 252.776 974.625 251.984 974.017 250.976C973.409 249.968 973.105 248.824 973.105 247.544C973.105 246.264 973.409 245.12 974.017 244.112C974.625 243.104 975.465 242.32 976.537 241.76C977.625 241.184 978.849 240.896 980.209 240.896C981.569 240.896 982.785 241.184 983.857 241.76C984.929 242.32 985.769 243.104 986.377 244.112C986.985 245.12 987.289 246.264 987.289 247.544C987.289 248.824 986.985 249.968 986.377 250.976C985.769 251.984 984.929 252.776 983.857 253.352C982.785 253.912 981.569 254.192 980.209 254.192ZM980.209 251.12C981.169 251.12 981.953 250.8 982.561 250.16C983.185 249.504 983.497 248.632 983.497 247.544C983.497 246.456 983.185 245.592 982.561 244.952C981.953 244.296 981.169 243.968 980.209 243.968C979.249 243.968 978.457 244.296 977.833 244.952C977.209 245.592 976.897 246.456 976.897 247.544C976.897 248.632 977.209 249.504 977.833 250.16C978.457 250.8 979.249 251.12 980.209 251.12Z" fill="black"/>
<path d="M996.536 248.936L994.736 250.712V254H990.992V236.192H994.736V246.272L1000.21 241.088H1004.67L999.296 246.56L1005.15 254H1000.62L996.536 248.936Z" fill="black"/>
<path d="M783.061 156.939C782.475 156.354 781.525 156.354 780.939 156.939L771.393 166.485C770.808 167.071 770.808 168.021 771.393 168.607C771.979 169.192 772.929 169.192 773.515 168.607L782 160.121L790.485 168.607C791.071 169.192 792.021 169.192 792.607 168.607C793.192 168.021 793.192 167.071 792.607 166.485L783.061 156.939ZM780.939 334.061C781.525 334.646 782.475 334.646 783.061 334.061L792.607 324.515C793.192 323.929 793.192 322.979 792.607 322.393C792.021 321.808 791.071 321.808 790.485 322.393L782 330.879L773.515 322.393C772.929 321.808 771.979 321.808 771.393 322.393C770.808 322.979 770.808 323.929 771.393 324.515L780.939 334.061ZM780.5 158L780.5 333L783.5 333L783.5 158L780.5 158Z" fill="black"/>
<path d="M1217.11 511.2C1218.59 511.2 1219.88 511.448 1220.97 511.944C1222.07 512.44 1222.92 513.144 1223.51 514.056C1224.11 514.968 1224.4 516.048 1224.4 517.296C1224.4 518.528 1224.11 519.608 1223.51 520.536C1222.92 521.448 1222.07 522.152 1220.97 522.648C1219.88 523.128 1218.59 523.368 1217.11 523.368H1213.72V528H1209.83V511.2H1217.11ZM1216.89 520.2C1218.06 520.2 1218.95 519.952 1219.55 519.456C1220.16 518.944 1220.47 518.224 1220.47 517.296C1220.47 516.352 1220.16 515.632 1219.55 515.136C1218.95 514.624 1218.06 514.368 1216.89 514.368H1213.72V520.2H1216.89Z" fill="black"/>
<path d="M1241.36 515.088V528H1237.8V526.464C1237.31 527.024 1236.72 527.456 1236.03 527.76C1235.34 528.048 1234.6 528.192 1233.8 528.192C1232.1 528.192 1230.76 527.704 1229.76 526.728C1228.77 525.752 1228.28 524.304 1228.28 522.384V515.088H1232.02V521.832C1232.02 523.912 1232.89 524.952 1234.64 524.952C1235.53 524.952 1236.25 524.664 1236.8 524.088C1237.34 523.496 1237.61 522.624 1237.61 521.472V515.088H1241.36Z" fill="black"/>
<path d="M1253.66 514.896C1254.86 514.896 1255.94 515.176 1256.92 515.736C1257.91 516.28 1258.69 517.056 1259.25 518.064C1259.81 519.056 1260.09 520.216 1260.09 521.544C1260.09 522.872 1259.81 524.04 1259.25 525.048C1258.69 526.04 1257.91 526.816 1256.92 527.376C1255.94 527.92 1254.86 528.192 1253.66 528.192C1251.88 528.192 1250.53 527.632 1249.6 526.512V528H1246.02V510.192H1249.77V516.456C1250.71 515.416 1252.01 514.896 1253.66 514.896ZM1253.01 525.12C1253.97 525.12 1254.75 524.8 1255.36 524.16C1255.98 523.504 1256.3 522.632 1256.3 521.544C1256.3 520.456 1255.98 519.592 1255.36 518.952C1254.75 518.296 1253.97 517.968 1253.01 517.968C1252.05 517.968 1251.26 518.296 1250.63 518.952C1250.02 519.592 1249.72 520.456 1249.72 521.544C1249.72 522.632 1250.02 523.504 1250.63 524.16C1251.26 524.8 1252.05 525.12 1253.01 525.12Z" fill="black"/>
<path d="M1263.79 510.192H1267.54V528H1263.79V510.192Z" fill="black"/>
<path d="M1272.21 515.088H1275.96V528H1272.21V515.088ZM1274.09 513.288C1273.4 513.288 1272.84 513.088 1272.41 512.688C1271.97 512.288 1271.76 511.792 1271.76 511.2C1271.76 510.608 1271.97 510.112 1272.41 509.712C1272.84 509.312 1273.4 509.112 1274.09 509.112C1274.77 509.112 1275.33 509.304 1275.77 509.688C1276.2 510.072 1276.41 510.552 1276.41 511.128C1276.41 511.752 1276.2 512.272 1275.77 512.688C1275.33 513.088 1274.77 513.288 1274.09 513.288Z" fill="black"/>
<path d="M1286.87 528.192C1285.5 528.192 1284.26 527.912 1283.15 527.352C1282.06 526.776 1281.21 525.984 1280.58 524.976C1279.98 523.968 1279.67 522.824 1279.67 521.544C1279.67 520.264 1279.98 519.12 1280.58 518.112C1281.21 517.104 1282.06 516.32 1283.15 515.76C1284.26 515.184 1285.5 514.896 1286.87 514.896C1288.23 514.896 1289.42 515.184 1290.42 515.76C1291.45 516.32 1292.19 517.128 1292.66 518.184L1289.75 519.744C1289.08 518.56 1288.11 517.968 1286.85 517.968C1285.87 517.968 1285.06 518.288 1284.42 518.928C1283.78 519.568 1283.46 520.44 1283.46 521.544C1283.46 522.648 1283.78 523.52 1284.42 524.16C1285.06 524.8 1285.87 525.12 1286.85 525.12C1288.13 525.12 1289.1 524.528 1289.75 523.344L1292.66 524.928C1292.19 525.952 1291.45 526.752 1290.42 527.328C1289.42 527.904 1288.23 528.192 1286.87 528.192Z" fill="black"/>
<path d="M1310.39 521.4L1308.14 523.752V528H1304.27V511.2H1308.14V519.048L1315.58 511.2H1319.9L1312.94 518.688L1320.31 528H1315.77L1310.39 521.4Z" fill="black"/>
<path d="M1335.08 521.592C1335.08 521.64 1335.06 521.976 1335.01 522.6H1325.24C1325.42 523.4 1325.84 524.032 1326.49 524.496C1327.15 524.96 1327.96 525.192 1328.94 525.192C1329.61 525.192 1330.2 525.096 1330.72 524.904C1331.24 524.696 1331.73 524.376 1332.18 523.944L1334.17 526.104C1332.96 527.496 1331.18 528.192 1328.84 528.192C1327.39 528.192 1326.1 527.912 1324.98 527.352C1323.86 526.776 1323 525.984 1322.39 524.976C1321.78 523.968 1321.48 522.824 1321.48 521.544C1321.48 520.28 1321.77 519.144 1322.36 518.136C1322.97 517.112 1323.8 516.32 1324.84 515.76C1325.89 515.184 1327.07 514.896 1328.36 514.896C1329.63 514.896 1330.77 515.168 1331.8 515.712C1332.82 516.256 1333.62 517.04 1334.2 518.064C1334.79 519.072 1335.08 520.248 1335.08 521.592ZM1328.39 517.728C1327.54 517.728 1326.83 517.968 1326.25 518.448C1325.68 518.928 1325.32 519.584 1325.2 520.416H1331.56C1331.43 519.6 1331.08 518.952 1330.5 518.472C1329.92 517.976 1329.22 517.728 1328.39 517.728Z" fill="black"/>
<path d="M1351.36 515.088L1345.53 528.792C1344.93 530.28 1344.2 531.328 1343.32 531.936C1342.45 532.544 1341.41 532.848 1340.17 532.848C1339.5 532.848 1338.84 532.744 1338.18 532.536C1337.53 532.328 1336.99 532.04 1336.57 531.672L1337.94 529.008C1338.23 529.264 1338.56 529.464 1338.93 529.608C1339.31 529.752 1339.69 529.824 1340.05 529.824C1340.57 529.824 1340.98 529.696 1341.3 529.44C1341.62 529.2 1341.91 528.792 1342.17 528.216L1342.21 528.096L1336.62 515.088H1340.49L1344.11 523.848L1347.76 515.088H1351.36Z" fill="black"/>
<path d="M1381.06 430.939C1380.47 430.354 1379.53 430.354 1378.94 430.939L1369.39 440.485C1368.81 441.071 1368.81 442.021 1369.39 442.607C1369.98 443.192 1370.93 443.192 1371.51 442.607L1380 434.121L1388.49 442.607C1389.07 443.192 1390.02 443.192 1390.61 442.607C1391.19 442.021 1391.19 441.071 1390.61 440.485L1381.06 430.939ZM1378.94 608.061C1379.53 608.646 1380.47 608.646 1381.06 608.061L1390.61 598.515C1391.19 597.929 1391.19 596.979 1390.61 596.393C1390.02 595.808 1389.07 595.808 1388.49 596.393L1380 604.879L1371.51 596.393C1370.93 595.808 1369.98 595.808 1369.39 596.393C1368.81 596.979 1368.81 597.929 1369.39 598.515L1378.94 608.061ZM1378.5 432L1378.5 607L1381.5 607L1381.5 432L1378.5 432Z" fill="black"/>
</svg>
