<svg width="830" height="439" viewBox="0 0 830 439" fill="none" xmlns="http://www.w3.org/2000/svg">
<path d="M25.0999 216.996C24.8111 217.001 24.536 217.122 24.3348 217.334C24.1336 217.546 24.0228 217.831 24.0267 218.126V219.241V221.471H26.2072V219.241V218.126C26.2092 217.977 26.1819 217.829 26.1269 217.691C26.0719 217.553 25.9904 217.427 25.8872 217.322C25.7839 217.217 25.6611 217.133 25.5258 217.077C25.3906 217.022 25.2458 216.994 25.0999 216.996ZM31.6412 216.996C31.3525 217.001 31.0773 217.122 30.8761 217.334C30.6749 217.546 30.5641 217.831 30.568 218.126V219.241V221.471H32.7485V219.241V218.126C32.7505 217.977 32.7232 217.829 32.6682 217.691C32.6133 217.553 32.5317 217.427 32.4285 217.322C32.3252 217.217 32.2024 217.133 32.0671 217.077C31.9319 217.022 31.7871 216.994 31.6412 216.996ZM38.1825 216.996C37.8938 217.001 37.6186 217.122 37.4174 217.334C37.2162 217.546 37.1054 217.831 37.1094 218.126V219.241V221.471H39.2898V219.241V218.126C39.2918 217.977 39.2645 217.829 39.2095 217.691C39.1546 217.553 39.0731 217.427 38.9698 217.322C38.8666 217.217 38.7437 217.133 38.6085 217.077C38.4732 217.022 38.3284 216.994 38.1825 216.996V216.996ZM44.7239 216.996C44.4351 217.001 44.1599 217.122 43.9587 217.334C43.7575 217.546 43.6467 217.831 43.6507 218.126V219.241V221.471H45.8311V219.241V218.126C45.8331 217.977 45.8058 217.829 45.7509 217.691C45.6959 217.553 45.6144 217.427 45.5111 217.322C45.4079 217.217 45.285 217.133 45.1498 217.077C45.0145 217.022 44.8697 216.994 44.7239 216.996ZM51.2652 216.996C50.9764 217.001 50.7012 217.122 50.5 217.334C50.2988 217.546 50.188 217.831 50.192 218.126V219.241V221.471H52.3724V219.241V218.126C52.3744 217.977 52.3471 217.829 52.2922 217.691C52.2372 217.553 52.1557 217.427 52.0524 217.322C51.9492 217.217 51.8263 217.133 51.6911 217.077C51.5559 217.022 51.411 216.994 51.2652 216.996V216.996ZM20.7561 222.586C18.9496 222.586 17.4854 224.084 17.4854 225.931V261.611C17.4854 263.459 18.9496 264.956 20.7561 264.956H55.6431C57.4496 264.956 58.9137 263.459 58.9137 261.611V225.931C58.9137 224.084 57.4496 222.586 55.6431 222.586H20.7561ZM13.1245 229.276C12.9801 229.274 12.8366 229.302 12.7026 229.357C12.5685 229.412 12.4465 229.494 12.3436 229.597C12.2407 229.701 12.159 229.825 12.1033 229.961C12.0475 230.097 12.0188 230.244 12.0188 230.391C12.0188 230.539 12.0475 230.685 12.1033 230.822C12.159 230.958 12.2407 231.082 12.3436 231.185C12.4465 231.289 12.5685 231.371 12.7026 231.426C12.8366 231.481 12.9801 231.509 13.1245 231.506H14.2148H16.3952V229.276H14.2148H13.1245ZM60.004 229.276V231.506H62.1844H63.2746C63.4191 231.509 63.5625 231.481 63.6966 231.426C63.8306 231.371 63.9527 231.289 64.0555 231.185C64.1584 231.082 64.2401 230.958 64.2959 230.822C64.3516 230.685 64.3804 230.539 64.3804 230.391C64.3804 230.244 64.3516 230.097 64.2959 229.961C64.2401 229.825 64.1584 229.701 64.0555 229.597C63.9527 229.494 63.8306 229.412 63.6966 229.357C63.5625 229.302 63.4191 229.274 63.2746 229.276H62.1844H60.004ZM13.1245 235.966C12.9801 235.964 12.8366 235.992 12.7026 236.047C12.5685 236.102 12.4465 236.184 12.3436 236.287C12.2407 236.391 12.159 236.515 12.1033 236.651C12.0475 236.787 12.0188 236.934 12.0188 237.081C12.0188 237.229 12.0475 237.375 12.1033 237.512C12.159 237.648 12.2407 237.772 12.3436 237.875C12.4465 237.979 12.5685 238.061 12.7026 238.116C12.8366 238.171 12.9801 238.198 13.1245 238.196H14.2148H16.3952V235.966H14.2148H13.1245ZM28.3876 235.966H48.0116V251.576H28.3876V235.966ZM60.004 235.966V238.196H62.1844H63.2746C63.4191 238.198 63.5625 238.171 63.6966 238.116C63.8306 238.061 63.9527 237.979 64.0555 237.875C64.1584 237.772 64.2401 237.648 64.2959 237.512C64.3516 237.375 64.3804 237.229 64.3804 237.081C64.3804 236.934 64.3516 236.787 64.2959 236.651C64.2401 236.515 64.1584 236.391 64.0555 236.287C63.9527 236.184 63.8306 236.102 63.6966 236.047C63.5625 235.992 63.4191 235.964 63.2746 235.966H62.1844H60.004ZM13.1245 242.656C12.9801 242.654 12.8366 242.682 12.7026 242.737C12.5685 242.792 12.4465 242.874 12.3436 242.977C12.2407 243.081 12.159 243.205 12.1033 243.341C12.0475 243.477 12.0188 243.624 12.0188 243.771C12.0188 243.919 12.0475 244.065 12.1033 244.202C12.159 244.338 12.2407 244.462 12.3436 244.565C12.4465 244.669 12.5685 244.751 12.7026 244.806C12.8366 244.861 12.9801 244.888 13.1245 244.886H14.2148H16.3952V242.656H14.2148H13.1245ZM60.004 242.656V244.886H62.1844H63.2746C63.4191 244.888 63.5625 244.861 63.6966 244.806C63.8306 244.751 63.9527 244.669 64.0555 244.565C64.1584 244.462 64.2401 244.338 64.2959 244.202C64.3516 244.065 64.3804 243.919 64.3804 243.771C64.3804 243.624 64.3516 243.477 64.2959 243.341C64.2401 243.205 64.1584 243.081 64.0555 242.977C63.9527 242.874 63.8306 242.792 63.6966 242.737C63.5625 242.682 63.4191 242.654 63.2746 242.656H62.1844H60.004ZM13.1245 249.346C12.9801 249.344 12.8366 249.372 12.7026 249.427C12.5685 249.482 12.4465 249.564 12.3436 249.667C12.2407 249.771 12.159 249.895 12.1033 250.031C12.0475 250.167 12.0188 250.314 12.0188 250.461C12.0188 250.609 12.0475 250.755 12.1033 250.892C12.159 251.028 12.2407 251.152 12.3436 251.255C12.4465 251.359 12.5685 251.441 12.7026 251.496C12.8366 251.551 12.9801 251.578 13.1245 251.576H14.2148H16.3952V249.346H14.2148H13.1245ZM60.004 249.346V251.576H62.1844H63.2746C63.4191 251.578 63.5625 251.551 63.6966 251.496C63.8306 251.441 63.9527 251.359 64.0555 251.255C64.1584 251.152 64.2401 251.028 64.2959 250.892C64.3516 250.755 64.3804 250.609 64.3804 250.461C64.3804 250.314 64.3516 250.167 64.2959 250.031C64.2401 249.895 64.1584 249.771 64.0555 249.667C63.9527 249.564 63.8306 249.482 63.6966 249.427C63.5625 249.372 63.4191 249.344 63.2746 249.346H62.1844H60.004ZM13.1245 256.036C12.9801 256.034 12.8366 256.062 12.7026 256.117C12.5685 256.172 12.4465 256.254 12.3436 256.357C12.2407 256.461 12.159 256.585 12.1033 256.721C12.0475 256.857 12.0188 257.004 12.0188 257.151C12.0188 257.299 12.0475 257.445 12.1033 257.582C12.159 257.718 12.2407 257.842 12.3436 257.945C12.4465 258.049 12.5685 258.131 12.7026 258.186C12.8366 258.241 12.9801 258.268 13.1245 258.266H14.2148H16.3952V256.036H14.2148H13.1245ZM60.004 256.036V258.266H62.1844H63.2746C63.4191 258.268 63.5625 258.241 63.6966 258.186C63.8306 258.131 63.9527 258.049 64.0555 257.945C64.1584 257.842 64.2401 257.718 64.2959 257.582C64.3516 257.445 64.3804 257.299 64.3804 257.151C64.3804 257.004 64.3516 256.857 64.2959 256.721C64.2401 256.585 64.1584 256.461 64.0555 256.357C63.9527 256.254 63.8306 256.172 63.6966 256.117C63.5625 256.062 63.4191 256.034 63.2746 256.036H62.1844H60.004ZM24.0267 266.071V268.301V269.416C24.0247 269.564 24.0514 269.711 24.1053 269.848C24.1591 269.985 24.2391 270.11 24.3405 270.215C24.442 270.32 24.5629 270.404 24.6961 270.461C24.8294 270.518 24.9725 270.547 25.117 270.547C25.2614 270.547 25.4045 270.518 25.5378 270.461C25.671 270.404 25.7919 270.32 25.8934 270.215C25.9948 270.11 26.0748 269.985 26.1287 269.848C26.1825 269.711 26.2092 269.564 26.2072 269.416V268.301V266.071H24.0267ZM30.568 266.071V268.301V269.416C30.566 269.564 30.5927 269.711 30.6466 269.848C30.7004 269.985 30.7804 270.11 30.8819 270.215C30.9833 270.32 31.1042 270.404 31.2375 270.461C31.3707 270.518 31.5138 270.547 31.6583 270.547C31.8027 270.547 31.9458 270.518 32.0791 270.461C32.2124 270.404 32.3332 270.32 32.4347 270.215C32.5361 270.11 32.6161 269.985 32.67 269.848C32.7238 269.711 32.7505 269.564 32.7485 269.416V268.301V266.071H30.568ZM37.1094 266.071V268.301V269.416C37.1073 269.564 37.134 269.711 37.1879 269.848C37.2418 269.985 37.3217 270.11 37.4232 270.215C37.5246 270.32 37.6455 270.404 37.7788 270.461C37.9121 270.518 38.0551 270.547 38.1996 270.547C38.3441 270.547 38.4871 270.518 38.6204 270.461C38.7537 270.404 38.8746 270.32 38.976 270.215C39.0774 270.11 39.1574 269.985 39.2113 269.848C39.2652 269.711 39.2918 269.564 39.2898 269.416V268.301V266.071H37.1094ZM43.6507 266.071V268.301V269.416C43.6486 269.564 43.6753 269.711 43.7292 269.848C43.7831 269.985 43.863 270.11 43.9645 270.215C44.0659 270.32 44.1868 270.404 44.3201 270.461C44.4534 270.518 44.5964 270.547 44.7409 270.547C44.8854 270.547 45.0284 270.518 45.1617 270.461C45.295 270.404 45.4159 270.32 45.5173 270.215C45.6187 270.11 45.6987 269.985 45.7526 269.848C45.8065 269.711 45.8332 269.564 45.8311 269.416V268.301V266.071H43.6507ZM50.192 266.071V268.301V269.416C50.1899 269.564 50.2166 269.711 50.2705 269.848C50.3244 269.985 50.4044 270.11 50.5058 270.215C50.6072 270.32 50.7281 270.404 50.8614 270.461C50.9947 270.518 51.1377 270.547 51.2822 270.547C51.4267 270.547 51.5697 270.518 51.703 270.461C51.8363 270.404 51.9572 270.32 52.0586 270.215C52.1601 270.11 52.24 269.985 52.2939 269.848C52.3478 269.711 52.3745 269.564 52.3724 269.416V268.301V266.071H50.192Z" fill="#376BC3"/>
<path d="M81.1752 244.006C80.7847 244.396 80.7847 245.029 81.1752 245.42L87.5392 251.784C87.9297 252.174 88.5629 252.174 88.9534 251.784C89.3439 251.393 89.3439 250.76 88.9534 250.37L83.2965 244.713L88.9534 239.056C89.3439 238.666 89.3439 238.032 88.9534 237.642C88.5629 237.251 87.9297 237.251 87.5392 237.642L81.1752 244.006ZM359.05 245.42C359.44 245.029 359.44 244.396 359.05 244.006L352.686 237.642C352.295 237.251 351.662 237.251 351.271 237.642C350.881 238.032 350.881 238.665 351.271 239.056L356.928 244.713L351.271 250.37C350.881 250.76 350.881 251.393 351.271 251.784C351.662 252.174 352.295 252.174 352.686 251.784L359.05 245.42ZM81.8823 245.713L358.342 245.713L358.342 243.713L81.8823 243.713L81.8823 245.713Z" fill="#C4C4C4"/>
<path d="M469.325 244.006C468.935 244.396 468.935 245.029 469.325 245.42L475.689 251.784C476.08 252.174 476.713 252.174 477.103 251.784C477.494 251.393 477.494 250.76 477.103 250.37L471.446 244.713L477.103 239.056C477.494 238.666 477.494 238.032 477.103 237.642C476.713 237.251 476.08 237.251 475.689 237.642L469.325 244.006ZM747.2 245.42C747.59 245.029 747.59 244.396 747.2 244.006L740.836 237.642C740.445 237.251 739.812 237.251 739.421 237.642C739.031 238.032 739.031 238.666 739.421 239.056L745.078 244.713L739.421 250.37C739.031 250.76 739.031 251.393 739.421 251.784C739.812 252.174 740.445 252.174 740.836 251.784L747.2 245.42ZM470.032 245.713H746.492V243.713H470.032V245.713Z" fill="#C4C4C4"/>
<path d="M413.237 170.707C413.628 171.098 414.261 171.098 414.651 170.707L421.015 164.343C421.406 163.953 421.406 163.319 421.015 162.929C420.625 162.538 419.992 162.538 419.601 162.929L413.944 168.586L408.287 162.929C407.897 162.538 407.264 162.538 406.873 162.929C406.483 163.319 406.483 163.953 406.873 164.343L413.237 170.707ZM414.651 85.2929C414.261 84.9024 413.628 84.9024 413.237 85.2929L406.873 91.6569C406.483 92.0474 406.483 92.6805 406.873 93.0711C407.264 93.4616 407.897 93.4616 408.287 93.0711L413.944 87.4142L419.601 93.0711C419.992 93.4616 420.625 93.4616 421.015 93.0711C421.406 92.6805 421.406 92.0474 421.015 91.6569L414.651 85.2929ZM414.944 170L414.944 86L412.944 86L412.944 170L414.944 170Z" fill="#C4C4C4"/>
<path d="M148.954 214.48V215.872H140.944V204.672H148.733V206.064H142.521V209.504H148.055V210.864H142.521V214.48H148.954Z" fill="black"/>
<path d="M158.257 214.48V215.872H150.327V214.784L154.82 210.384C155.367 209.851 155.734 209.392 155.924 209.008C156.113 208.613 156.207 208.219 156.207 207.824C156.207 207.237 156.002 206.784 155.592 206.464C155.193 206.133 154.615 205.968 153.858 205.968C152.639 205.968 151.698 206.373 151.036 207.184L149.964 206.24C150.395 205.707 150.957 205.291 151.651 204.992C152.355 204.693 153.138 204.544 154 204.544C155.156 204.544 156.076 204.827 156.759 205.392C157.442 205.947 157.784 206.704 157.784 207.664C157.784 208.261 157.658 208.827 157.406 209.36C157.153 209.893 156.675 210.501 155.971 211.184L152.597 214.48H158.257Z" fill="black"/>
<path d="M168.461 214.48V215.872H160.452V204.672H168.24V206.064H162.029V209.504H167.562V210.864H162.029V214.48H168.461Z" fill="black"/>
<path d="M178.464 216C177.634 216 176.83 215.872 176.052 215.616C175.285 215.349 174.681 215.008 174.239 214.592L174.822 213.344C175.243 213.728 175.779 214.043 176.431 214.288C177.093 214.523 177.771 214.64 178.464 214.64C179.379 214.64 180.062 214.485 180.514 214.176C180.966 213.856 181.192 213.435 181.192 212.912C181.192 212.528 181.066 212.219 180.814 211.984C180.572 211.739 180.267 211.552 179.899 211.424C179.542 211.296 179.032 211.152 178.37 210.992C177.54 210.789 176.867 210.587 176.352 210.384C175.847 210.181 175.411 209.872 175.043 209.456C174.686 209.029 174.507 208.459 174.507 207.744C174.507 207.147 174.66 206.608 174.964 206.128C175.28 205.648 175.753 205.264 176.383 204.976C177.014 204.688 177.797 204.544 178.732 204.544C179.384 204.544 180.025 204.629 180.656 204.8C181.287 204.971 181.828 205.216 182.28 205.536L181.76 206.816C181.297 206.517 180.803 206.293 180.278 206.144C179.752 205.984 179.237 205.904 178.732 205.904C177.839 205.904 177.166 206.069 176.714 206.4C176.273 206.731 176.052 207.157 176.052 207.68C176.052 208.064 176.178 208.379 176.431 208.624C176.683 208.859 176.993 209.045 177.361 209.184C177.739 209.312 178.249 209.451 178.89 209.6C179.721 209.803 180.388 210.005 180.892 210.208C181.397 210.411 181.828 210.72 182.185 211.136C182.553 211.552 182.737 212.112 182.737 212.816C182.737 213.403 182.579 213.941 182.264 214.432C181.949 214.912 181.471 215.296 180.829 215.584C180.188 215.861 179.4 216 178.464 216Z" fill="black"/>
<path d="M192.372 211.68C192.372 211.797 192.361 211.952 192.34 212.144H185.561C185.655 212.891 185.976 213.493 186.522 213.952C187.08 214.4 187.768 214.624 188.588 214.624C189.586 214.624 190.39 214.283 191 213.6L191.836 214.592C191.457 215.04 190.984 215.381 190.417 215.616C189.86 215.851 189.234 215.968 188.541 215.968C187.658 215.968 186.875 215.787 186.191 215.424C185.508 215.051 184.977 214.533 184.599 213.872C184.231 213.211 184.047 212.464 184.047 211.632C184.047 210.811 184.226 210.069 184.583 209.408C184.951 208.747 185.45 208.235 186.081 207.872C186.722 207.499 187.442 207.312 188.241 207.312C189.04 207.312 189.749 207.499 190.369 207.872C191 208.235 191.489 208.747 191.836 209.408C192.193 210.069 192.372 210.827 192.372 211.68ZM188.241 208.608C187.516 208.608 186.906 208.832 186.412 209.28C185.929 209.728 185.645 210.315 185.561 211.04H190.921C190.837 210.325 190.548 209.744 190.054 209.296C189.571 208.837 188.966 208.608 188.241 208.608Z" fill="black"/>
<path d="M198.115 215.968C197.264 215.968 196.502 215.781 195.829 215.408C195.167 215.035 194.647 214.523 194.268 213.872C193.89 213.211 193.701 212.464 193.701 211.632C193.701 210.8 193.89 210.059 194.268 209.408C194.647 208.747 195.167 208.235 195.829 207.872C196.502 207.499 197.264 207.312 198.115 207.312C198.872 207.312 199.545 207.467 200.134 207.776C200.733 208.085 201.195 208.533 201.521 209.12L200.37 209.872C200.107 209.467 199.781 209.163 199.392 208.96C199.004 208.757 198.573 208.656 198.1 208.656C197.553 208.656 197.059 208.779 196.618 209.024C196.187 209.269 195.845 209.621 195.593 210.08C195.351 210.528 195.23 211.045 195.23 211.632C195.23 212.229 195.351 212.757 195.593 213.216C195.845 213.664 196.187 214.011 196.618 214.256C197.059 214.501 197.553 214.624 198.1 214.624C198.573 214.624 199.004 214.523 199.392 214.32C199.781 214.117 200.107 213.813 200.37 213.408L201.521 214.144C201.195 214.731 200.733 215.184 200.134 215.504C199.545 215.813 198.872 215.968 198.115 215.968Z" fill="black"/>
<path d="M211.269 207.392V215.872H209.834V214.592C209.529 215.029 209.125 215.371 208.62 215.616C208.126 215.851 207.585 215.968 206.996 215.968C205.882 215.968 205.005 215.659 204.363 215.04C203.722 214.411 203.402 213.488 203.402 212.272V207.392H204.915V212.096C204.915 212.917 205.11 213.541 205.499 213.968C205.887 214.384 206.445 214.592 207.17 214.592C207.969 214.592 208.599 214.347 209.062 213.856C209.524 213.365 209.755 212.672 209.755 211.776V207.392H211.269Z" fill="black"/>
<path d="M215.601 208.816C215.864 208.325 216.253 207.952 216.768 207.696C217.283 207.44 217.908 207.312 218.644 207.312V208.8C218.56 208.789 218.444 208.784 218.297 208.784C217.477 208.784 216.831 209.035 216.358 209.536C215.895 210.027 215.664 210.731 215.664 211.648V215.872H214.15V207.392H215.601V208.816Z" fill="black"/>
<path d="M227.984 211.68C227.984 211.797 227.974 211.952 227.953 212.144H221.173C221.268 212.891 221.588 213.493 222.135 213.952C222.692 214.4 223.381 214.624 224.2 214.624C225.199 214.624 226.003 214.283 226.613 213.6L227.448 214.592C227.07 215.04 226.597 215.381 226.029 215.616C225.472 215.851 224.847 215.968 224.153 215.968C223.27 215.968 222.487 215.787 221.804 215.424C221.121 215.051 220.59 214.533 220.212 213.872C219.844 213.211 219.66 212.464 219.66 211.632C219.66 210.811 219.838 210.069 220.196 209.408C220.564 208.747 221.063 208.235 221.694 207.872C222.335 207.499 223.055 207.312 223.854 207.312C224.652 207.312 225.362 207.499 225.982 207.872C226.613 208.235 227.101 208.747 227.448 209.408C227.806 210.069 227.984 210.827 227.984 211.68ZM223.854 208.608C223.128 208.608 222.519 208.832 222.025 209.28C221.541 209.728 221.257 210.315 221.173 211.04H226.534C226.45 210.325 226.161 209.744 225.667 209.296C225.183 208.837 224.579 208.608 223.854 208.608Z" fill="black"/>
<path d="M239.476 216C238.372 216 237.373 215.755 236.48 215.264C235.597 214.763 234.903 214.08 234.399 213.216C233.894 212.341 233.642 211.36 233.642 210.272C233.642 209.184 233.894 208.208 234.399 207.344C234.903 206.469 235.602 205.787 236.496 205.296C237.389 204.795 238.388 204.544 239.491 204.544C240.353 204.544 241.142 204.693 241.856 204.992C242.571 205.28 243.181 205.712 243.685 206.288L242.66 207.296C241.83 206.411 240.795 205.968 239.554 205.968C238.735 205.968 237.994 206.155 237.331 206.528C236.669 206.901 236.149 207.419 235.771 208.08C235.403 208.731 235.219 209.461 235.219 210.272C235.219 211.083 235.403 211.819 235.771 212.48C236.149 213.131 236.669 213.643 237.331 214.016C237.994 214.389 238.735 214.576 239.554 214.576C240.784 214.576 241.82 214.128 242.66 213.232L243.685 214.24C243.181 214.816 242.566 215.253 241.841 215.552C241.126 215.851 240.337 216 239.476 216Z" fill="black"/>
<path d="M250.175 207.312C251.237 207.312 252.078 207.627 252.698 208.256C253.329 208.875 253.644 209.787 253.644 210.992V215.872H252.13V211.168C252.13 210.347 251.936 209.728 251.547 209.312C251.158 208.896 250.601 208.688 249.876 208.688C249.056 208.688 248.41 208.933 247.937 209.424C247.464 209.904 247.227 210.597 247.227 211.504V215.872H245.714V204H247.227V208.592C247.542 208.187 247.952 207.872 248.457 207.648C248.972 207.424 249.545 207.312 250.175 207.312Z" fill="black"/>
<path d="M259.488 207.312C260.644 207.312 261.527 207.6 262.137 208.176C262.757 208.752 263.067 209.611 263.067 210.752V215.872H261.632V214.752C261.38 215.147 261.017 215.451 260.544 215.664C260.082 215.867 259.53 215.968 258.889 215.968C257.953 215.968 257.202 215.739 256.634 215.28C256.077 214.821 255.799 214.219 255.799 213.472C255.799 212.725 256.067 212.128 256.603 211.68C257.139 211.221 257.99 210.992 259.157 210.992H261.553V210.688C261.553 210.027 261.364 209.52 260.986 209.168C260.607 208.816 260.05 208.64 259.315 208.64C258.821 208.64 258.337 208.725 257.864 208.896C257.391 209.056 256.992 209.275 256.666 209.552L256.035 208.4C256.466 208.048 256.981 207.781 257.58 207.6C258.179 207.408 258.815 207.312 259.488 207.312ZM259.141 214.784C259.719 214.784 260.218 214.656 260.639 214.4C261.059 214.133 261.364 213.76 261.553 213.28V212.096H259.22C257.938 212.096 257.296 212.533 257.296 213.408C257.296 213.835 257.459 214.171 257.785 214.416C258.111 214.661 258.563 214.784 259.141 214.784Z" fill="black"/>
<path d="M270.33 207.312C271.391 207.312 272.232 207.627 272.852 208.256C273.483 208.875 273.798 209.787 273.798 210.992V215.872H272.285V211.168C272.285 210.347 272.09 209.728 271.701 209.312C271.312 208.896 270.755 208.688 270.03 208.688C269.21 208.688 268.564 208.933 268.091 209.424C267.618 209.904 267.381 210.597 267.381 211.504V215.872H265.868V207.392H267.318V208.672C267.623 208.235 268.033 207.899 268.548 207.664C269.074 207.429 269.668 207.312 270.33 207.312Z" fill="black"/>
<path d="M281.061 207.312C282.123 207.312 282.964 207.627 283.584 208.256C284.214 208.875 284.53 209.787 284.53 210.992V215.872H283.016V211.168C283.016 210.347 282.822 209.728 282.433 209.312C282.044 208.896 281.487 208.688 280.762 208.688C279.942 208.688 279.295 208.933 278.822 209.424C278.349 209.904 278.113 210.597 278.113 211.504V215.872H276.599V207.392H278.05V208.672C278.355 208.235 278.765 207.899 279.28 207.664C279.805 207.429 280.399 207.312 281.061 207.312Z" fill="black"/>
<path d="M294.929 211.68C294.929 211.797 294.919 211.952 294.898 212.144H288.118C288.213 212.891 288.533 213.493 289.08 213.952C289.637 214.4 290.325 214.624 291.145 214.624C292.144 214.624 292.948 214.283 293.557 213.6L294.393 214.592C294.015 215.04 293.542 215.381 292.974 215.616C292.417 215.851 291.792 215.968 291.098 215.968C290.215 215.968 289.432 215.787 288.749 215.424C288.066 215.051 287.535 214.533 287.156 213.872C286.788 213.211 286.604 212.464 286.604 211.632C286.604 210.811 286.783 210.069 287.141 209.408C287.508 208.747 288.008 208.235 288.638 207.872C289.279 207.499 289.999 207.312 290.798 207.312C291.597 207.312 292.307 207.499 292.927 207.872C293.557 208.235 294.046 208.747 294.393 209.408C294.75 210.069 294.929 210.827 294.929 211.68ZM290.798 208.608C290.073 208.608 289.463 208.832 288.969 209.28C288.486 209.728 288.202 210.315 288.118 211.04H293.479C293.394 210.325 293.105 209.744 292.611 209.296C292.128 208.837 291.524 208.608 290.798 208.608Z" fill="black"/>
<path d="M297.031 204H298.544V215.872H297.031V204Z" fill="black"/>
<path d="M540.954 215.48V216.872H532.944V205.672H540.733V207.064H534.521V210.504H540.055V211.864H534.521V215.48H540.954Z" fill="black"/>
<path d="M550.257 215.48V216.872H542.327V215.784L546.82 211.384C547.367 210.851 547.734 210.392 547.924 210.008C548.113 209.613 548.207 209.219 548.207 208.824C548.207 208.237 548.002 207.784 547.592 207.464C547.193 207.133 546.615 206.968 545.858 206.968C544.639 206.968 543.698 207.373 543.036 208.184L541.964 207.24C542.395 206.707 542.957 206.291 543.651 205.992C544.355 205.693 545.138 205.544 546 205.544C547.156 205.544 548.076 205.827 548.759 206.392C549.442 206.947 549.784 207.704 549.784 208.664C549.784 209.261 549.658 209.827 549.406 210.36C549.153 210.893 548.675 211.501 547.971 212.184L544.597 215.48H550.257Z" fill="black"/>
<path d="M560.461 215.48V216.872H552.452V205.672H560.24V207.064H554.029V210.504H559.562V211.864H554.029V215.48H560.461Z" fill="black"/>
<path d="M570.464 217C569.634 217 568.83 216.872 568.052 216.616C567.285 216.349 566.681 216.008 566.239 215.592L566.822 214.344C567.243 214.728 567.779 215.043 568.431 215.288C569.093 215.523 569.771 215.64 570.464 215.64C571.379 215.64 572.062 215.485 572.514 215.176C572.966 214.856 573.192 214.435 573.192 213.912C573.192 213.528 573.066 213.219 572.814 212.984C572.572 212.739 572.267 212.552 571.899 212.424C571.542 212.296 571.032 212.152 570.37 211.992C569.54 211.789 568.867 211.587 568.352 211.384C567.847 211.181 567.411 210.872 567.043 210.456C566.686 210.029 566.507 209.459 566.507 208.744C566.507 208.147 566.66 207.608 566.964 207.128C567.28 206.648 567.753 206.264 568.383 205.976C569.014 205.688 569.797 205.544 570.732 205.544C571.384 205.544 572.025 205.629 572.656 205.8C573.287 205.971 573.828 206.216 574.28 206.536L573.76 207.816C573.297 207.517 572.803 207.293 572.278 207.144C571.752 206.984 571.237 206.904 570.732 206.904C569.839 206.904 569.166 207.069 568.714 207.4C568.273 207.731 568.052 208.157 568.052 208.68C568.052 209.064 568.178 209.379 568.431 209.624C568.683 209.859 568.993 210.045 569.361 210.184C569.739 210.312 570.249 210.451 570.89 210.6C571.721 210.803 572.388 211.005 572.892 211.208C573.397 211.411 573.828 211.72 574.185 212.136C574.553 212.552 574.737 213.112 574.737 213.816C574.737 214.403 574.579 214.941 574.264 215.432C573.949 215.912 573.471 216.296 572.829 216.584C572.188 216.861 571.4 217 570.464 217Z" fill="black"/>
<path d="M584.372 212.68C584.372 212.797 584.361 212.952 584.34 213.144H577.561C577.655 213.891 577.976 214.493 578.522 214.952C579.08 215.4 579.768 215.624 580.588 215.624C581.586 215.624 582.39 215.283 583 214.6L583.836 215.592C583.457 216.04 582.984 216.381 582.417 216.616C581.86 216.851 581.234 216.968 580.541 216.968C579.658 216.968 578.875 216.787 578.191 216.424C577.508 216.051 576.977 215.533 576.599 214.872C576.231 214.211 576.047 213.464 576.047 212.632C576.047 211.811 576.226 211.069 576.583 210.408C576.951 209.747 577.45 209.235 578.081 208.872C578.722 208.499 579.442 208.312 580.241 208.312C581.04 208.312 581.749 208.499 582.369 208.872C583 209.235 583.489 209.747 583.836 210.408C584.193 211.069 584.372 211.827 584.372 212.68ZM580.241 209.608C579.516 209.608 578.906 209.832 578.412 210.28C577.929 210.728 577.645 211.315 577.561 212.04H582.921C582.837 211.325 582.548 210.744 582.054 210.296C581.571 209.837 580.966 209.608 580.241 209.608Z" fill="black"/>
<path d="M590.115 216.968C589.264 216.968 588.502 216.781 587.829 216.408C587.167 216.035 586.647 215.523 586.268 214.872C585.89 214.211 585.701 213.464 585.701 212.632C585.701 211.8 585.89 211.059 586.268 210.408C586.647 209.747 587.167 209.235 587.829 208.872C588.502 208.499 589.264 208.312 590.115 208.312C590.872 208.312 591.545 208.467 592.134 208.776C592.733 209.085 593.195 209.533 593.521 210.12L592.37 210.872C592.107 210.467 591.781 210.163 591.392 209.96C591.004 209.757 590.573 209.656 590.1 209.656C589.553 209.656 589.059 209.779 588.618 210.024C588.187 210.269 587.845 210.621 587.593 211.08C587.351 211.528 587.23 212.045 587.23 212.632C587.23 213.229 587.351 213.757 587.593 214.216C587.845 214.664 588.187 215.011 588.618 215.256C589.059 215.501 589.553 215.624 590.1 215.624C590.573 215.624 591.004 215.523 591.392 215.32C591.781 215.117 592.107 214.813 592.37 214.408L593.521 215.144C593.195 215.731 592.733 216.184 592.134 216.504C591.545 216.813 590.872 216.968 590.115 216.968Z" fill="black"/>
<path d="M603.269 208.392V216.872H601.834V215.592C601.529 216.029 601.125 216.371 600.62 216.616C600.126 216.851 599.585 216.968 598.996 216.968C597.882 216.968 597.005 216.659 596.363 216.04C595.722 215.411 595.402 214.488 595.402 213.272V208.392H596.915V213.096C596.915 213.917 597.11 214.541 597.499 214.968C597.887 215.384 598.445 215.592 599.17 215.592C599.969 215.592 600.599 215.347 601.062 214.856C601.524 214.365 601.755 213.672 601.755 212.776V208.392H603.269Z" fill="black"/>
<path d="M607.601 209.816C607.864 209.325 608.253 208.952 608.768 208.696C609.283 208.44 609.908 208.312 610.644 208.312V209.8C610.56 209.789 610.444 209.784 610.297 209.784C609.477 209.784 608.831 210.035 608.358 210.536C607.895 211.027 607.664 211.731 607.664 212.648V216.872H606.15V208.392H607.601V209.816Z" fill="black"/>
<path d="M619.984 212.68C619.984 212.797 619.974 212.952 619.953 213.144H613.173C613.268 213.891 613.588 214.493 614.135 214.952C614.692 215.4 615.381 215.624 616.2 215.624C617.199 215.624 618.003 215.283 618.613 214.6L619.448 215.592C619.07 216.04 618.597 216.381 618.029 216.616C617.472 216.851 616.847 216.968 616.153 216.968C615.27 216.968 614.487 216.787 613.804 216.424C613.121 216.051 612.59 215.533 612.212 214.872C611.844 214.211 611.66 213.464 611.66 212.632C611.66 211.811 611.838 211.069 612.196 210.408C612.564 209.747 613.063 209.235 613.694 208.872C614.335 208.499 615.055 208.312 615.854 208.312C616.652 208.312 617.362 208.499 617.982 208.872C618.613 209.235 619.101 209.747 619.448 210.408C619.806 211.069 619.984 211.827 619.984 212.68ZM615.854 209.608C615.128 209.608 614.519 209.832 614.025 210.28C613.541 210.728 613.257 211.315 613.173 212.04H618.534C618.45 211.325 618.161 210.744 617.667 210.296C617.183 209.837 616.579 209.608 615.854 209.608Z" fill="black"/>
<path d="M631.476 217C630.372 217 629.373 216.755 628.48 216.264C627.597 215.763 626.903 215.08 626.399 214.216C625.894 213.341 625.642 212.36 625.642 211.272C625.642 210.184 625.894 209.208 626.399 208.344C626.903 207.469 627.602 206.787 628.496 206.296C629.389 205.795 630.388 205.544 631.491 205.544C632.353 205.544 633.142 205.693 633.856 205.992C634.571 206.28 635.181 206.712 635.685 207.288L634.66 208.296C633.83 207.411 632.795 206.968 631.554 206.968C630.735 206.968 629.994 207.155 629.331 207.528C628.669 207.901 628.149 208.419 627.771 209.08C627.403 209.731 627.219 210.461 627.219 211.272C627.219 212.083 627.403 212.819 627.771 213.48C628.149 214.131 628.669 214.643 629.331 215.016C629.994 215.389 630.735 215.576 631.554 215.576C632.784 215.576 633.82 215.128 634.66 214.232L635.685 215.24C635.181 215.816 634.566 216.253 633.841 216.552C633.126 216.851 632.337 217 631.476 217Z" fill="black"/>
<path d="M642.175 208.312C643.237 208.312 644.078 208.627 644.698 209.256C645.329 209.875 645.644 210.787 645.644 211.992V216.872H644.13V212.168C644.13 211.347 643.936 210.728 643.547 210.312C643.158 209.896 642.601 209.688 641.876 209.688C641.056 209.688 640.41 209.933 639.937 210.424C639.464 210.904 639.227 211.597 639.227 212.504V216.872H637.714V205H639.227V209.592C639.542 209.187 639.952 208.872 640.457 208.648C640.972 208.424 641.545 208.312 642.175 208.312Z" fill="black"/>
<path d="M651.488 208.312C652.644 208.312 653.527 208.6 654.137 209.176C654.757 209.752 655.067 210.611 655.067 211.752V216.872H653.632V215.752C653.38 216.147 653.017 216.451 652.544 216.664C652.082 216.867 651.53 216.968 650.889 216.968C649.953 216.968 649.202 216.739 648.634 216.28C648.077 215.821 647.799 215.219 647.799 214.472C647.799 213.725 648.067 213.128 648.603 212.68C649.139 212.221 649.99 211.992 651.157 211.992H653.553V211.688C653.553 211.027 653.364 210.52 652.986 210.168C652.607 209.816 652.05 209.64 651.315 209.64C650.821 209.64 650.337 209.725 649.864 209.896C649.391 210.056 648.992 210.275 648.666 210.552L648.035 209.4C648.466 209.048 648.981 208.781 649.58 208.6C650.179 208.408 650.815 208.312 651.488 208.312ZM651.141 215.784C651.719 215.784 652.218 215.656 652.639 215.4C653.059 215.133 653.364 214.76 653.553 214.28V213.096H651.22C649.938 213.096 649.296 213.533 649.296 214.408C649.296 214.835 649.459 215.171 649.785 215.416C650.111 215.661 650.563 215.784 651.141 215.784Z" fill="black"/>
<path d="M662.33 208.312C663.391 208.312 664.232 208.627 664.852 209.256C665.483 209.875 665.798 210.787 665.798 211.992V216.872H664.285V212.168C664.285 211.347 664.09 210.728 663.701 210.312C663.312 209.896 662.755 209.688 662.03 209.688C661.21 209.688 660.564 209.933 660.091 210.424C659.618 210.904 659.381 211.597 659.381 212.504V216.872H657.868V208.392H659.318V209.672C659.623 209.235 660.033 208.899 660.548 208.664C661.074 208.429 661.668 208.312 662.33 208.312Z" fill="black"/>
<path d="M673.061 208.312C674.123 208.312 674.964 208.627 675.584 209.256C676.214 209.875 676.53 210.787 676.53 211.992V216.872H675.016V212.168C675.016 211.347 674.822 210.728 674.433 210.312C674.044 209.896 673.487 209.688 672.762 209.688C671.942 209.688 671.295 209.933 670.822 210.424C670.349 210.904 670.113 211.597 670.113 212.504V216.872H668.599V208.392H670.05V209.672C670.355 209.235 670.765 208.899 671.28 208.664C671.805 208.429 672.399 208.312 673.061 208.312Z" fill="black"/>
<path d="M686.929 212.68C686.929 212.797 686.919 212.952 686.898 213.144H680.118C680.213 213.891 680.533 214.493 681.08 214.952C681.637 215.4 682.325 215.624 683.145 215.624C684.144 215.624 684.948 215.283 685.557 214.6L686.393 215.592C686.015 216.04 685.542 216.381 684.974 216.616C684.417 216.851 683.792 216.968 683.098 216.968C682.215 216.968 681.432 216.787 680.749 216.424C680.066 216.051 679.535 215.533 679.156 214.872C678.788 214.211 678.604 213.464 678.604 212.632C678.604 211.811 678.783 211.069 679.141 210.408C679.508 209.747 680.008 209.235 680.638 208.872C681.279 208.499 681.999 208.312 682.798 208.312C683.597 208.312 684.307 208.499 684.927 208.872C685.557 209.235 686.046 209.747 686.393 210.408C686.75 211.069 686.929 211.827 686.929 212.68ZM682.798 209.608C682.073 209.608 681.463 209.832 680.969 210.28C680.486 210.728 680.202 211.315 680.118 212.04H685.479C685.394 211.325 685.105 210.744 684.611 210.296C684.128 209.837 683.524 209.608 682.798 209.608Z" fill="black"/>
<path d="M689.031 205H690.544V216.872H689.031V205Z" fill="black"/>
<path d="M780.616 216.996C780.321 217.001 780.039 217.122 779.833 217.334C779.628 217.546 779.514 217.831 779.518 218.126V219.241V221.471H781.748V219.241V218.126C781.75 217.977 781.723 217.829 781.666 217.691C781.61 217.553 781.527 217.427 781.421 217.322C781.316 217.217 781.19 217.133 781.052 217.077C780.913 217.022 780.765 216.994 780.616 216.996ZM787.306 216.996C787.011 217.001 786.729 217.122 786.523 217.334C786.318 217.546 786.204 217.831 786.208 218.126V219.241V221.471H788.438V219.241V218.126C788.44 217.977 788.412 217.829 788.356 217.691C788.3 217.553 788.217 217.427 788.111 217.322C788.006 217.217 787.88 217.133 787.742 217.077C787.603 217.022 787.455 216.994 787.306 216.996ZM793.996 216.996C793.701 217.001 793.419 217.122 793.213 217.334C793.008 217.546 792.894 217.831 792.898 218.126V219.241V221.471H795.128V219.241V218.126C795.13 217.977 795.102 217.829 795.046 217.691C794.99 217.553 794.907 217.427 794.801 217.322C794.695 217.217 794.57 217.133 794.432 217.077C794.293 217.022 794.145 216.994 793.996 216.996V216.996ZM800.686 216.996C800.391 217.001 800.109 217.122 799.903 217.334C799.698 217.546 799.584 217.831 799.588 218.126V219.241V221.471H801.818V219.241V218.126C801.82 217.977 801.792 217.829 801.736 217.691C801.68 217.553 801.597 217.427 801.491 217.322C801.385 217.217 801.26 217.133 801.121 217.077C800.983 217.022 800.835 216.994 800.686 216.996ZM807.376 216.996C807.081 217.001 806.799 217.122 806.593 217.334C806.388 217.546 806.274 217.831 806.278 218.126V219.241V221.471H808.508V219.241V218.126C808.51 217.977 808.482 217.829 808.426 217.691C808.37 217.553 808.287 217.427 808.181 217.322C808.075 217.217 807.95 217.133 807.811 217.077C807.673 217.022 807.525 216.994 807.376 216.996V216.996ZM776.173 222.586C774.326 222.586 772.828 224.084 772.828 225.931V261.611C772.828 263.459 774.326 264.956 776.173 264.956H811.853C813.701 264.956 815.198 263.459 815.198 261.611V225.931C815.198 224.084 813.701 222.586 811.853 222.586H776.173ZM768.368 229.276C768.221 229.274 768.074 229.302 767.937 229.357C767.8 229.412 767.675 229.494 767.57 229.597C767.465 229.701 767.381 229.825 767.324 229.961C767.267 230.097 767.238 230.244 767.238 230.391C767.238 230.539 767.267 230.685 767.324 230.822C767.381 230.958 767.465 231.082 767.57 231.185C767.675 231.289 767.8 231.371 767.937 231.426C768.074 231.481 768.221 231.509 768.368 231.506H769.483H771.713V229.276H769.483H768.368ZM816.313 229.276V231.506H818.543H819.658C819.806 231.509 819.953 231.481 820.09 231.426C820.227 231.371 820.352 231.289 820.457 231.185C820.562 231.082 820.646 230.958 820.703 230.822C820.76 230.685 820.789 230.539 820.789 230.391C820.789 230.244 820.76 230.097 820.703 229.961C820.646 229.825 820.562 229.701 820.457 229.597C820.352 229.494 820.227 229.412 820.09 229.357C819.953 229.302 819.806 229.274 819.658 229.276H818.543H816.313ZM768.368 235.966C768.221 235.964 768.074 235.992 767.937 236.047C767.8 236.102 767.675 236.184 767.57 236.287C767.465 236.391 767.381 236.515 767.324 236.651C767.267 236.787 767.238 236.934 767.238 237.081C767.238 237.229 767.267 237.375 767.324 237.512C767.381 237.648 767.465 237.772 767.57 237.875C767.675 237.979 767.8 238.061 767.937 238.116C768.074 238.171 768.221 238.198 768.368 238.196H769.483H771.713V235.966H769.483H768.368ZM783.978 235.966H804.048V251.576H783.978V235.966ZM816.313 235.966V238.196H818.543H819.658C819.806 238.198 819.953 238.171 820.09 238.116C820.227 238.061 820.352 237.979 820.457 237.875C820.562 237.772 820.646 237.648 820.703 237.512C820.76 237.375 820.789 237.229 820.789 237.081C820.789 236.934 820.76 236.787 820.703 236.651C820.646 236.515 820.562 236.391 820.457 236.287C820.352 236.184 820.227 236.102 820.09 236.047C819.953 235.992 819.806 235.964 819.658 235.966H818.543H816.313ZM768.368 242.656C768.221 242.654 768.074 242.682 767.937 242.737C767.8 242.792 767.675 242.874 767.57 242.977C767.465 243.081 767.381 243.205 767.324 243.341C767.267 243.477 767.238 243.624 767.238 243.771C767.238 243.919 767.267 244.065 767.324 244.202C767.381 244.338 767.465 244.462 767.57 244.565C767.675 244.669 767.8 244.751 767.937 244.806C768.074 244.861 768.221 244.888 768.368 244.886H769.483H771.713V242.656H769.483H768.368ZM816.313 242.656V244.886H818.543H819.658C819.806 244.888 819.953 244.861 820.09 244.806C820.227 244.751 820.352 244.669 820.457 244.565C820.562 244.462 820.646 244.338 820.703 244.202C820.76 244.065 820.789 243.919 820.789 243.771C820.789 243.624 820.76 243.477 820.703 243.341C820.646 243.205 820.562 243.081 820.457 242.977C820.352 242.874 820.227 242.792 820.09 242.737C819.953 242.682 819.806 242.654 819.658 242.656H818.543H816.313ZM768.368 249.346C768.221 249.344 768.074 249.372 767.937 249.427C767.8 249.482 767.675 249.564 767.57 249.667C767.465 249.771 767.381 249.895 767.324 250.031C767.267 250.167 767.238 250.314 767.238 250.461C767.238 250.609 767.267 250.755 767.324 250.892C767.381 251.028 767.465 251.152 767.57 251.255C767.675 251.359 767.8 251.441 767.937 251.496C768.074 251.551 768.221 251.578 768.368 251.576H769.483H771.713V249.346H769.483H768.368ZM816.313 249.346V251.576H818.543H819.658C819.806 251.578 819.953 251.551 820.09 251.496C820.227 251.441 820.352 251.359 820.457 251.255C820.562 251.152 820.646 251.028 820.703 250.892C820.76 250.755 820.789 250.609 820.789 250.461C820.789 250.314 820.76 250.167 820.703 250.031C820.646 249.895 820.562 249.771 820.457 249.667C820.352 249.564 820.227 249.482 820.09 249.427C819.953 249.372 819.806 249.344 819.658 249.346H818.543H816.313ZM768.368 256.036C768.221 256.034 768.074 256.062 767.937 256.117C767.8 256.172 767.675 256.254 767.57 256.357C767.465 256.461 767.381 256.585 767.324 256.721C767.267 256.857 767.238 257.004 767.238 257.151C767.238 257.299 767.267 257.445 767.324 257.582C767.381 257.718 767.465 257.842 767.57 257.945C767.675 258.049 767.8 258.131 767.937 258.186C768.074 258.241 768.221 258.268 768.368 258.266H769.483H771.713V256.036H769.483H768.368ZM816.313 256.036V258.266H818.543H819.658C819.806 258.268 819.953 258.241 820.09 258.186C820.227 258.131 820.352 258.049 820.457 257.945C820.562 257.842 820.646 257.718 820.703 257.582C820.76 257.445 820.789 257.299 820.789 257.151C820.789 257.004 820.76 256.857 820.703 256.721C820.646 256.585 820.562 256.461 820.457 256.357C820.352 256.254 820.227 256.172 820.09 256.117C819.953 256.062 819.806 256.034 819.658 256.036H818.543H816.313ZM779.518 266.071V268.301V269.416C779.516 269.564 779.544 269.711 779.599 269.848C779.654 269.985 779.736 270.11 779.839 270.215C779.943 270.32 780.067 270.404 780.203 270.461C780.339 270.518 780.486 270.547 780.633 270.547C780.781 270.547 780.927 270.518 781.064 270.461C781.2 270.404 781.324 270.32 781.427 270.215C781.531 270.11 781.613 269.985 781.668 269.848C781.723 269.711 781.75 269.564 781.748 269.416V268.301V266.071H779.518ZM786.208 266.071V268.301V269.416C786.206 269.564 786.234 269.711 786.289 269.848C786.344 269.985 786.426 270.11 786.529 270.215C786.633 270.32 786.757 270.404 786.893 270.461C787.029 270.518 787.176 270.547 787.323 270.547C787.471 270.547 787.617 270.518 787.754 270.461C787.89 270.404 788.014 270.32 788.117 270.215C788.221 270.11 788.303 269.985 788.358 269.848C788.413 269.711 788.44 269.564 788.438 269.416V268.301V266.071H786.208ZM792.898 266.071V268.301V269.416C792.896 269.564 792.924 269.711 792.979 269.848C793.034 269.985 793.116 270.11 793.219 270.215C793.323 270.32 793.447 270.404 793.583 270.461C793.719 270.518 793.866 270.547 794.013 270.547C794.161 270.547 794.307 270.518 794.444 270.461C794.58 270.404 794.704 270.32 794.807 270.215C794.911 270.11 794.993 269.985 795.048 269.848C795.103 269.711 795.13 269.564 795.128 269.416V268.301V266.071H792.898ZM799.588 266.071V268.301V269.416C799.586 269.564 799.614 269.711 799.669 269.848C799.724 269.985 799.806 270.11 799.909 270.215C800.013 270.32 800.137 270.404 800.273 270.461C800.409 270.518 800.556 270.547 800.703 270.547C800.851 270.547 800.997 270.518 801.134 270.461C801.27 270.404 801.394 270.32 801.497 270.215C801.601 270.11 801.683 269.985 801.738 269.848C801.793 269.711 801.82 269.564 801.818 269.416V268.301V266.071H799.588ZM806.278 266.071V268.301V269.416C806.276 269.564 806.304 269.711 806.359 269.848C806.414 269.985 806.496 270.11 806.599 270.215C806.703 270.32 806.827 270.404 806.963 270.461C807.099 270.518 807.246 270.547 807.393 270.547C807.541 270.547 807.687 270.518 807.824 270.461C807.96 270.404 808.084 270.32 808.187 270.215C808.291 270.11 808.373 269.985 808.428 269.848C808.483 269.711 808.51 269.564 808.508 269.416V268.301V266.071H806.278Z" fill="#376BC3"/>
<rect x="0.5" y="386.708" width="828.888" height="51.7919" rx="9.5" fill="white" stroke="#376BC3"/>
<path d="M236.944 407.227H242.253C243.548 407.227 244.699 407.477 245.705 407.977C246.711 408.465 247.491 409.164 248.047 410.073C248.602 410.97 248.879 412.009 248.879 413.191C248.879 414.372 248.602 415.417 248.047 416.326C247.491 417.224 246.711 417.922 245.705 418.422C244.699 418.911 243.548 419.155 242.253 419.155H236.944V407.227ZM242.148 417.281C243.039 417.281 243.82 417.116 244.49 416.786C245.173 416.446 245.693 415.968 246.052 415.355C246.422 414.73 246.607 414.009 246.607 413.191C246.607 412.373 246.422 411.657 246.052 411.044C245.693 410.419 245.173 409.942 244.49 409.612C243.82 409.272 243.039 409.101 242.148 409.101H239.199V417.281H242.148Z" fill="#376BC3"/>
<path d="M259.776 414.656C259.776 414.804 259.765 415.014 259.741 415.287H252.473C252.6 415.957 252.93 416.491 253.462 416.889C254.005 417.275 254.676 417.468 255.474 417.468C256.492 417.468 257.33 417.139 257.989 416.48L259.152 417.792C258.735 418.28 258.209 418.649 257.573 418.899C256.937 419.149 256.22 419.274 255.422 419.274C254.404 419.274 253.508 419.075 252.733 418.678C251.958 418.28 251.357 417.729 250.929 417.025C250.513 416.309 250.305 415.503 250.305 414.605C250.305 413.719 250.507 412.924 250.912 412.22C251.328 411.504 251.901 410.947 252.629 410.55C253.358 410.152 254.179 409.953 255.092 409.953C255.994 409.953 256.798 410.152 257.504 410.55C258.221 410.936 258.776 411.487 259.169 412.203C259.574 412.907 259.776 413.725 259.776 414.656ZM255.092 411.657C254.399 411.657 253.809 411.862 253.323 412.271C252.849 412.668 252.56 413.202 252.456 413.873H257.712C257.619 413.214 257.336 412.68 256.862 412.271C256.388 411.862 255.798 411.657 255.092 411.657Z" fill="#376BC3"/>
<path d="M266.109 419.274C265.149 419.274 264.288 419.075 263.524 418.678C262.761 418.28 262.166 417.729 261.738 417.025C261.31 416.309 261.096 415.503 261.096 414.605C261.096 413.708 261.31 412.907 261.738 412.203C262.166 411.498 262.755 410.947 263.507 410.55C264.27 410.152 265.138 409.953 266.109 409.953C267.023 409.953 267.821 410.135 268.503 410.499C269.197 410.862 269.717 411.385 270.064 412.066L268.399 413.021C268.133 412.6 267.798 412.288 267.393 412.083C267 411.867 266.566 411.76 266.092 411.76C265.282 411.76 264.611 412.021 264.079 412.543C263.548 413.055 263.282 413.742 263.282 414.605C263.282 415.469 263.542 416.162 264.062 416.684C264.594 417.195 265.271 417.451 266.092 417.451C266.566 417.451 267 417.349 267.393 417.144C267.798 416.928 268.133 416.61 268.399 416.19L270.064 417.144C269.706 417.826 269.18 418.354 268.486 418.729C267.803 419.092 267.011 419.274 266.109 419.274Z" fill="#376BC3"/>
<path d="M280.511 414.656C280.511 414.804 280.5 415.014 280.477 415.287H273.208C273.335 415.957 273.665 416.491 274.197 416.889C274.741 417.275 275.411 417.468 276.209 417.468C277.227 417.468 278.065 417.139 278.725 416.48L279.887 417.792C279.471 418.28 278.944 418.649 278.308 418.899C277.672 419.149 276.955 419.274 276.157 419.274C275.14 419.274 274.243 419.075 273.468 418.678C272.694 418.28 272.092 417.729 271.664 417.025C271.248 416.309 271.04 415.503 271.04 414.605C271.04 413.719 271.242 412.924 271.647 412.22C272.063 411.504 272.636 410.947 273.364 410.55C274.093 410.152 274.914 409.953 275.828 409.953C276.73 409.953 277.534 410.152 278.239 410.55C278.956 410.936 279.511 411.487 279.904 412.203C280.309 412.907 280.511 413.725 280.511 414.656ZM275.828 411.657C275.134 411.657 274.544 411.862 274.058 412.271C273.584 412.668 273.295 413.202 273.191 413.873H278.447C278.355 413.214 278.071 412.68 277.597 412.271C277.123 411.862 276.533 411.657 275.828 411.657Z" fill="#376BC3"/>
<path d="M287.851 409.953C289.019 409.953 289.955 410.288 290.661 410.959C291.366 411.629 291.719 412.623 291.719 413.941V419.155H289.551V414.213C289.551 413.418 289.36 412.822 288.978 412.424C288.596 412.015 288.053 411.811 287.347 411.811C286.549 411.811 285.919 412.049 285.457 412.526C284.994 412.992 284.763 413.668 284.763 414.554V419.155H282.594V410.056H284.659V411.231C285.017 410.811 285.468 410.493 286.012 410.277C286.555 410.061 287.168 409.953 287.851 409.953Z" fill="#376BC3"/>
<path d="M300.038 418.661C299.784 418.865 299.471 419.019 299.101 419.121C298.743 419.223 298.361 419.274 297.956 419.274C296.939 419.274 296.152 419.013 295.597 418.49C295.042 417.968 294.765 417.207 294.765 416.207V411.828H293.238V410.124H294.765V408.045H296.933V410.124H299.414V411.828H296.933V416.156C296.933 416.599 297.043 416.94 297.263 417.178C297.482 417.405 297.8 417.519 298.217 417.519C298.702 417.519 299.107 417.394 299.431 417.144L300.038 418.661Z" fill="#376BC3"/>
<path d="M303.886 411.385C304.511 410.43 305.609 409.953 307.182 409.953V411.981C306.997 411.947 306.829 411.93 306.679 411.93C305.835 411.93 305.176 412.174 304.701 412.663C304.227 413.14 303.99 413.833 303.99 414.742V419.155H301.822V410.056H303.886V411.385Z" fill="#376BC3"/>
<path d="M312.51 409.953C313.874 409.953 314.915 410.277 315.632 410.925C316.361 411.561 316.725 412.526 316.725 413.821V419.155H314.678V418.047C314.412 418.445 314.03 418.752 313.533 418.968C313.047 419.172 312.458 419.274 311.764 419.274C311.07 419.274 310.463 419.161 309.942 418.933C309.422 418.695 309.017 418.371 308.728 417.962C308.45 417.542 308.312 417.07 308.312 416.548C308.312 415.73 308.618 415.077 309.231 414.588C309.856 414.088 310.833 413.838 312.163 413.838H314.557V413.702C314.557 413.066 314.36 412.577 313.967 412.237C313.585 411.896 313.013 411.725 312.249 411.725C311.729 411.725 311.214 411.805 310.706 411.964C310.208 412.123 309.786 412.345 309.439 412.629L308.589 411.078C309.075 410.714 309.659 410.436 310.341 410.243C311.024 410.05 311.746 409.953 312.51 409.953ZM312.215 417.724C312.758 417.724 313.238 417.604 313.655 417.366C314.082 417.116 314.383 416.764 314.557 416.309V415.253H312.319C311.07 415.253 310.445 415.656 310.445 416.463C310.445 416.849 310.601 417.156 310.914 417.383C311.226 417.61 311.66 417.724 312.215 417.724Z" fill="#376BC3"/>
<path d="M319.508 406.511H321.676V419.155H319.508V406.511Z" fill="#376BC3"/>
<path d="M324.522 410.056H326.691V419.155H324.522V410.056ZM325.615 408.556C325.222 408.556 324.892 408.437 324.626 408.198C324.36 407.948 324.227 407.642 324.227 407.278C324.227 406.914 324.36 406.613 324.626 406.375C324.892 406.125 325.222 406 325.615 406C326.008 406 326.338 406.119 326.604 406.358C326.87 406.585 327.003 406.875 327.003 407.227C327.003 407.602 326.87 407.92 326.604 408.181C326.349 408.431 326.02 408.556 325.615 408.556Z" fill="#376BC3"/>
<path d="M336.77 417.451V419.155H328.773V417.809L333.856 411.76H328.877V410.056H336.632V411.402L331.532 417.451H336.77Z" fill="#376BC3"/>
<path d="M347.342 414.656C347.342 414.804 347.33 415.014 347.307 415.287H340.039C340.166 415.957 340.496 416.491 341.028 416.889C341.571 417.275 342.242 417.468 343.04 417.468C344.058 417.468 344.896 417.139 345.555 416.48L346.718 417.792C346.301 418.28 345.775 418.649 345.139 418.899C344.503 419.149 343.786 419.274 342.988 419.274C341.97 419.274 341.074 419.075 340.299 418.678C339.524 418.28 338.923 417.729 338.495 417.025C338.079 416.309 337.87 415.503 337.87 414.605C337.87 413.719 338.073 412.924 338.478 412.22C338.894 411.504 339.466 410.947 340.195 410.55C340.924 410.152 341.745 409.953 342.658 409.953C343.56 409.953 344.364 410.152 345.07 410.55C345.787 410.936 346.342 411.487 346.735 412.203C347.14 412.907 347.342 413.725 347.342 414.656ZM342.658 411.657C341.964 411.657 341.375 411.862 340.889 412.271C340.415 412.668 340.126 413.202 340.022 413.873H345.278C345.185 413.214 344.902 412.68 344.428 412.271C343.954 411.862 343.364 411.657 342.658 411.657Z" fill="#376BC3"/>
<path d="M358.497 406.511V419.155H356.416V417.979C356.057 418.411 355.612 418.735 355.08 418.95C354.56 419.166 353.981 419.274 353.345 419.274C352.455 419.274 351.651 419.081 350.934 418.695C350.229 418.309 349.674 417.763 349.269 417.059C348.864 416.343 348.662 415.525 348.662 414.605C348.662 413.685 348.864 412.873 349.269 412.169C349.674 411.464 350.229 410.919 350.934 410.533C351.651 410.146 352.455 409.953 353.345 409.953C353.958 409.953 354.519 410.056 355.028 410.26C355.537 410.465 355.971 410.771 356.329 411.18V406.511H358.497ZM353.606 417.451C354.126 417.451 354.594 417.337 355.011 417.11C355.427 416.872 355.757 416.536 355.999 416.105C356.242 415.673 356.364 415.173 356.364 414.605C356.364 414.037 356.242 413.537 355.999 413.106C355.757 412.674 355.427 412.345 355.011 412.117C354.594 411.879 354.126 411.76 353.606 411.76C353.085 411.76 352.617 411.879 352.2 412.117C351.784 412.345 351.455 412.674 351.212 413.106C350.969 413.537 350.847 414.037 350.847 414.605C350.847 415.173 350.969 415.673 351.212 416.105C351.455 416.536 351.784 416.872 352.2 417.11C352.617 417.337 353.085 417.451 353.606 417.451Z" fill="#376BC3"/>
<path d="M371.332 407.227C372.385 407.227 373.298 407.397 374.073 407.738C374.86 408.079 375.461 408.567 375.877 409.204C376.294 409.84 376.502 410.595 376.502 411.47C376.502 412.333 376.294 413.089 375.877 413.736C375.461 414.372 374.86 414.861 374.073 415.202C373.298 415.542 372.385 415.713 371.332 415.713H368.592V419.155H366.336V407.227H371.332ZM371.228 413.838C372.211 413.838 372.957 413.634 373.466 413.225C373.975 412.816 374.229 412.231 374.229 411.47C374.229 410.709 373.975 410.124 373.466 409.715C372.957 409.306 372.211 409.101 371.228 409.101H368.592V413.838H371.228Z" fill="#376BC3"/>
<path d="M387.684 410.056V419.155H385.619V417.996C385.272 418.405 384.839 418.723 384.318 418.95C383.798 419.166 383.237 419.274 382.636 419.274C381.398 419.274 380.421 418.939 379.704 418.269C378.998 417.587 378.646 416.582 378.646 415.253V410.056H380.814V414.963C380.814 415.781 380.999 416.394 381.369 416.803C381.751 417.201 382.289 417.4 382.983 417.4C383.757 417.4 384.37 417.167 384.821 416.701C385.284 416.224 385.515 415.542 385.515 414.656V410.056H387.684Z" fill="#376BC3"/>
<path d="M395.658 409.953C396.56 409.953 397.363 410.146 398.069 410.533C398.786 410.919 399.347 411.464 399.751 412.169C400.156 412.873 400.359 413.685 400.359 414.605C400.359 415.525 400.156 416.343 399.751 417.059C399.347 417.763 398.786 418.309 398.069 418.695C397.363 419.081 396.56 419.274 395.658 419.274C395.021 419.274 394.437 419.166 393.905 418.95C393.385 418.735 392.946 418.411 392.587 417.979V419.155H390.523V406.511H392.691V411.163C393.061 410.766 393.495 410.465 393.992 410.26C394.501 410.056 395.056 409.953 395.658 409.953ZM395.415 417.451C396.213 417.451 396.866 417.19 397.375 416.667C397.895 416.145 398.155 415.457 398.155 414.605C398.155 413.753 397.895 413.066 397.375 412.543C396.866 412.021 396.213 411.76 395.415 411.76C394.894 411.76 394.426 411.879 394.01 412.117C393.593 412.345 393.264 412.674 393.021 413.106C392.778 413.537 392.656 414.037 392.656 414.605C392.656 415.173 392.778 415.673 393.021 416.105C393.264 416.536 393.593 416.872 394.01 417.11C394.426 417.337 394.894 417.451 395.415 417.451Z" fill="#376BC3"/>
<path d="M402.415 406.511H404.583V419.155H402.415V406.511Z" fill="#376BC3"/>
<path d="M407.429 410.056H409.598V419.155H407.429V410.056ZM408.522 408.556C408.129 408.556 407.799 408.437 407.534 408.198C407.268 407.948 407.135 407.642 407.135 407.278C407.135 406.914 407.268 406.613 407.534 406.375C407.799 406.125 408.129 406 408.522 406C408.916 406 409.245 406.119 409.511 406.358C409.777 406.585 409.91 406.875 409.91 407.227C409.91 407.602 409.777 407.92 409.511 408.181C409.257 408.431 408.927 408.556 408.522 408.556Z" fill="#376BC3"/>
<path d="M416.694 419.274C415.734 419.274 414.872 419.075 414.109 418.678C413.346 418.28 412.75 417.729 412.322 417.025C411.895 416.309 411.681 415.503 411.681 414.605C411.681 413.708 411.895 412.907 412.322 412.203C412.75 411.498 413.34 410.947 414.092 410.55C414.855 410.152 415.722 409.953 416.694 409.953C417.608 409.953 418.405 410.135 419.088 410.499C419.782 410.862 420.302 411.385 420.649 412.066L418.984 413.021C418.718 412.6 418.382 412.288 417.978 412.083C417.584 411.867 417.151 411.76 416.677 411.76C415.867 411.76 415.196 412.021 414.664 412.543C414.132 413.055 413.866 413.742 413.866 414.605C413.866 415.469 414.127 416.162 414.647 416.684C415.179 417.195 415.855 417.451 416.677 417.451C417.151 417.451 417.584 417.349 417.978 417.144C418.382 416.928 418.718 416.61 418.984 416.19L420.649 417.144C420.291 417.826 419.764 418.354 419.07 418.729C418.388 419.092 417.596 419.274 416.694 419.274Z" fill="#376BC3"/>
<path d="M431.707 414.162L429.781 416.105V419.155H427.526V407.227H429.781V413.344L435.783 407.227H438.316L433.216 412.56L438.628 419.155H435.991L431.707 414.162Z" fill="#376BC3"/>
<path d="M448.257 414.656C448.257 414.804 448.245 415.014 448.222 415.287H440.954C441.081 415.957 441.411 416.491 441.943 416.889C442.486 417.275 443.157 417.468 443.955 417.468C444.973 417.468 445.811 417.139 446.47 416.48L447.633 417.792C447.216 418.28 446.69 418.649 446.054 418.899C445.418 419.149 444.701 419.274 443.903 419.274C442.885 419.274 441.989 419.075 441.214 418.678C440.439 418.28 439.838 417.729 439.41 417.025C438.994 416.309 438.786 415.503 438.786 414.605C438.786 413.719 438.988 412.924 439.393 412.22C439.809 411.504 440.381 410.947 441.11 410.55C441.839 410.152 442.66 409.953 443.573 409.953C444.475 409.953 445.279 410.152 445.985 410.55C446.702 410.936 447.257 411.487 447.65 412.203C448.055 412.907 448.257 413.725 448.257 414.656ZM443.573 411.657C442.879 411.657 442.29 411.862 441.804 412.271C441.33 412.668 441.041 413.202 440.937 413.873H446.193C446.1 413.214 445.817 412.68 445.343 412.271C444.869 411.862 444.279 411.657 443.573 411.657Z" fill="#376BC3"/>
<path d="M458.844 410.056L454.507 419.888C454.103 420.876 453.611 421.569 453.033 421.967C452.455 422.376 451.755 422.58 450.934 422.58C450.471 422.58 450.014 422.506 449.563 422.358C449.112 422.211 448.742 422.006 448.453 421.745L449.321 420.177C449.529 420.37 449.772 420.524 450.049 420.637C450.338 420.751 450.627 420.808 450.916 420.808C451.298 420.808 451.61 420.711 451.853 420.518C452.108 420.325 452.339 420.001 452.547 419.547L452.703 419.189L448.661 410.056H450.916L453.831 416.786L456.762 410.056H458.844Z" fill="#376BC3"/>
<path d="M465.202 407.227H467.457V419.155H465.202V407.227Z" fill="#376BC3"/>
<path d="M475.789 409.953C476.957 409.953 477.894 410.288 478.6 410.959C479.305 411.629 479.658 412.623 479.658 413.941V419.155H477.489V414.213C477.489 413.418 477.298 412.822 476.917 412.424C476.535 412.015 475.992 411.811 475.286 411.811C474.488 411.811 473.858 412.049 473.395 412.526C472.933 412.992 472.701 413.668 472.701 414.554V419.155H470.533V410.056H472.597V411.231C472.956 410.811 473.407 410.493 473.95 410.277C474.494 410.061 475.107 409.953 475.789 409.953Z" fill="#376BC3"/>
<path d="M486.173 408.113C485.259 408.113 484.802 408.601 484.802 409.578V410.124H487.352V411.828H484.872V419.155H482.703V411.828H481.177V410.124H482.703V409.544C482.703 408.567 482.992 407.801 483.571 407.244C484.149 406.676 484.964 406.392 486.017 406.392C486.849 406.392 487.503 406.557 487.977 406.886L487.37 408.488C487 408.238 486.601 408.113 486.173 408.113Z" fill="#376BC3"/>
<path d="M492.265 411.385C492.89 410.43 493.989 409.953 495.561 409.953V411.981C495.376 411.947 495.209 411.93 495.058 411.93C494.214 411.93 493.555 412.174 493.081 412.663C492.607 413.14 492.37 413.833 492.37 414.742V419.155H490.201V410.056H492.265V411.385Z" fill="#376BC3"/>
<path d="M500.889 409.953C502.253 409.953 503.294 410.277 504.011 410.925C504.74 411.561 505.104 412.526 505.104 413.821V419.155H503.057V418.047C502.791 418.445 502.41 418.752 501.912 418.968C501.427 419.172 500.837 419.274 500.143 419.274C499.449 419.274 498.842 419.161 498.321 418.933C497.801 418.695 497.396 418.371 497.107 417.962C496.83 417.542 496.691 417.07 496.691 416.548C496.691 415.73 496.997 415.077 497.61 414.588C498.235 414.088 499.212 413.838 500.542 413.838H502.936V413.702C502.936 413.066 502.739 412.577 502.346 412.237C501.964 411.896 501.392 411.725 500.629 411.725C500.108 411.725 499.594 411.805 499.085 411.964C498.587 412.123 498.165 412.345 497.818 412.629L496.968 411.078C497.454 410.714 498.038 410.436 498.72 410.243C499.403 410.05 500.126 409.953 500.889 409.953ZM500.594 417.724C501.137 417.724 501.617 417.604 502.034 417.366C502.462 417.116 502.762 416.764 502.936 416.309V415.253H500.698C499.449 415.253 498.825 415.656 498.825 416.463C498.825 416.849 498.981 417.156 499.293 417.383C499.605 417.61 500.039 417.724 500.594 417.724Z" fill="#376BC3"/>
<path d="M510.749 419.274C509.998 419.274 509.263 419.178 508.546 418.985C507.829 418.791 507.257 418.547 506.829 418.252L507.662 416.633C508.078 416.906 508.575 417.127 509.153 417.298C509.743 417.457 510.321 417.536 510.888 417.536C512.183 417.536 512.831 417.201 512.831 416.531C512.831 416.213 512.663 415.991 512.328 415.866C512.004 415.741 511.478 415.622 510.749 415.508C509.986 415.395 509.362 415.264 508.876 415.116C508.402 414.969 507.985 414.713 507.627 414.35C507.28 413.975 507.106 413.458 507.106 412.799C507.106 411.936 507.471 411.248 508.199 410.737C508.939 410.215 509.934 409.953 511.183 409.953C511.819 409.953 512.455 410.027 513.091 410.175C513.727 410.311 514.248 410.499 514.652 410.737L513.82 412.356C513.033 411.902 512.149 411.674 511.166 411.674C510.53 411.674 510.044 411.771 509.709 411.964C509.385 412.146 509.223 412.39 509.223 412.697C509.223 413.038 509.396 413.282 509.743 413.429C510.102 413.566 510.651 413.696 511.391 413.821C512.131 413.935 512.739 414.066 513.213 414.213C513.687 414.361 514.092 414.611 514.427 414.963C514.774 415.315 514.947 415.815 514.947 416.463C514.947 417.315 514.572 417.996 513.82 418.507C513.068 419.019 512.045 419.274 510.749 419.274Z" fill="#376BC3"/>
<path d="M522.383 418.661C522.129 418.865 521.816 419.019 521.446 419.121C521.088 419.223 520.706 419.274 520.302 419.274C519.284 419.274 518.497 419.013 517.942 418.49C517.387 417.968 517.11 417.207 517.11 416.207V411.828H515.583V410.124H517.11V408.045H519.278V410.124H521.759V411.828H519.278V416.156C519.278 416.599 519.388 416.94 519.608 417.178C519.827 417.405 520.145 417.519 520.562 417.519C521.047 417.519 521.452 417.394 521.776 417.144L522.383 418.661Z" fill="#376BC3"/>
<path d="M526.231 411.385C526.856 410.43 527.954 409.953 529.527 409.953V411.981C529.342 411.947 529.174 411.93 529.024 411.93C528.18 411.93 527.521 412.174 527.047 412.663C526.572 413.14 526.335 413.833 526.335 414.742V419.155H524.167V410.056H526.231V411.385Z" fill="#376BC3"/>
<path d="M540.42 410.056V419.155H538.356V417.996C538.009 418.405 537.575 418.723 537.055 418.95C536.534 419.166 535.973 419.274 535.372 419.274C534.134 419.274 533.157 418.939 532.44 418.269C531.735 417.587 531.382 416.582 531.382 415.253V410.056H533.55V414.963C533.55 415.781 533.735 416.394 534.106 416.803C534.487 417.201 535.025 417.4 535.719 417.4C536.494 417.4 537.107 417.167 537.558 416.701C538.02 416.224 538.251 415.542 538.251 414.656V410.056H540.42Z" fill="#376BC3"/>
<path d="M547.509 419.274C546.549 419.274 545.688 419.075 544.924 418.678C544.161 418.28 543.565 417.729 543.138 417.025C542.71 416.309 542.496 415.503 542.496 414.605C542.496 413.708 542.71 412.907 543.138 412.203C543.565 411.498 544.155 410.947 544.907 410.55C545.67 410.152 546.538 409.953 547.509 409.953C548.423 409.953 549.221 410.135 549.903 410.499C550.597 410.862 551.117 411.385 551.464 412.066L549.799 413.021C549.533 412.6 549.198 412.288 548.793 412.083C548.4 411.867 547.966 411.76 547.492 411.76C546.682 411.76 546.011 412.021 545.479 412.543C544.947 413.055 544.681 413.742 544.681 414.605C544.681 415.469 544.942 416.162 545.462 416.684C545.994 417.195 546.671 417.451 547.492 417.451C547.966 417.451 548.4 417.349 548.793 417.144C549.198 416.928 549.533 416.61 549.799 416.19L551.464 417.144C551.106 417.826 550.579 418.354 549.886 418.729C549.203 419.092 548.411 419.274 547.509 419.274Z" fill="#376BC3"/>
<path d="M559.026 418.661C558.771 418.865 558.459 419.019 558.089 419.121C557.73 419.223 557.349 419.274 556.944 419.274C555.926 419.274 555.14 419.013 554.585 418.49C554.03 417.968 553.752 417.207 553.752 416.207V411.828H552.226V410.124H553.752V408.045H555.92V410.124H558.401V411.828H555.92V416.156C555.92 416.599 556.03 416.94 556.25 417.178C556.47 417.405 556.788 417.519 557.204 417.519C557.69 417.519 558.095 417.394 558.419 417.144L559.026 418.661Z" fill="#376BC3"/>
<path d="M569.778 410.056V419.155H567.714V417.996C567.367 418.405 566.933 418.723 566.413 418.95C565.892 419.166 565.331 419.274 564.73 419.274C563.492 419.274 562.515 418.939 561.798 418.269C561.093 417.587 560.74 416.582 560.74 415.253V410.056H562.908V414.963C562.908 415.781 563.093 416.394 563.464 416.803C563.845 417.201 564.383 417.4 565.077 417.4C565.852 417.4 566.465 417.167 566.916 416.701C567.378 416.224 567.609 415.542 567.609 414.656V410.056H569.778Z" fill="#376BC3"/>
<path d="M574.681 411.385C575.306 410.43 576.404 409.953 577.977 409.953V411.981C577.792 411.947 577.625 411.93 577.474 411.93C576.63 411.93 575.971 412.174 575.497 412.663C575.023 413.14 574.785 413.833 574.785 414.742V419.155H572.617V410.056H574.681V411.385Z" fill="#376BC3"/>
<path d="M588.44 414.656C588.44 414.804 588.429 415.014 588.406 415.287H581.137C581.264 415.957 581.594 416.491 582.126 416.889C582.669 417.275 583.34 417.468 584.138 417.468C585.156 417.468 585.994 417.139 586.654 416.48L587.816 417.792C587.399 418.28 586.873 418.649 586.237 418.899C585.601 419.149 584.884 419.274 584.086 419.274C583.068 419.274 582.172 419.075 581.397 418.678C580.623 418.28 580.021 417.729 579.593 417.025C579.177 416.309 578.969 415.503 578.969 414.605C578.969 413.719 579.171 412.924 579.576 412.22C579.992 411.504 580.565 410.947 581.293 410.55C582.022 410.152 582.843 409.953 583.757 409.953C584.659 409.953 585.462 410.152 586.168 410.55C586.885 410.936 587.44 411.487 587.833 412.203C588.238 412.907 588.44 413.725 588.44 414.656ZM583.757 411.657C583.063 411.657 582.473 411.862 581.987 412.271C581.513 412.668 581.224 413.202 581.12 413.873H586.376C586.284 413.214 586 412.68 585.526 412.271C585.052 411.862 584.462 411.657 583.757 411.657Z" fill="#376BC3"/>
<path d="M38.9068 286.252C38.5163 285.861 37.8831 285.861 37.4926 286.252L31.1286 292.616C30.7381 293.006 30.7381 293.64 31.1286 294.03C31.5192 294.421 32.1523 294.421 32.5429 294.03L38.1997 288.373L43.8566 294.03C44.2471 294.421 44.8803 294.421 45.2708 294.03C45.6613 293.64 45.6613 293.006 45.2708 292.616L38.9068 286.252ZM37.4926 369.433C37.8831 369.823 38.5163 369.823 38.9068 369.433L45.2708 363.069C45.6613 362.678 45.6613 362.045 45.2708 361.654C44.8803 361.264 44.2471 361.264 43.8566 361.654L38.1997 367.311L32.5429 361.654C32.1523 361.264 31.5192 361.264 31.1286 361.654C30.7381 362.045 30.7381 362.678 31.1286 363.069L37.4926 369.433ZM37.1997 286.959L37.1997 368.725L39.1997 368.725L39.1997 286.959L37.1997 286.959Z" fill="#C4C4C4"/>
<path d="M414.828 286.252C414.437 285.861 413.804 285.861 413.414 286.252L407.05 292.616C406.659 293.006 406.659 293.64 407.05 294.03C407.44 294.421 408.073 294.421 408.464 294.03L414.121 288.373L419.778 294.03C420.168 294.421 420.801 294.421 421.192 294.03C421.582 293.64 421.582 293.006 421.192 292.616L414.828 286.252ZM413.414 369.433C413.804 369.823 414.437 369.823 414.828 369.433L421.192 363.069C421.582 362.678 421.582 362.045 421.192 361.654C420.801 361.264 420.168 361.264 419.778 361.654L414.121 367.311L408.464 361.654C408.073 361.264 407.44 361.264 407.05 361.654C406.659 362.045 406.659 362.678 407.05 363.069L413.414 369.433ZM413.121 286.959L413.121 368.725L415.121 368.725L415.121 286.959L413.121 286.959Z" fill="#C4C4C4"/>
<g clip-path="url(#clip0_88_91)">
<path d="M419.394 38.085C416.654 38.0875 413.969 38.8302 411.633 40.2311C409.298 41.6321 407.404 43.6368 406.161 46.0238C405.052 45.5824 403.866 45.3546 402.669 45.3531C400.421 45.3558 398.251 46.1553 396.56 47.6033C394.868 49.0513 393.771 51.0497 393.472 53.2281C391.278 53.965 389.373 55.3529 388.024 57.1984C386.675 59.0438 385.948 61.2548 385.944 63.5234C385.944 66.4148 387.119 69.1878 389.21 71.2324C391.301 73.277 394.137 74.4256 397.094 74.4256H430.544C433.501 74.4256 436.337 73.277 438.428 71.2324C440.519 69.1878 441.694 66.4148 441.694 63.5234C441.691 61.2658 440.971 59.0649 439.633 57.2246C438.296 55.3843 436.407 53.9953 434.228 53.2494C434.244 53.0402 434.255 52.8308 434.261 52.6212C434.261 48.766 432.695 45.0686 429.907 42.3425C427.118 39.6165 423.337 38.085 419.394 38.085Z" fill="#376BC3"/>
</g>
<g clip-path="url(#clip1_88_91)">
<path d="M435.15 240.691C435.159 240.479 435.182 240.271 435.182 240.055C435.182 231.845 428.525 225.188 420.315 225.188C414.536 225.188 409.537 228.494 407.078 233.311C405.999 232.875 404.826 232.622 403.59 232.622C398.889 232.622 395.044 236.125 394.425 240.657C390.03 242.153 386.865 246.305 386.865 251.205C386.865 257.364 391.857 262.355 398.015 262.355H431.465C437.624 262.355 442.615 257.364 442.615 251.205C442.615 246.34 439.495 242.214 435.15 240.691ZM415.285 244.316L420.86 238.741C421.222 238.379 421.698 238.197 422.173 238.197C422.649 238.197 423.125 238.379 423.487 238.741L429.062 244.316C429.789 245.043 429.789 246.217 429.062 246.944C428.336 247.671 427.161 247.671 426.435 246.944L424.032 244.541V254.922C424.032 255.948 423.201 256.78 422.173 256.78C421.146 256.78 420.315 255.948 420.315 254.922V244.541L417.912 246.944C417.186 247.671 416.011 247.671 415.285 246.944C414.558 246.217 414.558 245.043 415.285 244.316ZM412.337 250.661L406.762 256.236C406.4 256.598 405.924 256.78 405.449 256.78C404.973 256.78 404.497 256.598 404.135 256.236L398.56 250.661C397.833 249.934 397.833 248.759 398.56 248.033C399.286 247.306 400.461 247.306 401.187 248.033L403.59 250.436V240.055C403.59 239.029 404.421 238.197 405.449 238.197C406.476 238.197 407.307 239.029 407.307 240.055V250.436L409.71 248.033C410.436 247.306 411.611 247.306 412.337 248.033C413.064 248.759 413.064 249.934 412.337 250.661Z" fill="#376BC3"/>
</g>
<path d="M795.34 286.252C794.949 285.861 794.316 285.861 793.926 286.252L787.562 292.616C787.171 293.006 787.171 293.64 787.562 294.03C787.952 294.421 788.585 294.421 788.976 294.03L794.633 288.373L800.29 294.03C800.68 294.421 801.313 294.421 801.704 294.03C802.094 293.64 802.094 293.006 801.704 292.616L795.34 286.252ZM793.926 369.433C794.316 369.823 794.949 369.823 795.34 369.433L801.704 363.069C802.094 362.678 802.094 362.045 801.704 361.654C801.313 361.264 800.68 361.264 800.29 361.654L794.633 367.311L788.976 361.654C788.585 361.264 787.952 361.264 787.562 361.654C787.171 362.045 787.171 362.678 787.562 363.069L793.926 369.433ZM793.633 286.959L793.633 368.725L795.633 368.725L795.633 286.959L793.633 286.959Z" fill="#C4C4C4"/>
<path d="M12.0853 187.8H16.8053C17.9893 187.8 19.0399 188.035 19.9573 188.504C20.8746 188.973 21.5839 189.635 22.0853 190.488C22.5973 191.331 22.8533 192.301 22.8533 193.4C22.8533 194.499 22.5973 195.475 22.0853 196.328C21.5839 197.171 20.8746 197.827 19.9573 198.296C19.0399 198.765 17.9893 199 16.8053 199H12.0853V187.8ZM16.7093 197.608C17.6159 197.608 18.4106 197.432 19.0933 197.08C19.7866 196.728 20.3199 196.237 20.6933 195.608C21.0666 194.968 21.2533 194.232 21.2533 193.4C21.2533 192.568 21.0666 191.837 20.6933 191.208C20.3199 190.568 19.7866 190.072 19.0933 189.72C18.4106 189.368 17.6159 189.192 16.7093 189.192H13.6853V197.608H16.7093ZM32.744 194.808C32.744 194.925 32.7334 195.08 32.712 195.272H25.832C25.928 196.019 26.2534 196.621 26.808 197.08C27.3734 197.528 28.072 197.752 28.904 197.752C29.9174 197.752 30.7334 197.411 31.352 196.728L32.2 197.72C31.816 198.168 31.336 198.509 30.76 198.744C30.1947 198.979 29.56 199.096 28.856 199.096C27.96 199.096 27.1654 198.915 26.472 198.552C25.7787 198.179 25.24 197.661 24.856 197C24.4827 196.339 24.296 195.592 24.296 194.76C24.296 193.939 24.4774 193.197 24.84 192.536C25.2134 191.875 25.72 191.363 26.36 191C27.0107 190.627 27.7414 190.44 28.552 190.44C29.3627 190.44 30.0827 190.627 30.712 191C31.352 191.363 31.848 191.875 32.2 192.536C32.5627 193.197 32.744 193.955 32.744 194.808ZM28.552 191.736C27.816 191.736 27.1974 191.96 26.696 192.408C26.2054 192.856 25.9174 193.443 25.832 194.168H31.272C31.1867 193.453 30.8934 192.872 30.392 192.424C29.9014 191.965 29.288 191.736 28.552 191.736ZM42.2246 190.52L38.5126 199H36.9446L33.2326 190.52H34.8326L37.7446 197.32L40.7206 190.52H42.2246ZM43.6581 190.52H45.1941V199H43.6581V190.52ZM44.4261 188.888C44.1275 188.888 43.8768 188.792 43.6741 188.6C43.4821 188.408 43.3861 188.173 43.3861 187.896C43.3861 187.619 43.4821 187.384 43.6741 187.192C43.8768 186.989 44.1275 186.888 44.4261 186.888C44.7248 186.888 44.9701 186.984 45.1621 187.176C45.3648 187.357 45.4661 187.587 45.4661 187.864C45.4661 188.152 45.3648 188.397 45.1621 188.6C44.9701 188.792 44.7248 188.888 44.4261 188.888ZM51.8229 199.096C50.9589 199.096 50.1856 198.909 49.5029 198.536C48.8309 198.163 48.3029 197.651 47.9189 197C47.5349 196.339 47.3429 195.592 47.3429 194.76C47.3429 193.928 47.5349 193.187 47.9189 192.536C48.3029 191.875 48.8309 191.363 49.5029 191C50.1856 190.627 50.9589 190.44 51.8229 190.44C52.5909 190.44 53.2736 190.595 53.8709 190.904C54.4789 191.213 54.9482 191.661 55.2789 192.248L54.1109 193C53.8442 192.595 53.5136 192.291 53.1189 192.088C52.7242 191.885 52.2869 191.784 51.8069 191.784C51.2522 191.784 50.7509 191.907 50.3029 192.152C49.8656 192.397 49.5189 192.749 49.2629 193.208C49.0176 193.656 48.8949 194.173 48.8949 194.76C48.8949 195.357 49.0176 195.885 49.2629 196.344C49.5189 196.792 49.8656 197.139 50.3029 197.384C50.7509 197.629 51.2522 197.752 51.8069 197.752C52.2869 197.752 52.7242 197.651 53.1189 197.448C53.5136 197.245 53.8442 196.941 54.1109 196.536L55.2789 197.272C54.9482 197.859 54.4789 198.312 53.8709 198.632C53.2736 198.941 52.5909 199.096 51.8229 199.096ZM64.8065 194.808C64.8065 194.925 64.7959 195.08 64.7745 195.272H57.8945C57.9905 196.019 58.3159 196.621 58.8705 197.08C59.4359 197.528 60.1345 197.752 60.9665 197.752C61.9799 197.752 62.7959 197.411 63.4145 196.728L64.2625 197.72C63.8785 198.168 63.3985 198.509 62.8225 198.744C62.2572 198.979 61.6225 199.096 60.9185 199.096C60.0225 199.096 59.2279 198.915 58.5345 198.552C57.8412 198.179 57.3025 197.661 56.9185 197C56.5452 196.339 56.3585 195.592 56.3585 194.76C56.3585 193.939 56.5399 193.197 56.9025 192.536C57.2759 191.875 57.7825 191.363 58.4225 191C59.0732 190.627 59.8039 190.44 60.6145 190.44C61.4252 190.44 62.1452 190.627 62.7745 191C63.4145 191.363 63.9105 191.875 64.2625 192.536C64.6252 193.197 64.8065 193.955 64.8065 194.808ZM60.6145 191.736C59.8785 191.736 59.2599 191.96 58.7585 192.408C58.2679 192.856 57.9799 193.443 57.8945 194.168H63.3345C63.2492 193.453 62.9559 192.872 62.4545 192.424C61.9639 191.965 61.3505 191.736 60.6145 191.736Z" fill="black"/>
<path d="M405.381 187.8V199H403.781V194.008H397.349V199H395.749V187.8H397.349V192.616H403.781V187.8H405.381ZM413.374 199.128C411.88 199.128 410.718 198.701 409.886 197.848C409.054 196.995 408.638 195.768 408.638 194.168V187.8H410.238V194.104C410.238 196.504 411.288 197.704 413.39 197.704C414.414 197.704 415.198 197.411 415.742 196.824C416.286 196.227 416.558 195.32 416.558 194.104V187.8H418.11V194.168C418.11 195.779 417.694 197.011 416.862 197.864C416.03 198.707 414.867 199.128 413.374 199.128ZM428.926 193.192C429.577 193.373 430.089 193.704 430.462 194.184C430.835 194.653 431.022 195.251 431.022 195.976C431.022 196.947 430.654 197.693 429.918 198.216C429.193 198.739 428.131 199 426.734 199H421.39V187.8H426.414C427.694 187.8 428.681 188.056 429.374 188.568C430.078 189.08 430.43 189.789 430.43 190.696C430.43 191.283 430.291 191.789 430.014 192.216C429.747 192.643 429.385 192.968 428.926 193.192ZM422.99 189.096V192.68H426.27C427.091 192.68 427.721 192.531 428.158 192.232C428.606 191.923 428.83 191.475 428.83 190.888C428.83 190.301 428.606 189.859 428.158 189.56C427.721 189.251 427.091 189.096 426.27 189.096H422.99ZM426.67 197.704C427.577 197.704 428.259 197.555 428.718 197.256C429.177 196.957 429.406 196.488 429.406 195.848C429.406 194.6 428.494 193.976 426.67 193.976H422.99V197.704H426.67Z" fill="black"/>
<path d="M390.102 23.128C388.982 23.128 387.969 22.8827 387.062 22.392C386.166 21.8907 385.462 21.208 384.95 20.344C384.438 19.4693 384.182 18.488 384.182 17.4C384.182 16.312 384.438 15.336 384.95 14.472C385.462 13.5973 386.171 12.9147 387.078 12.424C387.985 11.9227 388.998 11.672 390.118 11.672C390.993 11.672 391.793 11.8213 392.518 12.12C393.243 12.408 393.862 12.84 394.374 13.416L393.334 14.424C392.491 13.5387 391.441 13.096 390.182 13.096C389.35 13.096 388.598 13.2827 387.926 13.656C387.254 14.0293 386.726 14.5467 386.342 15.208C385.969 15.8587 385.782 16.5893 385.782 17.4C385.782 18.2107 385.969 18.9467 386.342 19.608C386.726 20.2587 387.254 20.7707 387.926 21.144C388.598 21.5173 389.35 21.704 390.182 21.704C391.43 21.704 392.481 21.256 393.334 20.36L394.374 21.368C393.862 21.944 393.238 22.3813 392.502 22.68C391.777 22.9787 390.977 23.128 390.102 23.128ZM396.657 11.8H398.257V21.608H404.321V23H396.657V11.8ZM411.009 23.128C409.879 23.128 408.86 22.8827 407.953 22.392C407.047 21.8907 406.332 21.2027 405.809 20.328C405.297 19.4533 405.041 18.4773 405.041 17.4C405.041 16.3227 405.297 15.3467 405.809 14.472C406.332 13.5973 407.047 12.9147 407.953 12.424C408.86 11.9227 409.879 11.672 411.009 11.672C412.129 11.672 413.143 11.9227 414.049 12.424C414.956 12.9147 415.665 13.5973 416.177 14.472C416.689 15.336 416.945 16.312 416.945 17.4C416.945 18.488 416.689 19.4693 416.177 20.344C415.665 21.208 414.956 21.8907 414.049 22.392C413.143 22.8827 412.129 23.128 411.009 23.128ZM411.009 21.704C411.831 21.704 412.567 21.5173 413.217 21.144C413.879 20.7707 414.396 20.2587 414.769 19.608C415.153 18.9467 415.345 18.2107 415.345 17.4C415.345 16.5893 415.153 15.8587 414.769 15.208C414.396 14.5467 413.879 14.0293 413.217 13.656C412.567 13.2827 411.831 13.096 411.009 13.096C410.188 13.096 409.441 13.2827 408.769 13.656C408.108 14.0293 407.585 14.5467 407.201 15.208C406.828 15.8587 406.641 16.5893 406.641 17.4C406.641 18.2107 406.828 18.9467 407.201 19.608C407.585 20.2587 408.108 20.7707 408.769 21.144C409.441 21.5173 410.188 21.704 411.009 21.704ZM424.031 23.128C422.538 23.128 421.375 22.7013 420.543 21.848C419.711 20.9947 419.295 19.768 419.295 18.168V11.8H420.895V18.104C420.895 20.504 421.946 21.704 424.047 21.704C425.071 21.704 425.855 21.4107 426.399 20.824C426.943 20.2267 427.215 19.32 427.215 18.104V11.8H428.767V18.168C428.767 19.7787 428.351 21.0107 427.519 21.864C426.687 22.7067 425.524 23.128 424.031 23.128ZM432.047 11.8H436.767C437.951 11.8 439.002 12.0347 439.919 12.504C440.837 12.9733 441.546 13.6347 442.047 14.488C442.559 15.3307 442.815 16.3013 442.815 17.4C442.815 18.4987 442.559 19.4747 442.047 20.328C441.546 21.1707 440.837 21.8267 439.919 22.296C439.002 22.7653 437.951 23 436.767 23H432.047V11.8ZM436.671 21.608C437.578 21.608 438.373 21.432 439.055 21.08C439.749 20.728 440.282 20.2373 440.655 19.608C441.029 18.968 441.215 18.232 441.215 17.4C441.215 16.568 441.029 15.8373 440.655 15.208C440.282 14.568 439.749 14.072 439.055 13.72C438.373 13.368 437.578 13.192 436.671 13.192H433.647V21.608H436.671Z" fill="black"/>
<path d="M769.085 187.8H773.805C774.989 187.8 776.04 188.035 776.957 188.504C777.875 188.973 778.584 189.635 779.085 190.488C779.597 191.331 779.853 192.301 779.853 193.4C779.853 194.499 779.597 195.475 779.085 196.328C778.584 197.171 777.875 197.827 776.957 198.296C776.04 198.765 774.989 199 773.805 199H769.085V187.8ZM773.709 197.608C774.616 197.608 775.411 197.432 776.093 197.08C776.787 196.728 777.32 196.237 777.693 195.608C778.067 194.968 778.253 194.232 778.253 193.4C778.253 192.568 778.067 191.837 777.693 191.208C777.32 190.568 776.787 190.072 776.093 189.72C775.411 189.368 774.616 189.192 773.709 189.192H770.685V197.608H773.709ZM789.744 194.808C789.744 194.925 789.733 195.08 789.712 195.272H782.832C782.928 196.019 783.253 196.621 783.808 197.08C784.373 197.528 785.072 197.752 785.904 197.752C786.917 197.752 787.733 197.411 788.352 196.728L789.2 197.72C788.816 198.168 788.336 198.509 787.76 198.744C787.195 198.979 786.56 199.096 785.856 199.096C784.96 199.096 784.165 198.915 783.472 198.552C782.779 198.179 782.24 197.661 781.856 197C781.483 196.339 781.296 195.592 781.296 194.76C781.296 193.939 781.477 193.197 781.84 192.536C782.213 191.875 782.72 191.363 783.36 191C784.011 190.627 784.741 190.44 785.552 190.44C786.363 190.44 787.083 190.627 787.712 191C788.352 191.363 788.848 191.875 789.2 192.536C789.563 193.197 789.744 193.955 789.744 194.808ZM785.552 191.736C784.816 191.736 784.197 191.96 783.696 192.408C783.205 192.856 782.917 193.443 782.832 194.168H788.272C788.187 193.453 787.893 192.872 787.392 192.424C786.901 191.965 786.288 191.736 785.552 191.736ZM799.225 190.52L795.513 199H793.945L790.233 190.52H791.833L794.745 197.32L797.721 190.52H799.225ZM800.658 190.52H802.194V199H800.658V190.52ZM801.426 188.888C801.127 188.888 800.877 188.792 800.674 188.6C800.482 188.408 800.386 188.173 800.386 187.896C800.386 187.619 800.482 187.384 800.674 187.192C800.877 186.989 801.127 186.888 801.426 186.888C801.725 186.888 801.97 186.984 802.162 187.176C802.365 187.357 802.466 187.587 802.466 187.864C802.466 188.152 802.365 188.397 802.162 188.6C801.97 188.792 801.725 188.888 801.426 188.888ZM808.823 199.096C807.959 199.096 807.186 198.909 806.503 198.536C805.831 198.163 805.303 197.651 804.919 197C804.535 196.339 804.343 195.592 804.343 194.76C804.343 193.928 804.535 193.187 804.919 192.536C805.303 191.875 805.831 191.363 806.503 191C807.186 190.627 807.959 190.44 808.823 190.44C809.591 190.44 810.274 190.595 810.871 190.904C811.479 191.213 811.948 191.661 812.279 192.248L811.111 193C810.844 192.595 810.514 192.291 810.119 192.088C809.724 191.885 809.287 191.784 808.807 191.784C808.252 191.784 807.751 191.907 807.303 192.152C806.866 192.397 806.519 192.749 806.263 193.208C806.018 193.656 805.895 194.173 805.895 194.76C805.895 195.357 806.018 195.885 806.263 196.344C806.519 196.792 806.866 197.139 807.303 197.384C807.751 197.629 808.252 197.752 808.807 197.752C809.287 197.752 809.724 197.651 810.119 197.448C810.514 197.245 810.844 196.941 811.111 196.536L812.279 197.272C811.948 197.859 811.479 198.312 810.871 198.632C810.274 198.941 809.591 199.096 808.823 199.096ZM821.807 194.808C821.807 194.925 821.796 195.08 821.775 195.272H814.895C814.991 196.019 815.316 196.621 815.871 197.08C816.436 197.528 817.135 197.752 817.967 197.752C818.98 197.752 819.796 197.411 820.415 196.728L821.263 197.72C820.879 198.168 820.399 198.509 819.823 198.744C819.257 198.979 818.623 199.096 817.919 199.096C817.023 199.096 816.228 198.915 815.535 198.552C814.841 198.179 814.303 197.661 813.919 197C813.545 196.339 813.359 195.592 813.359 194.76C813.359 193.939 813.54 193.197 813.903 192.536C814.276 191.875 814.783 191.363 815.423 191C816.073 190.627 816.804 190.44 817.615 190.44C818.425 190.44 819.145 190.627 819.775 191C820.415 191.363 820.911 191.875 821.263 192.536C821.625 193.197 821.807 193.955 821.807 194.808ZM817.615 191.736C816.879 191.736 816.26 191.96 815.759 192.408C815.268 192.856 814.98 193.443 814.895 194.168H820.335C820.249 193.453 819.956 192.872 819.455 192.424C818.964 191.965 818.351 191.736 817.615 191.736Z" fill="black"/>
<rect width="30" height="30" transform="translate(204.944 229)" fill="white"/>
<path d="M219.944 230.25C215.79 230.25 212.444 233.595 212.444 237.75V239C211.078 239 209.944 240.134 209.944 241.5V254C209.944 255.366 211.078 256.5 212.444 256.5H227.444C228.811 256.5 229.944 255.366 229.944 254V241.5C229.944 240.134 228.811 239 227.444 239V237.75C227.444 233.595 224.099 230.25 219.944 230.25ZM219.944 232.75C222.79 232.75 224.944 234.905 224.944 237.75V239H214.944V237.75C214.944 234.905 217.099 232.75 219.944 232.75ZM212.444 241.5H227.444V254H212.444V241.5ZM219.944 245.25C218.569 245.25 217.444 246.375 217.444 247.75C217.444 249.125 218.569 250.25 219.944 250.25C221.319 250.25 222.444 249.125 222.444 247.75C222.444 246.375 221.319 245.25 219.944 245.25Z" fill="#376BC3"/>
<rect width="30" height="30" transform="translate(596.944 229)" fill="white"/>
<path d="M611.944 230.25C607.79 230.25 604.444 233.595 604.444 237.75V239C603.078 239 601.944 240.134 601.944 241.5V254C601.944 255.366 603.078 256.5 604.444 256.5H619.444C620.811 256.5 621.944 255.366 621.944 254V241.5C621.944 240.134 620.811 239 619.444 239V237.75C619.444 233.595 616.099 230.25 611.944 230.25ZM611.944 232.75C614.79 232.75 616.944 234.905 616.944 237.75V239H606.944V237.75C606.944 234.905 609.099 232.75 611.944 232.75ZM604.444 241.5H619.444V254H604.444V241.5ZM611.944 245.25C610.569 245.25 609.444 246.375 609.444 247.75C609.444 249.125 610.569 250.25 611.944 250.25C613.319 250.25 614.444 249.125 614.444 247.75C614.444 246.375 613.319 245.25 611.944 245.25Z" fill="#376BC3"/>
<rect width="30" height="30" transform="translate(22.9443 313)" fill="white"/>
<path d="M41.6943 315.812C37.0581 315.812 33.2568 319.614 33.2568 324.25C33.2568 324.737 33.3374 325.166 33.4033 325.598L26.0205 332.951L25.7568 333.244V340.188H32.3193V337.375H35.1318V334.562H37.9443V331.779C39.0503 332.321 40.3394 332.688 41.6943 332.688C46.3306 332.688 50.1318 328.886 50.1318 324.25C50.1318 319.614 46.3306 315.812 41.6943 315.812ZM41.6943 317.688C45.3088 317.688 48.2568 320.635 48.2568 324.25C48.2568 327.865 45.3088 330.812 41.6943 330.812C40.5591 330.812 39.3909 330.479 38.501 329.992L38.2666 329.875H36.0693V332.688H33.2568V335.5H30.4443V338.312H27.6318V334.035L35.0439 326.594L35.3955 326.271L35.3076 325.773C35.2124 325.209 35.1318 324.708 35.1318 324.25C35.1318 320.635 38.0798 317.688 41.6943 317.688ZM43.5693 320.5C42.533 320.5 41.6943 321.339 41.6943 322.375C41.6943 323.411 42.533 324.25 43.5693 324.25C44.6057 324.25 45.4443 323.411 45.4443 322.375C45.4443 321.339 44.6057 320.5 43.5693 320.5Z" fill="#376BC3"/>
<rect width="30" height="30" transform="translate(398.944 313)" fill="white"/>
<path d="M417.694 315.812C413.058 315.812 409.257 319.614 409.257 324.25C409.257 324.737 409.337 325.166 409.403 325.598L402.021 332.951L401.757 333.244V340.188H408.319V337.375H411.132V334.562H413.944V331.779C415.05 332.321 416.339 332.688 417.694 332.688C422.331 332.688 426.132 328.886 426.132 324.25C426.132 319.614 422.331 315.812 417.694 315.812ZM417.694 317.688C421.309 317.688 424.257 320.635 424.257 324.25C424.257 327.865 421.309 330.812 417.694 330.812C416.559 330.812 415.391 330.479 414.501 329.992L414.267 329.875H412.069V332.688H409.257V335.5H406.444V338.312H403.632V334.035L411.044 326.594L411.396 326.271L411.308 325.773C411.212 325.209 411.132 324.708 411.132 324.25C411.132 320.635 414.08 317.688 417.694 317.688ZM419.569 320.5C418.533 320.5 417.694 321.339 417.694 322.375C417.694 323.411 418.533 324.25 419.569 324.25C420.606 324.25 421.444 323.411 421.444 322.375C421.444 321.339 420.606 320.5 419.569 320.5Z" fill="#376BC3"/>
<rect width="30" height="30" transform="translate(779.944 313)" fill="white"/>
<path d="M798.694 315.812C794.058 315.812 790.257 319.614 790.257 324.25C790.257 324.737 790.337 325.166 790.403 325.598L783.021 332.951L782.757 333.244V340.188H789.319V337.375H792.132V334.562H794.944V331.779C796.05 332.321 797.339 332.688 798.694 332.688C803.331 332.688 807.132 328.886 807.132 324.25C807.132 319.614 803.331 315.812 798.694 315.812ZM798.694 317.688C802.309 317.688 805.257 320.635 805.257 324.25C805.257 327.865 802.309 330.812 798.694 330.812C797.559 330.812 796.391 330.479 795.501 329.992L795.267 329.875H793.069V332.688H790.257V335.5H787.444V338.312H784.632V334.035L792.044 326.594L792.396 326.271L792.308 325.773C792.212 325.209 792.132 324.708 792.132 324.25C792.132 320.635 795.08 317.688 798.694 317.688ZM800.569 320.5C799.533 320.5 798.694 321.339 798.694 322.375C798.694 323.411 799.533 324.25 800.569 324.25C801.606 324.25 802.444 323.411 802.444 322.375C802.444 321.339 801.606 320.5 800.569 320.5Z" fill="#376BC3"/>
<rect x="348.944" y="117" width="129" height="20" fill="white"/>
<path d="M363.542 129.913H357.748L356.549 132.514H354.944L359.882 122.11H361.424L366.377 132.514H364.741L363.542 129.913ZM362.997 128.724L360.645 123.626L358.293 128.724H362.997Z" fill="black"/>
<path d="M372.255 122.11C373.668 122.11 374.779 122.432 375.589 123.076C376.399 123.72 376.804 124.607 376.804 125.737C376.804 126.866 376.399 127.753 375.589 128.397C374.779 129.041 373.668 129.363 372.255 129.363H369.561V132.514H368.003V122.11H372.255ZM372.209 128.07C373.195 128.07 373.948 127.872 374.467 127.476C374.986 127.069 375.246 126.49 375.246 125.737C375.246 124.984 374.986 124.409 374.467 124.013C373.948 123.607 373.195 123.403 372.209 123.403H369.561V128.07H372.209Z" fill="black"/>
<path d="M379.092 122.11H380.649V132.514H379.092V122.11Z" fill="black"/>
<path d="M391.165 120H392.52L387.38 134H386.025L391.165 120Z" fill="black"/>
<path d="M413.159 122.11L409.515 132.514H407.879L404.904 124.206L401.929 132.514H400.263L396.618 122.11H398.222L401.166 130.567L404.235 122.11H405.668L408.674 130.611L411.68 122.11H413.159Z" fill="black"/>
<path d="M421.684 128.62C421.684 128.729 421.673 128.873 421.653 129.051H414.955C415.049 129.745 415.365 130.304 415.905 130.73C416.456 131.146 417.136 131.355 417.946 131.355C418.932 131.355 419.727 131.038 420.329 130.403L421.154 131.325C420.78 131.741 420.313 132.058 419.752 132.276C419.202 132.494 418.584 132.603 417.899 132.603C417.027 132.603 416.253 132.435 415.578 132.098C414.903 131.751 414.379 131.27 414.005 130.656C413.642 130.042 413.46 129.348 413.46 128.575C413.46 127.812 413.636 127.124 413.989 126.51C414.353 125.895 414.846 125.42 415.469 125.083C416.103 124.736 416.814 124.563 417.603 124.563C418.392 124.563 419.093 124.736 419.706 125.083C420.329 125.42 420.812 125.895 421.154 126.51C421.507 127.124 421.684 127.827 421.684 128.62ZM417.603 125.766C416.887 125.766 416.284 125.975 415.796 126.391C415.319 126.807 415.038 127.352 414.955 128.025H420.251C420.168 127.362 419.882 126.822 419.394 126.406C418.917 125.979 418.32 125.766 417.603 125.766Z" fill="black"/>
<path d="M428.137 124.563C428.936 124.563 429.653 124.731 430.286 125.068C430.92 125.405 431.413 125.875 431.766 126.48C432.129 127.084 432.311 127.783 432.311 128.575C432.311 129.368 432.129 130.071 431.766 130.686C431.413 131.29 430.92 131.761 430.286 132.098C429.653 132.435 428.936 132.603 428.137 132.603C427.524 132.603 426.964 132.489 426.455 132.261C425.946 132.033 425.525 131.701 425.193 131.265V132.514H423.76V121.486H425.255V125.826C425.588 125.41 426.003 125.098 426.501 124.89C427 124.672 427.545 124.563 428.137 124.563ZM428.012 131.355C428.542 131.355 429.014 131.241 429.43 131.013C429.855 130.775 430.188 130.448 430.427 130.032C430.676 129.606 430.8 129.12 430.8 128.575C430.8 128.03 430.676 127.55 430.427 127.134C430.188 126.708 429.855 126.381 429.43 126.153C429.014 125.925 428.542 125.811 428.012 125.811C427.493 125.811 427.021 125.925 426.595 126.153C426.169 126.381 425.837 126.708 425.598 127.134C425.359 127.55 425.24 128.03 425.24 128.575C425.24 129.12 425.359 129.606 425.598 130.032C425.837 130.448 426.169 130.775 426.595 131.013C427.021 131.241 427.493 131.355 428.012 131.355Z" fill="black"/>
<path d="M438.785 124.563C439.834 124.563 440.664 124.855 441.277 125.439C441.9 126.014 442.212 126.861 442.212 127.981V132.514H440.716V128.144C440.716 127.381 440.524 126.807 440.14 126.42C439.756 126.034 439.206 125.841 438.489 125.841C437.679 125.841 437.041 126.069 436.573 126.524C436.106 126.97 435.872 127.614 435.872 128.456V132.514H434.377V121.486H435.872V125.752C436.184 125.375 436.589 125.083 437.087 124.875C437.596 124.667 438.162 124.563 438.785 124.563Z" fill="black"/>
<path d="M448.56 132.603C447.74 132.603 447.003 132.43 446.348 132.083C445.694 131.736 445.18 131.26 444.806 130.656C444.443 130.042 444.261 129.348 444.261 128.575C444.261 127.803 444.443 127.114 444.806 126.51C445.18 125.895 445.694 125.42 446.348 125.083C447.003 124.736 447.74 124.563 448.56 124.563C449.381 124.563 450.113 124.736 450.756 125.083C451.411 125.42 451.919 125.895 452.283 126.51C452.657 127.114 452.844 127.803 452.844 128.575C452.844 129.348 452.657 130.042 452.283 130.656C451.919 131.26 451.411 131.736 450.756 132.083C450.113 132.43 449.381 132.603 448.56 132.603ZM448.56 131.355C449.09 131.355 449.562 131.241 449.978 131.013C450.403 130.775 450.736 130.448 450.974 130.032C451.213 129.606 451.333 129.12 451.333 128.575C451.333 128.03 451.213 127.55 450.974 127.134C450.736 126.708 450.403 126.381 449.978 126.153C449.562 125.925 449.09 125.811 448.56 125.811C448.031 125.811 447.553 125.925 447.127 126.153C446.712 126.381 446.38 126.708 446.13 127.134C445.892 127.55 445.772 128.03 445.772 128.575C445.772 129.12 445.892 129.606 446.13 130.032C446.38 130.448 446.712 130.775 447.127 131.013C447.553 131.241 448.031 131.355 448.56 131.355Z" fill="black"/>
<path d="M458.447 132.603C457.627 132.603 456.89 132.43 456.235 132.083C455.581 131.736 455.067 131.26 454.693 130.656C454.33 130.042 454.148 129.348 454.148 128.575C454.148 127.803 454.33 127.114 454.693 126.51C455.067 125.895 455.581 125.42 456.235 125.083C456.89 124.736 457.627 124.563 458.447 124.563C459.267 124.563 459.999 124.736 460.643 125.083C461.297 125.42 461.806 125.895 462.17 126.51C462.543 127.114 462.73 127.803 462.73 128.575C462.73 129.348 462.543 130.042 462.17 130.656C461.806 131.26 461.297 131.736 460.643 132.083C459.999 132.43 459.267 132.603 458.447 132.603ZM458.447 131.355C458.977 131.355 459.449 131.241 459.864 131.013C460.29 130.775 460.622 130.448 460.861 130.032C461.1 129.606 461.22 129.12 461.22 128.575C461.22 128.03 461.1 127.55 460.861 127.134C460.622 126.708 460.29 126.381 459.864 126.153C459.449 125.925 458.977 125.811 458.447 125.811C457.918 125.811 457.44 125.925 457.014 126.153C456.599 126.381 456.266 126.708 456.017 127.134C455.778 127.55 455.659 128.03 455.659 128.575C455.659 129.12 455.778 129.606 456.017 130.032C456.266 130.448 456.599 130.775 457.014 131.013C457.44 131.241 457.918 131.355 458.447 131.355Z" fill="black"/>
<path d="M468.007 128.843L466.294 130.359V132.514H464.798V121.486H466.294V128.561L470.795 124.637H472.602L469.128 127.892L472.944 132.514H471.106L468.007 128.843Z" fill="black"/>
<defs>
<clipPath id="clip0_88_91">
<rect width="55.7498" height="54.5109" fill="white" transform="translate(385.944 29)"/>
</clipPath>
<clipPath id="clip1_88_91">
<rect width="55.7498" height="55.7498" fill="white" transform="translate(386.865 215.896)"/>
</clipPath>
</defs>
</svg>
