<svg width="1564" height="963" viewBox="0 0 1564 963" fill="none" xmlns="http://www.w3.org/2000/svg">
<rect x="44.5" y="153.588" width="195" height="195" fill="white" stroke="#376BC3" stroke-width="5"/>
<path d="M75.3121 260.376C72.9121 260.376 71.0401 259.712 69.6961 258.384C68.3681 257.056 67.7041 255.16 67.7041 252.696V243.288H71.5921V252.552C71.5921 255.56 72.8401 257.064 75.3361 257.064C76.5521 257.064 77.4801 256.704 78.1201 255.984C78.7601 255.248 79.0801 254.104 79.0801 252.552V243.288H82.9201V252.696C82.9201 255.16 82.2481 257.056 80.9041 258.384C79.5761 259.712 77.7121 260.376 75.3121 260.376Z" fill="black"/>
<path d="M103.37 243.288V260.088H100.178L91.8022 249.888V260.088H87.9622V243.288H91.1782L99.5302 253.488V243.288H103.37Z" fill="black"/>
<path d="M108.281 247.176H112.025V260.088H108.281V247.176ZM110.153 245.376C109.465 245.376 108.905 245.176 108.473 244.776C108.041 244.376 107.825 243.88 107.825 243.288C107.825 242.696 108.041 242.2 108.473 241.8C108.905 241.4 109.465 241.2 110.153 241.2C110.841 241.2 111.401 241.392 111.833 241.776C112.265 242.16 112.481 242.64 112.481 243.216C112.481 243.84 112.265 244.36 111.833 244.776C111.401 245.176 110.841 245.376 110.153 245.376Z" fill="black"/>
<path d="M116.964 243.288H124.596C126.42 243.288 128.028 243.64 129.42 244.344C130.828 245.032 131.916 246.008 132.684 247.272C133.468 248.536 133.86 250.008 133.86 251.688C133.86 253.368 133.468 254.84 132.684 256.104C131.916 257.368 130.828 258.352 129.42 259.056C128.028 259.744 126.42 260.088 124.596 260.088H116.964V243.288ZM124.404 256.896C126.084 256.896 127.42 256.432 128.412 255.504C129.42 254.56 129.924 253.288 129.924 251.688C129.924 250.088 129.42 248.824 128.412 247.896C127.42 246.952 126.084 246.48 124.404 246.48H120.852V256.896H124.404Z" fill="black"/>
<path d="M158.997 256.968V260.088H145.989V243.288H158.685V246.408H149.853V250.056H157.653V253.08H149.853V256.968H158.997Z" fill="black"/>
<path d="M163.29 243.288H170.922C172.746 243.288 174.354 243.64 175.746 244.344C177.154 245.032 178.242 246.008 179.01 247.272C179.794 248.536 180.186 250.008 180.186 251.688C180.186 253.368 179.794 254.84 179.01 256.104C178.242 257.368 177.154 258.352 175.746 259.056C174.354 259.744 172.746 260.088 170.922 260.088H163.29V243.288ZM170.73 256.896C172.41 256.896 173.746 256.432 174.738 255.504C175.746 254.56 176.25 253.288 176.25 251.688C176.25 250.088 175.746 248.824 174.738 247.896C173.746 246.952 172.41 246.48 170.73 246.48H167.178V256.896H170.73Z" fill="black"/>
<path d="M195.67 251.424H199.222V258.24C198.31 258.928 197.254 259.456 196.054 259.824C194.854 260.192 193.646 260.376 192.43 260.376C190.686 260.376 189.118 260.008 187.726 259.272C186.334 258.52 185.238 257.488 184.438 256.176C183.654 254.848 183.262 253.352 183.262 251.688C183.262 250.024 183.654 248.536 184.438 247.224C185.238 245.896 186.342 244.864 187.75 244.128C189.158 243.376 190.742 243 192.502 243C193.974 243 195.31 243.248 196.51 243.744C197.71 244.24 198.718 244.96 199.534 245.904L197.038 248.208C195.838 246.944 194.39 246.312 192.694 246.312C191.622 246.312 190.67 246.536 189.838 246.984C189.006 247.432 188.358 248.064 187.894 248.88C187.43 249.696 187.198 250.632 187.198 251.688C187.198 252.728 187.43 253.656 187.894 254.472C188.358 255.288 188.998 255.928 189.814 256.392C190.646 256.84 191.59 257.064 192.646 257.064C193.766 257.064 194.774 256.824 195.67 256.344V251.424Z" fill="black"/>
<path d="M217.042 256.968V260.088H204.034V243.288H216.73V246.408H207.898V250.056H215.698V253.08H207.898V256.968H217.042Z" fill="black"/>
<path d="M85.1828 75.968V79.088H72.1748V62.288H84.8708V65.408H76.0388V69.056H83.8388V72.08H76.0388V75.968H85.1828Z" fill="black"/>
<path d="M104.884 62.288V79.088H101.692L93.3164 68.888V79.088H89.4764V62.288H92.6924L101.044 72.488V62.288H104.884Z" fill="black"/>
<path d="M110.059 62.288H117.691C119.515 62.288 121.123 62.64 122.515 63.344C123.923 64.032 125.011 65.008 125.779 66.272C126.563 67.536 126.955 69.008 126.955 70.688C126.955 72.368 126.563 73.84 125.779 75.104C125.011 76.368 123.923 77.352 122.515 78.056C121.123 78.744 119.515 79.088 117.691 79.088H110.059V62.288ZM117.499 75.896C119.179 75.896 120.515 75.432 121.507 74.504C122.515 73.56 123.019 72.288 123.019 70.688C123.019 69.088 122.515 67.824 121.507 66.896C120.515 65.952 119.179 65.48 117.499 65.48H113.947V75.896H117.499Z" fill="black"/>
<path d="M138.359 62.288C139.847 62.288 141.135 62.536 142.223 63.032C143.327 63.528 144.175 64.232 144.767 65.144C145.359 66.056 145.655 67.136 145.655 68.384C145.655 69.616 145.359 70.696 144.767 71.624C144.175 72.536 143.327 73.24 142.223 73.736C141.135 74.216 139.847 74.456 138.359 74.456H134.975V79.088H131.087V62.288H138.359ZM138.143 71.288C139.311 71.288 140.199 71.04 140.807 70.544C141.415 70.032 141.719 69.312 141.719 68.384C141.719 67.44 141.415 66.72 140.807 66.224C140.199 65.712 139.311 65.456 138.143 65.456H134.975V71.288H138.143Z" fill="black"/>
<path d="M158.001 79.376C156.257 79.376 154.681 79 153.273 78.248C151.881 77.496 150.785 76.464 149.985 75.152C149.201 73.824 148.809 72.336 148.809 70.688C148.809 69.04 149.201 67.56 149.985 66.248C150.785 64.92 151.881 63.88 153.273 63.128C154.681 62.376 156.257 62 158.001 62C159.745 62 161.313 62.376 162.705 63.128C164.097 63.88 165.193 64.92 165.993 66.248C166.793 67.56 167.193 69.04 167.193 70.688C167.193 72.336 166.793 73.824 165.993 75.152C165.193 76.464 164.097 77.496 162.705 78.248C161.313 79 159.745 79.376 158.001 79.376ZM158.001 76.064C158.993 76.064 159.889 75.84 160.689 75.392C161.489 74.928 162.113 74.288 162.561 73.472C163.025 72.656 163.257 71.728 163.257 70.688C163.257 69.648 163.025 68.72 162.561 67.904C162.113 67.088 161.489 66.456 160.689 66.008C159.889 65.544 158.993 65.312 158.001 65.312C157.009 65.312 156.113 65.544 155.313 66.008C154.513 66.456 153.881 67.088 153.417 67.904C152.969 68.72 152.745 69.648 152.745 70.688C152.745 71.728 152.969 72.656 153.417 73.472C153.881 74.288 154.513 74.928 155.313 75.392C156.113 75.84 157.009 76.064 158.001 76.064Z" fill="black"/>
<path d="M171.315 62.288H175.203V79.088H171.315V62.288Z" fill="black"/>
<path d="M195.798 62.288V79.088H192.606L184.23 68.888V79.088H180.39V62.288H183.606L191.958 72.488V62.288H195.798Z" fill="black"/>
<path d="M204.453 65.456H199.077V62.288H213.717V65.456H208.341V79.088H204.453V65.456Z" fill="black"/>
<path d="M85.3256 91.288H92.9576C94.7816 91.288 96.3896 91.64 97.7816 92.344C99.1896 93.032 100.278 94.008 101.046 95.272C101.83 96.536 102.222 98.008 102.222 99.688C102.222 101.368 101.83 102.84 101.046 104.104C100.278 105.368 99.1896 106.352 97.7816 107.056C96.3896 107.744 94.7816 108.088 92.9576 108.088H85.3256V91.288ZM92.7656 104.896C94.4456 104.896 95.7816 104.432 96.7736 103.504C97.7816 102.56 98.2856 101.288 98.2856 99.688C98.2856 98.088 97.7816 96.824 96.7736 95.896C95.7816 94.952 94.4456 94.48 92.7656 94.48H89.2136V104.896H92.7656Z" fill="black"/>
<path d="M119.362 104.968V108.088H106.354V91.288H119.05V94.408H110.218V98.056H118.018V101.08H110.218V104.968H119.362Z" fill="black"/>
<path d="M139.573 91.288L132.301 108.088H128.461L121.213 91.288H125.413L130.525 103.288L135.709 91.288H139.573Z" fill="black"/>
<path d="M142.176 91.288H146.064V108.088H142.176V91.288Z" fill="black"/>
<path d="M159.291 108.376C157.579 108.376 156.027 108.008 154.635 107.272C153.259 106.52 152.171 105.488 151.371 104.176C150.587 102.848 150.195 101.352 150.195 99.688C150.195 98.024 150.587 96.536 151.371 95.224C152.171 93.896 153.259 92.864 154.635 92.128C156.027 91.376 157.587 91 159.315 91C160.771 91 162.083 91.256 163.251 91.768C164.435 92.28 165.427 93.016 166.227 93.976L163.731 96.28C162.595 94.968 161.187 94.312 159.507 94.312C158.467 94.312 157.539 94.544 156.723 95.008C155.907 95.456 155.267 96.088 154.803 96.904C154.355 97.72 154.131 98.648 154.131 99.688C154.131 100.728 154.355 101.656 154.803 102.472C155.267 103.288 155.907 103.928 156.723 104.392C157.539 104.84 158.467 105.064 159.507 105.064C161.187 105.064 162.595 104.4 163.731 103.072L166.227 105.376C165.427 106.352 164.435 107.096 163.251 107.608C162.067 108.12 160.747 108.376 159.291 108.376Z" fill="black"/>
<path d="M183.06 104.968V108.088H170.052V91.288H182.748V94.408H173.916V98.056H181.716V101.08H173.916V104.968H183.06Z" fill="black"/>
<path d="M192.874 108.376C191.546 108.376 190.258 108.2 189.01 107.848C187.778 107.48 186.786 107.008 186.034 106.432L187.354 103.504C188.074 104.032 188.93 104.456 189.922 104.776C190.914 105.096 191.906 105.256 192.898 105.256C194.002 105.256 194.818 105.096 195.346 104.776C195.874 104.44 196.138 104 196.138 103.456C196.138 103.056 195.978 102.728 195.658 102.472C195.354 102.2 194.954 101.984 194.458 101.824C193.978 101.664 193.322 101.488 192.49 101.296C191.21 100.992 190.162 100.688 189.346 100.384C188.53 100.08 187.826 99.592 187.234 98.92C186.658 98.248 186.37 97.352 186.37 96.232C186.37 95.256 186.634 94.376 187.162 93.592C187.69 92.792 188.482 92.16 189.538 91.696C190.61 91.232 191.914 91 193.45 91C194.522 91 195.57 91.128 196.594 91.384C197.618 91.64 198.514 92.008 199.282 92.488L198.082 95.44C196.53 94.56 194.978 94.12 193.426 94.12C192.338 94.12 191.53 94.296 191.002 94.648C190.49 95 190.234 95.464 190.234 96.04C190.234 96.616 190.53 97.048 191.122 97.336C191.73 97.608 192.65 97.88 193.882 98.152C195.162 98.456 196.21 98.76 197.026 99.064C197.842 99.368 198.538 99.848 199.114 100.504C199.706 101.16 200.002 102.048 200.002 103.168C200.002 104.128 199.73 105.008 199.186 105.808C198.658 106.592 197.858 107.216 196.786 107.68C195.714 108.144 194.41 108.376 192.874 108.376Z" fill="black"/>
<path d="M284.839 511.968V515.088H271.831V498.288H284.527V501.408H275.695V505.056H283.495V508.08H275.695V511.968H284.839Z" fill="black"/>
<path d="M300.535 511.92V515.088H287.839V512.568L294.319 506.448C295.007 505.792 295.471 505.232 295.711 504.768C295.951 504.288 296.071 503.816 296.071 503.352C296.071 502.68 295.839 502.168 295.375 501.816C294.927 501.448 294.263 501.264 293.383 501.264C292.647 501.264 291.983 501.408 291.391 501.696C290.799 501.968 290.303 502.384 289.903 502.944L287.071 501.12C287.727 500.144 288.631 499.384 289.783 498.84C290.935 498.28 292.255 498 293.743 498C294.991 498 296.079 498.208 297.007 498.624C297.951 499.024 298.679 499.6 299.191 500.352C299.719 501.088 299.983 501.96 299.983 502.968C299.983 503.88 299.791 504.736 299.407 505.536C299.023 506.336 298.279 507.248 297.175 508.272L293.311 511.92H300.535Z" fill="black"/>
<path d="M317.403 511.968V515.088H304.395V498.288H317.091V501.408H308.259V505.056H316.059V508.08H308.259V511.968H317.403Z" fill="black"/>
<path d="M335.214 515.376C333.886 515.376 332.598 515.2 331.35 514.848C330.118 514.48 329.126 514.008 328.374 513.432L329.694 510.504C330.414 511.032 331.27 511.456 332.262 511.776C333.254 512.096 334.246 512.256 335.238 512.256C336.342 512.256 337.158 512.096 337.686 511.776C338.214 511.44 338.478 511 338.478 510.456C338.478 510.056 338.318 509.728 337.998 509.472C337.694 509.2 337.294 508.984 336.798 508.824C336.318 508.664 335.662 508.488 334.83 508.296C333.55 507.992 332.502 507.688 331.686 507.384C330.87 507.08 330.166 506.592 329.574 505.92C328.998 505.248 328.71 504.352 328.71 503.232C328.71 502.256 328.974 501.376 329.502 500.592C330.03 499.792 330.822 499.16 331.878 498.696C332.95 498.232 334.254 498 335.79 498C336.862 498 337.91 498.128 338.934 498.384C339.958 498.64 340.854 499.008 341.622 499.488L340.422 502.44C338.87 501.56 337.318 501.12 335.766 501.12C334.678 501.12 333.87 501.296 333.342 501.648C332.83 502 332.574 502.464 332.574 503.04C332.574 503.616 332.87 504.048 333.462 504.336C334.07 504.608 334.99 504.88 336.222 505.152C337.502 505.456 338.55 505.76 339.366 506.064C340.182 506.368 340.878 506.848 341.454 507.504C342.046 508.16 342.342 509.048 342.342 510.168C342.342 511.128 342.07 512.008 341.526 512.808C340.998 513.592 340.198 514.216 339.126 514.68C338.054 515.144 336.75 515.376 335.214 515.376Z" fill="black"/>
<path d="M358.582 508.68C358.582 508.728 358.558 509.064 358.51 509.688H348.742C348.918 510.488 349.334 511.12 349.99 511.584C350.646 512.048 351.462 512.28 352.438 512.28C353.11 512.28 353.702 512.184 354.214 511.992C354.742 511.784 355.23 511.464 355.678 511.032L357.67 513.192C356.454 514.584 354.678 515.28 352.342 515.28C350.886 515.28 349.598 515 348.478 514.44C347.358 513.864 346.494 513.072 345.886 512.064C345.278 511.056 344.974 509.912 344.974 508.632C344.974 507.368 345.27 506.232 345.862 505.224C346.47 504.2 347.294 503.408 348.334 502.848C349.39 502.272 350.566 501.984 351.862 501.984C353.126 501.984 354.27 502.256 355.294 502.8C356.318 503.344 357.118 504.128 357.694 505.152C358.286 506.16 358.582 507.336 358.582 508.68ZM351.886 504.816C351.038 504.816 350.326 505.056 349.75 505.536C349.174 506.016 348.822 506.672 348.694 507.504H355.054C354.926 506.688 354.574 506.04 353.998 505.56C353.422 505.064 352.718 504.816 351.886 504.816Z" fill="black"/>
<path d="M368.515 515.28C367.139 515.28 365.899 515 364.795 514.44C363.707 513.864 362.851 513.072 362.227 512.064C361.619 511.056 361.315 509.912 361.315 508.632C361.315 507.352 361.619 506.208 362.227 505.2C362.851 504.192 363.707 503.408 364.795 502.848C365.899 502.272 367.139 501.984 368.515 501.984C369.875 501.984 371.059 502.272 372.067 502.848C373.091 503.408 373.835 504.216 374.299 505.272L371.395 506.832C370.723 505.648 369.755 505.056 368.491 505.056C367.515 505.056 366.707 505.376 366.067 506.016C365.427 506.656 365.107 507.528 365.107 508.632C365.107 509.736 365.427 510.608 366.067 511.248C366.707 511.888 367.515 512.208 368.491 512.208C369.771 512.208 370.739 511.616 371.395 510.432L374.299 512.016C373.835 513.04 373.091 513.84 372.067 514.416C371.059 514.992 369.875 515.28 368.515 515.28Z" fill="black"/>
<path d="M390.663 502.176V515.088H387.111V513.552C386.615 514.112 386.023 514.544 385.335 514.848C384.647 515.136 383.903 515.28 383.103 515.28C381.407 515.28 380.063 514.792 379.071 513.816C378.079 512.84 377.583 511.392 377.583 509.472V502.176H381.327V508.92C381.327 511 382.199 512.04 383.943 512.04C384.839 512.04 385.559 511.752 386.103 511.176C386.647 510.584 386.919 509.712 386.919 508.56V502.176H390.663Z" fill="black"/>
<path d="M398.907 503.88C399.355 503.256 399.955 502.784 400.707 502.464C401.475 502.144 402.355 501.984 403.347 501.984V505.44C402.931 505.408 402.651 505.392 402.507 505.392C401.435 505.392 400.595 505.696 399.987 506.304C399.379 506.896 399.075 507.792 399.075 508.992V515.088H395.331V502.176H398.907V503.88Z" fill="black"/>
<path d="M419.304 508.68C419.304 508.728 419.28 509.064 419.232 509.688H409.464C409.64 510.488 410.056 511.12 410.712 511.584C411.368 512.048 412.184 512.28 413.16 512.28C413.832 512.28 414.424 512.184 414.936 511.992C415.464 511.784 415.952 511.464 416.4 511.032L418.392 513.192C417.176 514.584 415.4 515.28 413.064 515.28C411.608 515.28 410.32 515 409.2 514.44C408.08 513.864 407.216 513.072 406.608 512.064C406 511.056 405.696 509.912 405.696 508.632C405.696 507.368 405.992 506.232 406.584 505.224C407.192 504.2 408.016 503.408 409.056 502.848C410.112 502.272 411.288 501.984 412.584 501.984C413.848 501.984 414.992 502.256 416.016 502.8C417.04 503.344 417.84 504.128 418.416 505.152C419.008 506.16 419.304 507.336 419.304 508.68ZM412.608 504.816C411.76 504.816 411.048 505.056 410.472 505.536C409.896 506.016 409.544 506.672 409.416 507.504H415.776C415.648 506.688 415.296 506.04 414.72 505.56C414.144 505.064 413.44 504.816 412.608 504.816Z" fill="black"/>
<path d="M439.298 515.376C437.586 515.376 436.034 515.008 434.642 514.272C433.266 513.52 432.178 512.488 431.378 511.176C430.594 509.848 430.202 508.352 430.202 506.688C430.202 505.024 430.594 503.536 431.378 502.224C432.178 500.896 433.266 499.864 434.642 499.128C436.034 498.376 437.594 498 439.322 498C440.778 498 442.09 498.256 443.258 498.768C444.442 499.28 445.434 500.016 446.234 500.976L443.738 503.28C442.602 501.968 441.194 501.312 439.514 501.312C438.474 501.312 437.546 501.544 436.73 502.008C435.914 502.456 435.274 503.088 434.81 503.904C434.362 504.72 434.138 505.648 434.138 506.688C434.138 507.728 434.362 508.656 434.81 509.472C435.274 510.288 435.914 510.928 436.73 511.392C437.546 511.84 438.474 512.064 439.514 512.064C441.194 512.064 442.602 511.4 443.738 510.072L446.234 512.376C445.434 513.352 444.442 514.096 443.258 514.608C442.074 515.12 440.754 515.376 439.298 515.376Z" fill="black"/>
<path d="M457.643 501.984C459.243 501.984 460.531 502.464 461.507 503.424C462.499 504.384 462.995 505.808 462.995 507.696V515.088H459.251V508.272C459.251 507.248 459.027 506.488 458.579 505.992C458.131 505.48 457.483 505.224 456.635 505.224C455.691 505.224 454.939 505.52 454.379 506.112C453.819 506.688 453.539 507.552 453.539 508.704V515.088H449.795V497.28H453.539V503.52C454.035 503.024 454.635 502.648 455.339 502.392C456.043 502.12 456.811 501.984 457.643 501.984Z" fill="black"/>
<path d="M472.797 501.984C474.797 501.984 476.333 502.464 477.405 503.424C478.477 504.368 479.013 505.8 479.013 507.72V515.088H475.509V513.48C474.805 514.68 473.493 515.28 471.573 515.28C470.581 515.28 469.717 515.112 468.981 514.776C468.261 514.44 467.709 513.976 467.325 513.384C466.941 512.792 466.749 512.12 466.749 511.368C466.749 510.168 467.197 509.224 468.093 508.536C469.005 507.848 470.405 507.504 472.293 507.504H475.269C475.269 506.688 475.021 506.064 474.525 505.632C474.029 505.184 473.285 504.96 472.293 504.96C471.605 504.96 470.925 505.072 470.253 505.296C469.597 505.504 469.037 505.792 468.573 506.16L467.229 503.544C467.933 503.048 468.773 502.664 469.749 502.392C470.741 502.12 471.757 501.984 472.797 501.984ZM472.509 512.76C473.149 512.76 473.717 512.616 474.213 512.328C474.709 512.024 475.061 511.584 475.269 511.008V509.688H472.701C471.165 509.688 470.397 510.192 470.397 511.2C470.397 511.68 470.581 512.064 470.949 512.352C471.333 512.624 471.853 512.76 472.509 512.76Z" fill="black"/>
<path d="M491.449 501.984C493.049 501.984 494.337 502.464 495.313 503.424C496.305 504.384 496.801 505.808 496.801 507.696V515.088H493.057V508.272C493.057 507.248 492.833 506.488 492.385 505.992C491.937 505.48 491.289 505.224 490.441 505.224C489.497 505.224 488.745 505.52 488.185 506.112C487.625 506.688 487.345 507.552 487.345 508.704V515.088H483.601V502.176H487.177V503.688C487.673 503.144 488.289 502.728 489.025 502.44C489.761 502.136 490.569 501.984 491.449 501.984Z" fill="black"/>
<path d="M509.243 501.984C510.843 501.984 512.131 502.464 513.107 503.424C514.099 504.384 514.595 505.808 514.595 507.696V515.088H510.851V508.272C510.851 507.248 510.627 506.488 510.179 505.992C509.731 505.48 509.083 505.224 508.235 505.224C507.291 505.224 506.539 505.52 505.979 506.112C505.419 506.688 505.139 507.552 505.139 508.704V515.088H501.395V502.176H504.971V503.688C505.467 503.144 506.083 502.728 506.819 502.44C507.555 502.136 508.363 501.984 509.243 501.984Z" fill="black"/>
<path d="M531.978 508.68C531.978 508.728 531.954 509.064 531.906 509.688H522.138C522.314 510.488 522.73 511.12 523.386 511.584C524.042 512.048 524.858 512.28 525.834 512.28C526.506 512.28 527.098 512.184 527.61 511.992C528.138 511.784 528.626 511.464 529.074 511.032L531.066 513.192C529.85 514.584 528.074 515.28 525.738 515.28C524.282 515.28 522.994 515 521.874 514.44C520.754 513.864 519.89 513.072 519.282 512.064C518.674 511.056 518.37 509.912 518.37 508.632C518.37 507.368 518.666 506.232 519.258 505.224C519.866 504.2 520.69 503.408 521.73 502.848C522.786 502.272 523.962 501.984 525.258 501.984C526.522 501.984 527.666 502.256 528.69 502.8C529.714 503.344 530.514 504.128 531.09 505.152C531.682 506.16 531.978 507.336 531.978 508.68ZM525.282 504.816C524.434 504.816 523.722 505.056 523.146 505.536C522.57 506.016 522.218 506.672 522.09 507.504H528.45C528.322 506.688 527.97 506.04 527.394 505.56C526.818 505.064 526.114 504.816 525.282 504.816Z" fill="black"/>
<path d="M535.67 497.28H539.414V515.088H535.67V497.28Z" fill="black"/>
<path d="M1069.45 511.488H1061.65L1060.16 515.088H1056.18L1063.66 498.288H1067.5L1075.02 515.088H1070.94L1069.45 511.488ZM1068.22 508.536L1065.56 502.104L1062.9 508.536H1068.22Z" fill="black"/>
<path d="M1085.23 498.288C1086.72 498.288 1088.01 498.536 1089.09 499.032C1090.2 499.528 1091.05 500.232 1091.64 501.144C1092.23 502.056 1092.53 503.136 1092.53 504.384C1092.53 505.616 1092.23 506.696 1091.64 507.624C1091.05 508.536 1090.2 509.24 1089.09 509.736C1088.01 510.216 1086.72 510.456 1085.23 510.456H1081.85V515.088H1077.96V498.288H1085.23ZM1085.01 507.288C1086.18 507.288 1087.07 507.04 1087.68 506.544C1088.29 506.032 1088.59 505.312 1088.59 504.384C1088.59 503.44 1088.29 502.72 1087.68 502.224C1087.07 501.712 1086.18 501.456 1085.01 501.456H1081.85V507.288H1085.01Z" fill="black"/>
<path d="M1096.5 498.288H1100.39V515.088H1096.5V498.288Z" fill="black"/>
<path d="M1106.75 510.624C1107.43 510.624 1107.98 510.84 1108.41 511.272C1108.84 511.688 1109.06 512.24 1109.06 512.928C1109.06 513.248 1109.02 513.568 1108.94 513.888C1108.86 514.208 1108.68 514.688 1108.41 515.328L1107.04 518.784H1104.67L1105.72 514.968C1105.32 514.808 1105 514.552 1104.76 514.2C1104.54 513.832 1104.43 513.408 1104.43 512.928C1104.43 512.24 1104.64 511.688 1105.07 511.272C1105.52 510.84 1106.08 510.624 1106.75 510.624Z" fill="black"/>
<path d="M1146.45 498.288L1140.95 515.088H1136.78L1133.08 503.712L1129.26 515.088H1125.11L1119.59 498.288H1123.62L1127.42 510.096L1131.38 498.288H1134.98L1138.82 510.192L1142.73 498.288H1146.45Z" fill="black"/>
<path d="M1161.24 508.68C1161.24 508.728 1161.22 509.064 1161.17 509.688H1151.4C1151.58 510.488 1151.99 511.12 1152.65 511.584C1153.31 512.048 1154.12 512.28 1155.1 512.28C1155.77 512.28 1156.36 512.184 1156.87 511.992C1157.4 511.784 1157.89 511.464 1158.34 511.032L1160.33 513.192C1159.11 514.584 1157.34 515.28 1155 515.28C1153.55 515.28 1152.26 515 1151.14 514.44C1150.02 513.864 1149.15 513.072 1148.55 512.064C1147.94 511.056 1147.63 509.912 1147.63 508.632C1147.63 507.368 1147.93 506.232 1148.52 505.224C1149.13 504.2 1149.95 503.408 1150.99 502.848C1152.05 502.272 1153.23 501.984 1154.52 501.984C1155.79 501.984 1156.93 502.256 1157.95 502.8C1158.98 503.344 1159.78 504.128 1160.35 505.152C1160.95 506.16 1161.24 507.336 1161.24 508.68ZM1154.55 504.816C1153.7 504.816 1152.99 505.056 1152.41 505.536C1151.83 506.016 1151.48 506.672 1151.35 507.504H1157.71C1157.59 506.688 1157.23 506.04 1156.66 505.56C1156.08 505.064 1155.38 504.816 1154.55 504.816Z" fill="black"/>
<path d="M1172.57 501.984C1173.77 501.984 1174.85 502.264 1175.83 502.824C1176.82 503.368 1177.6 504.144 1178.16 505.152C1178.72 506.144 1179 507.304 1179 508.632C1179 509.96 1178.72 511.128 1178.16 512.136C1177.6 513.128 1176.82 513.904 1175.83 514.464C1174.85 515.008 1173.77 515.28 1172.57 515.28C1170.79 515.28 1169.44 514.72 1168.51 513.6V515.088H1164.93V497.28H1168.68V503.544C1169.62 502.504 1170.92 501.984 1172.57 501.984ZM1171.92 512.208C1172.88 512.208 1173.66 511.888 1174.27 511.248C1174.89 510.592 1175.21 509.72 1175.21 508.632C1175.21 507.544 1174.89 506.68 1174.27 506.04C1173.66 505.384 1172.88 505.056 1171.92 505.056C1170.96 505.056 1170.17 505.384 1169.54 506.04C1168.93 506.68 1168.63 507.544 1168.63 508.632C1168.63 509.72 1168.93 510.592 1169.54 511.248C1170.17 511.888 1170.96 512.208 1171.92 512.208Z" fill="black"/>
<path d="M1190.55 501.984C1192.15 501.984 1193.44 502.464 1194.42 503.424C1195.41 504.384 1195.9 505.808 1195.9 507.696V515.088H1192.16V508.272C1192.16 507.248 1191.94 506.488 1191.49 505.992C1191.04 505.48 1190.39 505.224 1189.54 505.224C1188.6 505.224 1187.85 505.52 1187.29 506.112C1186.73 506.688 1186.45 507.552 1186.45 508.704V515.088H1182.7V497.28H1186.45V503.52C1186.94 503.024 1187.54 502.648 1188.25 502.392C1188.95 502.12 1189.72 501.984 1190.55 501.984Z" fill="black"/>
<path d="M1206.78 515.28C1205.42 515.28 1204.2 515 1203.11 514.44C1202.04 513.864 1201.2 513.072 1200.59 512.064C1199.98 511.056 1199.68 509.912 1199.68 508.632C1199.68 507.352 1199.98 506.208 1200.59 505.2C1201.2 504.192 1202.04 503.408 1203.11 502.848C1204.2 502.272 1205.42 501.984 1206.78 501.984C1208.14 501.984 1209.36 502.272 1210.43 502.848C1211.5 503.408 1212.34 504.192 1212.95 505.2C1213.56 506.208 1213.86 507.352 1213.86 508.632C1213.86 509.912 1213.56 511.056 1212.95 512.064C1212.34 513.072 1211.5 513.864 1210.43 514.44C1209.36 515 1208.14 515.28 1206.78 515.28ZM1206.78 512.208C1207.74 512.208 1208.53 511.888 1209.13 511.248C1209.76 510.592 1210.07 509.72 1210.07 508.632C1210.07 507.544 1209.76 506.68 1209.13 506.04C1208.53 505.384 1207.74 505.056 1206.78 505.056C1205.82 505.056 1205.03 505.384 1204.41 506.04C1203.78 506.68 1203.47 507.544 1203.47 508.632C1203.47 509.72 1203.78 510.592 1204.41 511.248C1205.03 511.888 1205.82 512.208 1206.78 512.208Z" fill="black"/>
<path d="M1223.71 515.28C1222.35 515.28 1221.13 515 1220.04 514.44C1218.97 513.864 1218.13 513.072 1217.52 512.064C1216.91 511.056 1216.61 509.912 1216.61 508.632C1216.61 507.352 1216.91 506.208 1217.52 505.2C1218.13 504.192 1218.97 503.408 1220.04 502.848C1221.13 502.272 1222.35 501.984 1223.71 501.984C1225.07 501.984 1226.29 502.272 1227.36 502.848C1228.43 503.408 1229.27 504.192 1229.88 505.2C1230.49 506.208 1230.79 507.352 1230.79 508.632C1230.79 509.912 1230.49 511.056 1229.88 512.064C1229.27 513.072 1228.43 513.864 1227.36 514.44C1226.29 515 1225.07 515.28 1223.71 515.28ZM1223.71 512.208C1224.67 512.208 1225.45 511.888 1226.06 511.248C1226.69 510.592 1227 509.72 1227 508.632C1227 507.544 1226.69 506.68 1226.06 506.04C1225.45 505.384 1224.67 505.056 1223.71 505.056C1222.75 505.056 1221.96 505.384 1221.33 506.04C1220.71 506.68 1220.4 507.544 1220.4 508.632C1220.4 509.72 1220.71 510.592 1221.33 511.248C1221.96 511.888 1222.75 512.208 1223.71 512.208Z" fill="black"/>
<path d="M1240.04 510.024L1238.24 511.8V515.088H1234.49V497.28H1238.24V507.36L1243.71 502.176H1248.17L1242.8 507.648L1248.65 515.088H1244.12L1240.04 510.024Z" fill="black"/>
<path d="M300.989 259.729L299.295 262.349L288.372 255.284L297.496 241.178L308.156 248.072L306.462 250.692L299.046 245.896L297.065 248.959L303.614 253.195L301.972 255.734L295.422 251.498L293.311 254.763L300.989 259.729Z" fill="black"/>
<path d="M314.195 268.212L312.474 270.873L301.814 263.978L303.182 261.862L311.947 260.242C312.881 260.065 313.575 259.847 314.028 259.587C314.49 259.315 314.847 258.983 315.099 258.594C315.464 258.029 315.548 257.474 315.349 256.926C315.173 256.374 314.715 255.859 313.976 255.381C313.358 254.981 312.722 254.741 312.069 254.662C311.424 254.569 310.782 254.649 310.142 254.902L308.754 251.832C309.835 251.369 311.007 251.221 312.27 251.39C313.541 251.546 314.802 252.027 316.051 252.835C317.099 253.513 317.9 254.279 318.453 255.132C319.028 255.981 319.327 256.86 319.348 257.769C319.392 258.674 319.14 259.549 318.593 260.396C318.097 261.162 317.471 261.776 316.715 262.239C315.958 262.703 314.838 263.064 313.354 263.325L308.129 264.289L314.195 268.212Z" fill="black"/>
<path d="M328.333 277.413L326.638 280.033L315.716 272.969L324.839 258.862L335.5 265.757L333.806 268.377L326.389 263.58L324.408 266.644L330.958 270.88L329.316 273.419L322.766 269.183L320.655 272.448L328.333 277.413Z" fill="black"/>
<path d="M341.437 289.947C340.322 289.226 339.336 288.379 338.479 287.406C337.645 286.427 337.068 285.492 336.749 284.6L339.448 282.859C339.766 283.693 340.254 284.514 340.913 285.321C341.573 286.129 342.319 286.802 343.152 287.341C344.079 287.94 344.851 288.249 345.468 288.267C346.094 288.271 346.554 288.045 346.85 287.589C347.067 287.253 347.111 286.89 346.981 286.502C346.874 286.108 346.655 285.71 346.325 285.306C346.009 284.911 345.554 284.407 344.96 283.794C344.05 282.843 343.335 282.019 342.815 281.321C342.295 280.622 341.969 279.83 341.837 278.944C341.718 278.067 341.963 277.158 342.571 276.218C343.101 275.398 343.8 274.803 344.67 274.431C345.547 274.046 346.556 273.946 347.694 274.13C348.846 274.322 350.067 274.836 351.357 275.67C352.257 276.252 353.068 276.928 353.789 277.7C354.509 278.471 355.062 279.266 355.446 280.086L352.835 281.913C352.01 280.332 350.946 279.119 349.643 278.276C348.729 277.686 347.955 277.395 347.321 277.403C346.699 277.421 346.233 277.672 345.92 278.155C345.607 278.639 345.621 279.162 345.962 279.726C346.324 280.284 346.949 281.012 347.836 281.91C348.746 282.86 349.461 283.685 349.981 284.383C350.501 285.081 350.824 285.862 350.952 286.726C351.093 287.598 350.859 288.505 350.251 289.445C349.729 290.251 349.023 290.843 348.132 291.219C347.263 291.59 346.252 291.68 345.1 291.487C343.948 291.295 342.727 290.781 341.437 289.947Z" fill="black"/>
<path d="M364.696 297.016C364.67 297.056 364.467 297.325 364.088 297.823L355.886 292.518C355.599 293.285 355.605 294.042 355.904 294.788C356.203 295.534 356.762 296.172 357.582 296.702C358.146 297.067 358.695 297.308 359.23 297.424C359.786 297.537 360.369 297.533 360.98 297.413L361.48 300.309C359.703 300.817 357.834 300.437 355.872 299.169C354.65 298.378 353.72 297.443 353.084 296.365C352.456 295.273 352.161 294.139 352.198 292.962C352.234 291.786 352.6 290.66 353.296 289.585C353.982 288.524 354.847 287.731 355.892 287.206C356.959 286.676 358.081 286.459 359.258 286.553C360.458 286.643 361.601 287.04 362.69 287.744C363.751 288.43 364.564 289.28 365.128 290.293C365.693 291.305 365.939 292.398 365.866 293.571C365.816 294.739 365.426 295.887 364.696 297.016ZM361.172 290.135C360.46 289.674 359.732 289.489 358.987 289.579C358.243 289.669 357.591 290.029 357.032 290.658L362.372 294.112C362.708 293.357 362.764 292.622 362.541 291.906C362.327 291.177 361.87 290.586 361.172 290.135Z" fill="black"/>
<path d="M369.452 307.952C368.297 307.204 367.408 306.296 366.785 305.226C366.184 304.151 365.895 303.022 365.919 301.836C365.955 300.66 366.322 299.534 367.017 298.459C367.712 297.384 368.588 296.589 369.646 296.073C370.718 295.565 371.862 295.372 373.08 295.492C374.32 295.608 375.517 296.04 376.673 296.787C377.815 297.526 378.652 298.41 379.186 299.442C379.742 300.468 379.928 301.55 379.744 302.689L376.458 302.422C376.537 301.063 376.046 300.04 374.984 299.354C374.165 298.824 373.312 298.653 372.427 298.843C371.543 299.033 370.8 299.592 370.201 300.519C369.601 301.446 369.396 302.352 369.586 303.236C369.776 304.121 370.281 304.829 371.1 305.359C372.175 306.054 373.309 306.083 374.503 305.445L376.081 308.352C375.136 308.96 374.077 309.227 372.904 309.155C371.745 309.091 370.594 308.69 369.452 307.952Z" fill="black"/>
<path d="M395.166 308.976L388.154 319.818L385.171 317.889L386.005 316.599C385.284 316.8 384.553 316.841 383.81 316.723C383.076 316.591 382.373 316.308 381.701 315.874C380.277 314.953 379.414 313.813 379.111 312.455C378.808 311.096 379.178 309.611 380.22 307.999L384.182 301.873L387.326 303.906L383.664 309.569C382.534 311.315 382.702 312.662 384.166 313.609C384.918 314.096 385.679 314.245 386.449 314.057C387.227 313.855 387.929 313.271 388.555 312.303L392.022 306.943L395.166 308.976Z" fill="black"/>
<path d="M401.163 314.884C401.878 314.603 402.638 314.533 403.443 314.673C404.262 314.821 405.088 315.165 405.921 315.703L404.044 318.605C403.712 318.352 403.486 318.187 403.365 318.109C402.465 317.527 401.594 317.326 400.754 317.506C399.922 317.673 399.18 318.26 398.528 319.268L395.217 324.387L392.074 322.353L399.086 311.511L402.088 313.453L401.163 314.884Z" fill="black"/>
<path d="M415.683 329.992C415.657 330.032 415.455 330.301 415.076 330.799L406.874 325.494C406.587 326.262 406.593 327.018 406.892 327.764C407.191 328.51 407.75 329.148 408.569 329.678C409.134 330.043 409.683 330.284 410.217 330.401C410.773 330.513 411.357 330.509 411.968 330.389L412.467 333.285C410.69 333.793 408.821 333.413 406.86 332.145C405.637 331.354 404.708 330.42 404.071 329.341C403.444 328.249 403.148 327.115 403.185 325.938C403.222 324.762 403.588 323.636 404.283 322.561C404.97 321.5 405.835 320.707 406.879 320.182C407.946 319.652 409.068 319.435 410.246 319.529C411.445 319.619 412.589 320.016 413.677 320.72C414.739 321.406 415.551 322.256 416.116 323.269C416.68 324.282 416.926 325.374 416.854 326.547C416.803 327.715 416.413 328.863 415.683 329.992ZM412.159 323.111C411.447 322.65 410.719 322.465 409.975 322.555C409.23 322.645 408.579 323.005 408.019 323.634L413.36 327.088C413.695 326.333 413.752 325.598 413.529 324.882C413.314 324.153 412.858 323.563 412.159 323.111Z" fill="black"/>
<path d="M428.835 346.472C427.398 345.542 426.295 344.39 425.525 343.016C424.778 341.638 424.425 340.18 424.466 338.644C424.529 337.103 425.012 335.634 425.916 334.237C426.819 332.84 427.957 331.803 429.328 331.127C430.72 330.447 432.194 330.171 433.75 330.3C435.327 330.425 436.841 330.956 438.292 331.895C439.515 332.685 440.477 333.613 441.18 334.677C441.896 335.75 442.329 336.907 442.48 338.147L439.133 338.726C438.891 337.008 438.065 335.692 436.655 334.78C435.781 334.215 434.876 333.906 433.939 333.852C433.01 333.785 432.13 333.969 431.297 334.402C430.478 334.844 429.786 335.501 429.221 336.375C428.656 337.248 428.34 338.149 428.273 339.077C428.22 340.014 428.409 340.899 428.843 341.732C429.285 342.551 429.942 343.243 430.815 343.808C432.226 344.721 433.769 344.928 435.444 344.429L436.289 347.72C435.087 348.105 433.85 348.191 432.578 347.978C431.305 347.765 430.058 347.263 428.835 346.472Z" fill="black"/>
<path d="M451.513 345.19C452.856 346.059 453.677 347.161 453.975 348.497C454.287 349.842 453.93 351.307 452.905 352.893L448.89 359.1L445.747 357.066L449.448 351.343C450.004 350.483 450.229 349.723 450.122 349.064C450.024 348.39 449.619 347.823 448.907 347.363C448.114 346.85 447.322 346.69 446.53 346.883C445.747 347.063 445.043 347.636 444.417 348.604L440.95 353.964L437.807 351.931L447.477 336.978L450.621 339.011L447.233 344.251C447.918 344.104 448.626 344.114 449.357 344.281C450.095 344.435 450.814 344.738 451.513 345.19Z" fill="black"/>
<path d="M464.237 353.419C465.917 354.505 466.946 355.743 467.324 357.131C467.712 358.506 467.384 359.999 466.342 361.611L462.34 367.798L459.398 365.895L460.271 364.545C459.028 365.17 457.601 364.962 455.989 363.919C455.156 363.38 454.522 362.77 454.086 362.088C453.664 361.415 453.452 360.726 453.451 360.02C453.451 359.314 453.654 358.646 454.063 358.014C454.714 357.007 455.603 356.457 456.729 356.366C457.869 356.284 459.231 356.755 460.816 357.781L463.315 359.397C463.758 358.712 463.889 358.053 463.707 357.421C463.534 356.775 463.031 356.183 462.198 355.644C461.62 355.271 460.988 354.996 460.302 354.819C459.639 354.637 459.012 354.575 458.423 354.632L458.715 351.705C459.575 351.671 460.489 351.805 461.456 352.107C462.437 352.417 463.364 352.854 464.237 353.419ZM458.143 362.311C458.681 362.659 459.236 362.846 459.809 362.874C460.39 362.888 460.925 362.71 461.412 362.339L462.129 361.231L459.973 359.836C458.683 359.002 457.764 359.008 457.217 359.854C456.956 360.258 456.902 360.68 457.055 361.122C457.23 361.559 457.592 361.955 458.143 362.311Z" fill="black"/>
<path d="M479.899 363.549C481.243 364.418 482.064 365.52 482.362 366.856C482.674 368.201 482.317 369.666 481.291 371.252L477.277 377.459L474.133 375.425L477.835 369.702C478.391 368.842 478.616 368.082 478.509 367.423C478.411 366.749 478.006 366.183 477.294 365.722C476.501 365.209 475.709 365.05 474.917 365.243C474.134 365.422 473.43 365.995 472.804 366.963L469.337 372.323L466.193 370.29L473.205 359.448L476.208 361.39L475.387 362.66C476.099 362.472 476.842 362.457 477.616 362.615C478.4 362.76 479.161 363.071 479.899 363.549Z" fill="black"/>
<path d="M494.841 373.212C496.184 374.081 497.005 375.183 497.303 376.52C497.615 377.864 497.258 379.33 496.233 380.915L492.218 387.122L489.075 385.089L492.776 379.365C493.332 378.505 493.557 377.746 493.45 377.086C493.352 376.413 492.947 375.846 492.235 375.385C491.442 374.873 490.65 374.713 489.858 374.906C489.075 375.085 488.371 375.659 487.745 376.626L484.278 381.987L481.134 379.953L488.147 369.111L491.149 371.053L490.328 372.323C491.04 372.135 491.783 372.121 492.558 372.279C493.341 372.423 494.102 372.734 494.841 373.212Z" fill="black"/>
<path d="M510.294 391.181C510.268 391.221 510.065 391.49 509.686 391.988L501.484 386.684C501.197 387.451 501.204 388.207 501.502 388.953C501.801 389.699 502.36 390.337 503.18 390.867C503.744 391.232 504.294 391.473 504.828 391.59C505.384 391.702 505.968 391.698 506.578 391.579L507.078 394.474C505.301 394.983 503.432 394.603 501.47 393.334C500.248 392.543 499.318 391.609 498.682 390.53C498.054 389.438 497.759 388.304 497.796 387.128C497.833 385.951 498.199 384.825 498.894 383.751C499.58 382.689 500.446 381.896 501.49 381.371C502.557 380.841 503.679 380.624 504.856 380.718C506.056 380.808 507.2 381.205 508.288 381.909C509.349 382.595 510.162 383.445 510.726 384.458C511.291 385.471 511.537 386.564 511.464 387.736C511.414 388.904 511.024 390.052 510.294 391.181ZM506.77 384.3C506.058 383.839 505.33 383.654 504.585 383.745C503.841 383.835 503.189 384.194 502.63 384.824L507.97 388.277C508.306 387.523 508.362 386.788 508.139 386.072C507.925 385.342 507.469 384.752 506.77 384.3Z" fill="black"/>
<path d="M519.586 383.614L522.73 385.647L513.059 400.6L509.915 398.567L519.586 383.614Z" fill="black"/>
<path d="M1079.92 711.925L1073.37 707.689L1070.16 709.904L1066.82 707.74L1082.23 697.7L1085.45 699.785L1082.64 717.972L1079.21 715.756L1079.92 711.925ZM1080.49 708.782L1081.75 701.934L1076.02 705.888L1080.49 708.782Z" fill="black"/>
<path d="M1100.34 709.412C1101.59 710.22 1102.54 711.128 1103.18 712.135C1103.84 713.152 1104.17 714.203 1104.17 715.29C1104.17 716.378 1103.83 717.445 1103.16 718.493C1102.49 719.528 1101.65 720.274 1100.65 720.732C1099.66 721.176 1098.56 721.307 1097.37 721.124C1096.19 720.936 1094.98 720.438 1093.73 719.63L1090.89 717.792L1088.37 721.681L1085.11 719.57L1094.23 705.463L1100.34 709.412ZM1095.27 716.852C1096.25 717.487 1097.13 717.761 1097.91 717.674C1098.7 717.575 1099.35 717.135 1099.85 716.356C1100.36 715.563 1100.5 714.793 1100.26 714.047C1100.03 713.287 1099.42 712.589 1098.44 711.955L1095.78 710.235L1092.61 715.132L1095.27 716.852Z" fill="black"/>
<path d="M1109.8 715.534L1113.07 717.645L1103.95 731.752L1100.68 729.64L1109.8 715.534Z" fill="black"/>
<path d="M1111.71 731.459C1112.28 731.824 1112.62 732.305 1112.75 732.902C1112.89 733.486 1112.77 734.067 1112.4 734.645C1112.22 734.914 1112.02 735.161 1111.77 735.386C1111.53 735.611 1111.13 735.919 1110.55 736.308L1107.52 738.467L1105.53 737.177L1108.49 734.546C1108.24 734.195 1108.11 733.806 1108.1 733.38C1108.11 732.949 1108.25 732.532 1108.51 732.129C1108.88 731.552 1109.36 731.206 1109.95 731.091C1110.56 730.971 1111.15 731.094 1111.71 731.459Z" fill="black"/>
<path d="M1151.74 742.657L1138 753.779L1134.5 751.511L1137.57 739.952L1128.19 747.432L1124.7 745.177L1129.19 728.073L1132.58 730.262L1129.35 742.237L1139.09 734.472L1142.11 736.427L1138.87 748.508L1148.62 740.637L1151.74 742.657Z" fill="black"/>
<path d="M1158.52 759.417C1158.5 759.458 1158.29 759.727 1157.91 760.225L1149.71 754.92C1149.42 755.687 1149.43 756.444 1149.73 757.19C1150.03 757.935 1150.59 758.573 1151.41 759.103C1151.97 759.468 1152.52 759.709 1153.06 759.826C1153.61 759.938 1154.2 759.935 1154.81 759.815L1155.31 762.711C1153.53 763.219 1151.66 762.839 1149.7 761.57C1148.48 760.78 1147.55 759.845 1146.91 758.767C1146.28 757.675 1145.99 756.541 1146.02 755.364C1146.06 754.187 1146.43 753.062 1147.12 751.987C1147.81 750.925 1148.67 750.132 1149.72 749.607C1150.78 749.078 1151.91 748.86 1153.08 748.955C1154.28 749.045 1155.43 749.441 1156.52 750.145C1157.58 750.832 1158.39 751.681 1158.95 752.694C1159.52 753.707 1159.76 754.8 1159.69 755.973C1159.64 757.14 1159.25 758.289 1158.52 759.417ZM1155 752.536C1154.29 752.076 1153.56 751.891 1152.81 751.981C1152.07 752.071 1151.42 752.431 1150.86 753.06L1156.2 756.514C1156.53 755.759 1156.59 755.024 1156.37 754.308C1156.15 753.579 1155.7 752.988 1155 752.536Z" fill="black"/>
<path d="M1171.67 759.945C1172.67 760.596 1173.44 761.422 1173.95 762.423C1174.49 763.418 1174.72 764.491 1174.64 765.642C1174.57 766.779 1174.18 767.905 1173.46 769.02C1172.74 770.135 1171.87 770.964 1170.85 771.506C1169.84 772.035 1168.77 772.265 1167.63 772.197C1166.52 772.123 1165.45 771.761 1164.45 771.109C1162.96 770.145 1162.12 768.94 1161.95 767.496L1161.14 768.745L1158.14 766.803L1167.81 751.85L1170.96 753.883L1167.56 759.143C1168.91 758.783 1170.28 759.05 1171.67 759.945ZM1165.57 768.178C1166.38 768.699 1167.21 768.856 1168.07 768.649C1168.95 768.437 1169.68 767.874 1170.27 766.961C1170.86 766.047 1171.07 765.152 1170.9 764.276C1170.74 763.395 1170.26 762.694 1169.45 762.172C1168.65 761.651 1167.81 761.496 1166.93 761.708C1166.07 761.915 1165.34 762.476 1164.75 763.389C1164.16 764.303 1163.94 765.2 1164.1 766.081C1164.27 766.958 1164.76 767.656 1165.57 768.178Z" fill="black"/>
<path d="M1186.77 769.712C1188.11 770.581 1188.93 771.684 1189.23 773.02C1189.54 774.365 1189.19 775.83 1188.16 777.415L1184.15 783.622L1181 781.589L1184.71 775.866C1185.26 775.006 1185.49 774.246 1185.38 773.586C1185.28 772.913 1184.88 772.346 1184.16 771.886C1183.37 771.373 1182.58 771.213 1181.79 771.406C1181 771.586 1180.3 772.159 1179.67 773.126L1176.21 778.487L1173.06 776.454L1182.73 761.501L1185.88 763.534L1182.49 768.773C1183.18 768.626 1183.88 768.636 1184.61 768.804C1185.35 768.958 1186.07 769.261 1186.77 769.712Z" fill="black"/>
<path d="M1193.18 789.691C1192.04 788.953 1191.16 788.053 1190.55 786.992C1189.96 785.926 1189.69 784.805 1189.72 783.628C1189.76 782.451 1190.13 781.326 1190.82 780.251C1191.52 779.176 1192.39 778.381 1193.45 777.864C1194.51 777.348 1195.64 777.146 1196.85 777.258C1198.07 777.365 1199.26 777.788 1200.4 778.527C1201.54 779.265 1202.41 780.167 1202.99 781.233C1203.59 782.286 1203.87 783.4 1203.83 784.577C1203.79 785.753 1203.43 786.879 1202.73 787.954C1202.04 789.029 1201.16 789.824 1200.1 790.34C1199.05 790.857 1197.91 791.065 1196.7 790.967C1195.49 790.855 1194.32 790.43 1193.18 789.691ZM1194.85 787.112C1195.65 787.633 1196.48 787.79 1197.34 787.583C1198.22 787.371 1198.96 786.808 1199.55 785.895C1200.14 784.981 1200.35 784.086 1200.17 783.21C1200.02 782.329 1199.54 781.628 1198.73 781.106C1197.92 780.585 1197.08 780.43 1196.2 780.642C1195.33 780.841 1194.6 781.397 1194.01 782.31C1193.42 783.224 1193.2 784.126 1193.37 785.015C1193.55 785.891 1194.04 786.59 1194.85 787.112Z" fill="black"/>
<path d="M1207.39 798.883C1206.25 798.145 1205.37 797.245 1204.76 796.184C1204.18 795.118 1203.9 793.997 1203.94 792.82C1203.97 791.644 1204.34 790.518 1205.04 789.443C1205.73 788.368 1206.61 787.573 1207.67 787.057C1208.72 786.54 1209.85 786.338 1211.06 786.45C1212.29 786.557 1213.47 786.98 1214.61 787.719C1215.75 788.457 1216.62 789.36 1217.21 790.426C1217.8 791.478 1218.08 792.592 1218.04 793.769C1218.01 794.946 1217.64 796.071 1216.95 797.146C1216.25 798.221 1215.37 799.016 1214.32 799.533C1213.26 800.049 1212.12 800.258 1210.91 800.159C1209.71 800.047 1208.53 799.622 1207.39 798.883ZM1209.06 796.304C1209.87 796.825 1210.7 796.982 1211.56 796.775C1212.44 796.563 1213.17 796 1213.76 795.087C1214.35 794.173 1214.56 793.278 1214.38 792.402C1214.23 791.521 1213.75 790.82 1212.94 790.298C1212.14 789.777 1211.29 789.622 1210.41 789.834C1209.54 790.033 1208.81 790.589 1208.22 791.503C1207.63 792.416 1207.42 793.318 1207.59 794.207C1207.76 795.084 1208.25 795.783 1209.06 796.304Z" fill="black"/>
<path d="M1223.95 803.336L1221.48 803.85L1219.69 806.611L1216.55 804.578L1226.22 789.625L1229.36 791.658L1223.89 800.122L1231.3 798.741L1235.05 801.165L1227.56 802.84L1228.44 812.268L1224.63 809.804L1223.95 803.336Z" fill="black"/>
<path d="M307.671 820.786L309.376 823.399L298.483 830.509L289.301 816.44L299.933 809.501L301.638 812.114L294.242 816.941L296.236 819.996L302.768 815.733L304.421 818.265L297.889 822.528L300.014 825.784L307.671 820.786Z" fill="black"/>
<path d="M320.789 812.167L322.52 814.82L311.889 821.759L310.511 819.649L312.593 810.982C312.81 810.057 312.893 809.334 312.84 808.815C312.779 808.281 312.621 807.821 312.367 807.432C312 806.869 311.526 806.567 310.945 806.526C310.369 806.463 309.712 806.672 308.975 807.153C308.359 807.555 307.882 808.038 307.543 808.603C307.196 809.155 307.008 809.774 306.979 810.462L303.611 810.482C303.627 809.306 303.968 808.176 304.636 807.09C305.294 805.992 306.247 805.036 307.493 804.223C308.538 803.54 309.563 803.12 310.567 802.961C311.576 802.78 312.501 802.865 313.34 803.214C314.185 803.542 314.883 804.128 315.433 804.972C315.932 805.736 316.239 806.558 316.355 807.437C316.47 808.317 316.346 809.488 315.981 810.949L314.739 816.115L320.789 812.167Z" fill="black"/>
<path d="M334.941 802.987L336.646 805.6L325.753 812.71L316.57 798.641L327.202 791.702L328.907 794.315L321.511 799.142L323.505 802.197L330.037 797.934L331.69 800.466L325.158 804.729L327.283 807.985L334.941 802.987Z" fill="black"/>
<path d="M351.718 796.106C350.606 796.832 349.431 797.389 348.194 797.776C346.961 798.141 345.872 798.288 344.927 798.217L344.432 795.044C345.324 795.092 346.273 794.98 347.278 794.705C348.284 794.431 349.202 794.023 350.033 793.481C350.957 792.877 351.553 792.297 351.82 791.741C352.079 791.171 352.059 790.658 351.762 790.202C351.543 789.867 351.23 789.68 350.822 789.641C350.419 789.579 349.966 789.617 349.463 789.754C348.974 789.882 348.328 790.094 347.527 790.387C346.289 790.833 345.245 791.151 344.395 791.342C343.546 791.534 342.69 791.51 341.826 791.271C340.977 791.023 340.246 790.43 339.634 789.492C339.1 788.675 338.84 787.793 338.854 786.848C338.859 785.89 339.177 784.928 339.807 783.962C340.451 782.987 341.417 782.08 342.703 781.241C343.601 780.655 344.548 780.189 345.546 779.844C346.543 779.499 347.494 779.317 348.4 779.299L349.009 782.427C347.228 782.539 345.688 783.018 344.388 783.867C343.477 784.461 342.897 785.05 342.647 785.634C342.41 786.208 342.45 786.737 342.765 787.219C343.079 787.701 343.563 787.901 344.217 787.819C344.874 787.715 345.793 787.439 346.974 786.994C348.212 786.549 349.256 786.231 350.105 786.039C350.955 785.848 351.8 785.869 352.641 786.104C353.495 786.329 354.228 786.911 354.84 787.849C355.365 788.653 355.618 789.539 355.6 790.506C355.586 791.451 355.258 792.411 354.613 793.385C353.969 794.36 353.004 795.267 351.718 796.106Z" fill="black"/>
<path d="M367.627 777.726C367.653 777.767 367.817 778.061 368.118 778.61L359.938 783.949C360.523 784.523 361.216 784.824 362.019 784.854C362.822 784.884 363.632 784.633 364.45 784.099C365.013 783.732 365.456 783.328 365.78 782.887C366.108 782.425 366.342 781.89 366.481 781.283L369.33 782.003C369.072 783.834 367.965 785.387 366.009 786.664C364.79 787.46 363.558 787.929 362.314 788.072C361.062 788.202 359.905 788.011 358.845 787.499C357.785 786.988 356.905 786.196 356.205 785.124C355.515 784.065 355.142 782.952 355.086 781.785C355.036 780.595 355.293 779.481 355.858 778.444C356.427 777.384 357.255 776.5 358.34 775.792C359.398 775.101 360.505 774.704 361.66 774.6C362.815 774.495 363.913 774.715 364.955 775.257C366.002 775.778 366.893 776.601 367.627 777.726ZM359.908 778.15C359.198 778.614 358.733 779.204 358.513 779.921C358.293 780.638 358.357 781.379 358.704 782.146L364.03 778.67C363.477 778.057 362.828 777.706 362.083 777.619C361.33 777.519 360.605 777.696 359.908 778.15Z" fill="black"/>
<path d="M379.552 777.824C378.4 778.576 377.209 779.02 375.978 779.154C374.752 779.266 373.602 779.071 372.529 778.568C371.469 778.056 370.589 777.264 369.889 776.193C369.19 775.121 368.819 773.997 368.777 772.82C368.749 771.635 369.037 770.511 369.642 769.447C370.252 768.361 371.133 767.442 372.285 766.69C373.424 765.947 374.573 765.541 375.732 765.472C376.895 765.381 377.96 765.651 378.926 766.282L377.346 769.176C376.137 768.552 375.002 768.585 373.944 769.276C373.127 769.809 372.625 770.519 372.439 771.405C372.253 772.29 372.461 773.195 373.065 774.12C373.668 775.044 374.413 775.6 375.298 775.786C376.184 775.972 377.036 775.798 377.853 775.265C378.925 774.565 379.412 773.54 379.314 772.19L382.612 771.93C382.783 773.041 382.597 774.117 382.054 775.159C381.525 776.193 380.691 777.081 379.552 777.824Z" fill="black"/>
<path d="M390.937 754.745L397.994 765.558L395.019 767.5L394.18 766.213C394.071 766.953 393.811 767.639 393.401 768.269C392.982 768.886 392.438 769.414 391.768 769.851C390.348 770.778 388.956 771.104 387.591 770.829C386.227 770.554 385.02 769.612 383.971 768.004L379.983 761.895L383.118 759.848L386.805 765.496C387.941 767.238 389.24 767.632 390.701 766.679C391.451 766.189 391.896 765.554 392.037 764.775C392.169 763.981 391.92 763.103 391.291 762.138L387.801 756.792L390.937 754.745Z" fill="black"/>
<path d="M398.772 751.666C398.806 750.899 399.05 750.175 399.505 749.496C399.974 748.809 400.623 748.194 401.454 747.652L403.343 750.546C402.977 750.746 402.734 750.886 402.613 750.965C401.715 751.551 401.178 752.264 401.001 753.106C400.816 753.934 401.051 754.85 401.707 755.855L405.039 760.96L401.903 763.006L394.846 752.194L397.841 750.239L398.772 751.666Z" fill="black"/>
<path d="M418.476 744.537C418.502 744.577 418.666 744.872 418.967 745.421L410.787 750.76C411.372 751.333 412.065 751.635 412.868 751.665C413.671 751.695 414.481 751.443 415.299 750.91C415.862 750.543 416.305 750.139 416.629 749.698C416.957 749.235 417.191 748.701 417.33 748.094L420.179 748.814C419.921 750.644 418.814 752.198 416.858 753.475C415.639 754.27 414.407 754.74 413.163 754.883C411.911 755.013 410.754 754.822 409.694 754.31C408.634 753.798 407.754 753.007 407.054 751.935C406.364 750.876 405.991 749.763 405.935 748.595C405.885 747.406 406.142 746.292 406.707 745.255C407.276 744.195 408.104 743.311 409.189 742.603C410.247 741.912 411.354 741.514 412.509 741.41C413.664 741.306 414.762 741.525 415.804 742.068C416.851 742.589 417.742 743.412 418.476 744.537ZM410.757 744.961C410.047 745.425 409.582 746.015 409.362 746.732C409.142 747.448 409.206 748.19 409.553 748.957L414.879 745.481C414.326 744.867 413.677 744.517 412.932 744.43C412.179 744.329 411.454 744.506 410.757 744.961Z" fill="black"/>
<path d="M438.879 739.216C437.445 740.152 435.944 740.692 434.376 740.837C432.813 740.959 431.338 740.69 429.951 740.028C428.568 739.345 427.423 738.306 426.513 736.913C425.603 735.519 425.118 734.059 425.058 732.532C425.002 730.982 425.349 729.523 426.099 728.155C426.854 726.764 427.954 725.597 429.401 724.652C430.621 723.857 431.859 723.354 433.117 723.144C434.389 722.926 435.622 723 436.816 723.367L435.985 726.66C434.317 726.183 432.779 726.403 431.373 727.321C430.502 727.889 429.851 728.591 429.422 729.426C428.983 730.247 428.793 731.126 428.85 732.063C428.921 732.991 429.241 733.89 429.809 734.761C430.377 735.632 431.072 736.287 431.893 736.725C432.728 737.155 433.614 737.341 434.551 737.284C435.479 737.213 436.378 736.893 437.249 736.325C438.656 735.407 439.472 734.081 439.698 732.348L443.047 732.913C442.911 734.168 442.487 735.333 441.775 736.409C441.063 737.485 440.098 738.421 438.879 739.216Z" fill="black"/>
<path d="M446.922 717.975C448.262 717.1 449.602 716.798 450.944 717.068C452.3 717.33 453.494 718.251 454.526 719.833L458.566 726.023L455.431 728.069L451.705 722.361C451.145 721.504 450.542 720.99 449.896 720.819C449.241 720.635 448.559 720.775 447.848 721.239C447.058 721.755 446.59 722.414 446.445 723.215C446.291 724.004 446.528 724.88 447.158 725.845L450.647 731.191L447.512 733.237L437.779 718.325L440.914 716.279L444.324 721.504C444.469 720.817 444.766 720.175 445.215 719.576C445.656 718.963 446.225 718.429 446.922 717.975Z" fill="black"/>
<path d="M459.612 709.692C461.286 708.599 462.835 708.161 464.257 708.379C465.671 708.584 466.903 709.49 467.952 711.098L471.979 717.268L469.045 719.183L468.166 717.836C468.232 719.226 467.462 720.446 465.854 721.495C465.023 722.037 464.208 722.369 463.408 722.49C462.621 722.602 461.905 722.515 461.26 722.229C460.615 721.943 460.087 721.485 459.676 720.856C459.02 719.851 458.879 718.815 459.254 717.75C459.641 716.675 460.626 715.622 462.207 714.59L464.699 712.963C464.253 712.28 463.704 711.893 463.053 711.802C462.392 711.698 461.647 711.917 460.816 712.459C460.24 712.835 459.732 713.301 459.291 713.856C458.856 714.389 458.544 714.936 458.357 715.498L455.802 714.042C456.12 713.241 456.614 712.461 457.282 711.699C457.964 710.929 458.741 710.26 459.612 709.692ZM465.26 718.873C465.796 718.523 466.193 718.092 466.451 717.58C466.7 717.054 466.755 716.493 466.614 715.897L465.892 714.792L463.742 716.196C462.456 717.035 462.088 717.877 462.639 718.721C462.901 719.123 463.265 719.344 463.731 719.384C464.201 719.402 464.711 719.232 465.26 718.873Z" fill="black"/>
<path d="M475.231 699.497C476.571 698.622 477.912 698.32 479.254 698.591C480.61 698.852 481.803 699.774 482.835 701.355L486.875 707.545L483.74 709.591L480.015 703.883C479.455 703.026 478.852 702.512 478.206 702.342C477.551 702.158 476.868 702.297 476.158 702.761C475.368 703.277 474.9 703.936 474.754 704.738C474.6 705.526 474.838 706.403 475.468 707.367L478.957 712.713L475.822 714.76L468.764 703.947L471.759 701.993L472.585 703.259C472.703 702.532 472.992 701.847 473.451 701.204C473.901 700.547 474.494 699.978 475.231 699.497Z" fill="black"/>
<path d="M490.132 689.771C491.472 688.897 492.813 688.595 494.155 688.865C495.51 689.127 496.704 690.048 497.736 691.629L501.776 697.819L498.641 699.866L494.915 694.158C494.356 693.3 493.753 692.786 493.106 692.616C492.451 692.432 491.769 692.572 491.059 693.035C490.268 693.551 489.8 694.21 489.655 695.012C489.501 695.8 489.739 696.677 490.368 697.642L493.858 702.988L490.722 705.034L483.665 694.221L486.659 692.267L487.486 693.533C487.604 692.806 487.892 692.121 488.351 691.478C488.801 690.821 489.395 690.252 490.132 689.771Z" fill="black"/>
<path d="M512.83 682.952C512.856 682.992 513.02 683.287 513.32 683.836L505.141 689.175C505.725 689.748 506.419 690.05 507.222 690.08C508.025 690.11 508.835 689.859 509.652 689.325C510.215 688.958 510.658 688.554 510.982 688.113C511.311 687.65 511.544 687.116 511.684 686.509L514.532 687.229C514.275 689.059 513.168 690.613 511.212 691.89C509.992 692.686 508.761 693.155 507.517 693.298C506.264 693.428 505.108 693.237 504.048 692.725C502.988 692.214 502.108 691.422 501.408 690.35C500.717 689.291 500.344 688.178 500.289 687.011C500.238 685.821 500.496 684.707 501.06 683.67C501.63 682.61 502.457 681.726 503.543 681.018C504.601 680.327 505.708 679.93 506.863 679.825C508.017 679.721 509.116 679.941 510.158 680.483C511.205 681.004 512.095 681.827 512.83 682.952ZM505.111 683.376C504.4 683.84 503.935 684.43 503.715 685.147C503.495 685.864 503.559 686.605 503.907 687.372L509.233 683.896C508.679 683.282 508.03 682.932 507.286 682.845C506.532 682.745 505.807 682.922 505.111 683.376Z" fill="black"/>
<path d="M509.691 671.387L512.826 669.341L522.56 684.254L519.425 686.3L509.691 671.387Z" fill="black"/>
<path d="M1086.78 367.828L1080.25 372.091L1080.97 375.919L1077.64 378.096L1074.72 359.935L1077.94 357.836L1093.41 367.799L1090 370.029L1086.78 367.828ZM1084.14 366.025L1078.4 362.094L1079.68 368.937L1084.14 366.025Z" fill="black"/>
<path d="M1092.78 348.147C1094.03 347.334 1095.24 346.837 1096.43 346.658C1097.62 346.47 1098.72 346.596 1099.71 347.036C1100.71 347.476 1101.54 348.219 1102.23 349.264C1102.9 350.296 1103.24 351.362 1103.25 352.463C1103.26 353.55 1102.93 354.603 1102.28 355.622C1101.63 356.618 1100.68 357.523 1099.43 358.337L1096.6 360.186L1099.13 364.065L1095.88 366.19L1086.69 352.122L1092.78 348.147ZM1097.52 355.802C1098.5 355.163 1099.11 354.47 1099.35 353.723C1099.58 352.962 1099.44 352.193 1098.93 351.415C1098.41 350.625 1097.77 350.188 1096.99 350.105C1096.2 350.009 1095.31 350.28 1094.33 350.918L1091.68 352.65L1094.87 357.533L1097.52 355.802Z" fill="black"/>
<path d="M1102.22 341.986L1105.48 339.861L1114.66 353.93L1111.41 356.055L1102.22 341.986Z" fill="black"/>
<path d="M1117.55 346.714C1118.11 346.346 1118.69 346.225 1119.29 346.351C1119.88 346.463 1120.36 346.807 1120.74 347.384C1120.91 347.652 1121.06 347.941 1121.16 348.253C1121.27 348.565 1121.39 349.063 1121.51 349.748L1122.25 353.389L1120.26 354.688L1119.06 350.915C1118.64 351 1118.23 350.96 1117.84 350.797C1117.45 350.611 1117.12 350.317 1116.86 349.915C1116.48 349.339 1116.36 348.759 1116.5 348.174C1116.64 347.568 1116.99 347.081 1117.55 346.714Z" fill="black"/>
<path d="M1144.05 314.687L1148.63 331.76L1145.13 334.042L1135.82 326.536L1138.84 338.148L1135.36 340.418L1121.56 329.366L1124.93 327.162L1134.56 334.978L1131.43 322.925L1134.44 320.958L1144.16 328.827L1140.93 316.721L1144.05 314.687Z" fill="black"/>
<path d="M1162.12 315.304C1162.14 315.344 1162.31 315.639 1162.61 316.187L1154.43 321.526C1155.01 322.1 1155.71 322.402 1156.51 322.432C1157.31 322.462 1158.12 322.21 1158.94 321.677C1159.5 321.309 1159.94 320.905 1160.27 320.465C1160.6 320.002 1160.83 319.467 1160.97 318.861L1163.82 319.581C1163.56 321.411 1162.45 322.965 1160.5 324.241C1159.28 325.037 1158.05 325.507 1156.8 325.65C1155.55 325.78 1154.39 325.589 1153.33 325.077C1152.27 324.565 1151.39 323.773 1150.69 322.701C1150 321.643 1149.63 320.53 1149.58 319.362C1149.52 318.172 1149.78 317.059 1150.35 316.021C1150.92 314.962 1151.74 314.078 1152.83 313.37C1153.89 312.679 1154.99 312.281 1156.15 312.177C1157.3 312.073 1158.4 312.292 1159.44 312.835C1160.49 313.355 1161.38 314.178 1162.12 315.304ZM1154.4 315.728C1153.69 316.191 1153.22 316.782 1153 317.498C1152.78 318.215 1152.85 318.957 1153.19 319.724L1158.52 316.247C1157.97 315.634 1157.32 315.284 1156.57 315.197C1155.82 315.096 1155.09 315.273 1154.4 315.728Z" fill="black"/>
<path d="M1167.94 303.507C1168.94 302.851 1170.01 302.491 1171.13 302.426C1172.26 302.339 1173.33 302.565 1174.35 303.103C1175.36 303.628 1176.23 304.446 1176.96 305.558C1177.69 306.67 1178.09 307.801 1178.17 308.952C1178.24 310.088 1178.02 311.162 1177.49 312.174C1176.97 313.163 1176.21 313.985 1175.21 314.641C1173.72 315.612 1172.28 315.882 1170.89 315.451L1171.71 316.697L1168.71 318.652L1158.98 303.739L1162.11 301.693L1165.54 306.938C1165.76 305.551 1166.56 304.408 1167.94 303.507ZM1172.99 312.423C1173.79 311.898 1174.27 311.201 1174.43 310.333C1174.59 309.443 1174.38 308.542 1173.78 307.631C1173.19 306.72 1172.46 306.167 1171.58 305.972C1170.72 305.755 1169.88 305.909 1169.08 306.433C1168.27 306.958 1167.79 307.666 1167.62 308.556C1167.46 309.424 1167.68 310.314 1168.28 311.225C1168.87 312.136 1169.6 312.7 1170.47 312.917C1171.34 313.112 1172.18 312.947 1172.99 312.423Z" fill="black"/>
<path d="M1183 293.676C1184.34 292.801 1185.68 292.499 1187.02 292.77C1188.38 293.031 1189.57 293.953 1190.61 295.534L1194.65 301.724L1191.51 303.77L1187.78 298.063C1187.23 297.205 1186.62 296.691 1185.98 296.521C1185.32 296.337 1184.64 296.476 1183.93 296.94C1183.14 297.456 1182.67 298.115 1182.52 298.917C1182.37 299.705 1182.61 300.582 1183.24 301.546L1186.73 306.892L1183.59 308.939L1173.86 294.026L1176.99 291.98L1180.4 297.205C1180.55 296.519 1180.85 295.876 1181.29 295.277C1181.74 294.664 1182.3 294.131 1183 293.676Z" fill="black"/>
<path d="M1203.86 295.939C1202.72 296.682 1201.54 297.117 1200.33 297.242C1199.11 297.346 1197.98 297.142 1196.92 296.63C1195.86 296.118 1194.98 295.327 1194.28 294.255C1193.58 293.183 1193.21 292.059 1193.17 290.882C1193.12 289.706 1193.4 288.59 1193.99 287.535C1194.59 286.458 1195.45 285.548 1196.59 284.805C1197.73 284.061 1198.91 283.638 1200.12 283.534C1201.32 283.417 1202.46 283.615 1203.52 284.126C1204.58 284.638 1205.46 285.43 1206.16 286.502C1206.85 287.574 1207.23 288.698 1207.27 289.874C1207.31 291.051 1207.04 292.173 1206.46 293.241C1205.86 294.296 1205 295.195 1203.86 295.939ZM1202.18 293.366C1202.98 292.842 1203.47 292.145 1203.63 291.277C1203.79 290.386 1203.57 289.486 1202.98 288.575C1202.39 287.663 1201.65 287.111 1200.78 286.916C1199.91 286.699 1199.08 286.852 1198.27 287.377C1197.47 287.902 1196.98 288.609 1196.82 289.5C1196.65 290.377 1196.86 291.271 1197.45 292.182C1198.05 293.093 1198.79 293.653 1199.67 293.861C1200.54 294.056 1201.38 293.891 1202.18 293.366Z" fill="black"/>
<path d="M1218.03 286.687C1216.9 287.431 1215.72 287.865 1214.5 287.991C1213.29 288.094 1212.15 287.89 1211.09 287.378C1210.03 286.867 1209.15 286.075 1208.45 285.003C1207.75 283.931 1207.38 282.807 1207.34 281.63C1207.3 280.454 1207.57 279.338 1208.16 278.284C1208.76 277.207 1209.63 276.296 1210.77 275.553C1211.91 274.81 1213.08 274.386 1214.29 274.283C1215.5 274.166 1216.63 274.363 1217.69 274.875C1218.75 275.387 1219.63 276.178 1220.33 277.25C1221.03 278.322 1221.4 279.446 1221.44 280.623C1221.48 281.799 1221.21 282.922 1220.63 283.99C1220.04 285.045 1219.17 285.944 1218.03 286.687ZM1216.36 284.115C1217.16 283.59 1217.64 282.893 1217.8 282.025C1217.96 281.135 1217.75 280.234 1217.15 279.323C1216.56 278.412 1215.83 277.859 1214.95 277.664C1214.09 277.447 1213.25 277.601 1212.45 278.125C1211.64 278.65 1211.16 279.358 1210.99 280.248C1210.82 281.125 1211.03 282.019 1211.63 282.93C1212.22 283.841 1212.96 284.401 1213.84 284.609C1214.71 284.804 1215.55 284.639 1216.36 284.115Z" fill="black"/>
<path d="M1228.83 273.362L1228.3 275.833L1230.09 278.586L1226.96 280.633L1217.23 265.72L1220.36 263.674L1225.87 272.115L1227.62 264.783L1231.36 262.343L1229.85 269.864L1238.82 272.893L1235.02 275.373L1228.83 273.362Z" fill="black"/>
<path d="M1378.23 94.376C1376.52 94.376 1374.97 94.008 1373.58 93.272C1372.2 92.52 1371.11 91.488 1370.31 90.176C1369.53 88.848 1369.14 87.352 1369.14 85.688C1369.14 84.024 1369.53 82.536 1370.31 81.224C1371.11 79.896 1372.2 78.864 1373.58 78.128C1374.97 77.376 1376.53 77 1378.26 77C1379.71 77 1381.03 77.256 1382.19 77.768C1383.38 78.28 1384.37 79.016 1385.17 79.976L1382.67 82.28C1381.54 80.968 1380.13 80.312 1378.45 80.312C1377.41 80.312 1376.48 80.544 1375.67 81.008C1374.85 81.456 1374.21 82.088 1373.75 82.904C1373.3 83.72 1373.07 84.648 1373.07 85.688C1373.07 86.728 1373.3 87.656 1373.75 88.472C1374.21 89.288 1374.85 89.928 1375.67 90.392C1376.48 90.84 1377.41 91.064 1378.45 91.064C1380.13 91.064 1381.54 90.4 1382.67 89.072L1385.17 91.376C1384.37 92.352 1383.38 93.096 1382.19 93.608C1381.01 94.12 1379.69 94.376 1378.23 94.376Z" fill="black"/>
<path d="M1389 77.288H1392.88V90.92H1401.31V94.088H1389V77.288Z" fill="black"/>
<path d="M1412.53 94.376C1410.79 94.376 1409.21 94 1407.81 93.248C1406.41 92.496 1405.32 91.464 1404.52 90.152C1403.73 88.824 1403.34 87.336 1403.34 85.688C1403.34 84.04 1403.73 82.56 1404.52 81.248C1405.32 79.92 1406.41 78.88 1407.81 78.128C1409.21 77.376 1410.79 77 1412.53 77C1414.28 77 1415.85 77.376 1417.24 78.128C1418.63 78.88 1419.73 79.92 1420.53 81.248C1421.33 82.56 1421.73 84.04 1421.73 85.688C1421.73 87.336 1421.33 88.824 1420.53 90.152C1419.73 91.464 1418.63 92.496 1417.24 93.248C1415.85 94 1414.28 94.376 1412.53 94.376ZM1412.53 91.064C1413.53 91.064 1414.42 90.84 1415.22 90.392C1416.02 89.928 1416.65 89.288 1417.09 88.472C1417.56 87.656 1417.79 86.728 1417.79 85.688C1417.79 84.648 1417.56 83.72 1417.09 82.904C1416.65 82.088 1416.02 81.456 1415.22 81.008C1414.42 80.544 1413.53 80.312 1412.53 80.312C1411.54 80.312 1410.65 80.544 1409.85 81.008C1409.05 81.456 1408.41 82.088 1407.95 82.904C1407.5 83.72 1407.28 84.648 1407.28 85.688C1407.28 86.728 1407.5 87.656 1407.95 88.472C1408.41 89.288 1409.05 89.928 1409.85 90.392C1410.65 90.84 1411.54 91.064 1412.53 91.064Z" fill="black"/>
<path d="M1433.31 94.376C1430.91 94.376 1429.04 93.712 1427.7 92.384C1426.37 91.056 1425.7 89.16 1425.7 86.696V77.288H1429.59V86.552C1429.59 89.56 1430.84 91.064 1433.34 91.064C1434.55 91.064 1435.48 90.704 1436.12 89.984C1436.76 89.248 1437.08 88.104 1437.08 86.552V77.288H1440.92V86.696C1440.92 89.16 1440.25 91.056 1438.9 92.384C1437.58 93.712 1435.71 94.376 1433.31 94.376Z" fill="black"/>
<path d="M1445.96 77.288H1453.59C1455.42 77.288 1457.03 77.64 1458.42 78.344C1459.83 79.032 1460.91 80.008 1461.68 81.272C1462.47 82.536 1462.86 84.008 1462.86 85.688C1462.86 87.368 1462.47 88.84 1461.68 90.104C1460.91 91.368 1459.83 92.352 1458.42 93.056C1457.03 93.744 1455.42 94.088 1453.59 94.088H1445.96V77.288ZM1453.4 90.896C1455.08 90.896 1456.42 90.432 1457.41 89.504C1458.42 88.56 1458.92 87.288 1458.92 85.688C1458.92 84.088 1458.42 82.824 1457.41 81.896C1456.42 80.952 1455.08 80.48 1453.4 80.48H1449.85V90.896H1453.4Z" fill="black"/>
<rect x="44.5" y="438.588" width="195" height="195" fill="white" stroke="#376BC3" stroke-width="5"/>
<path d="M75.3121 545.376C72.9121 545.376 71.0401 544.712 69.6961 543.384C68.3681 542.056 67.7041 540.16 67.7041 537.696V528.288H71.5921V537.552C71.5921 540.56 72.8401 542.064 75.3361 542.064C76.5521 542.064 77.4801 541.704 78.1201 540.984C78.7601 540.248 79.0801 539.104 79.0801 537.552V528.288H82.9201V537.696C82.9201 540.16 82.2481 542.056 80.9041 543.384C79.5761 544.712 77.7121 545.376 75.3121 545.376Z" fill="black"/>
<path d="M103.37 528.288V545.088H100.178L91.8022 534.888V545.088H87.9622V528.288H91.1782L99.5302 538.488V528.288H103.37Z" fill="black"/>
<path d="M108.281 532.176H112.025V545.088H108.281V532.176ZM110.153 530.376C109.465 530.376 108.905 530.176 108.473 529.776C108.041 529.376 107.825 528.88 107.825 528.288C107.825 527.696 108.041 527.2 108.473 526.8C108.905 526.4 109.465 526.2 110.153 526.2C110.841 526.2 111.401 526.392 111.833 526.776C112.265 527.16 112.481 527.64 112.481 528.216C112.481 528.84 112.265 529.36 111.833 529.776C111.401 530.176 110.841 530.376 110.153 530.376Z" fill="black"/>
<path d="M116.964 528.288H124.596C126.42 528.288 128.028 528.64 129.42 529.344C130.828 530.032 131.916 531.008 132.684 532.272C133.468 533.536 133.86 535.008 133.86 536.688C133.86 538.368 133.468 539.84 132.684 541.104C131.916 542.368 130.828 543.352 129.42 544.056C128.028 544.744 126.42 545.088 124.596 545.088H116.964V528.288ZM124.404 541.896C126.084 541.896 127.42 541.432 128.412 540.504C129.42 539.56 129.924 538.288 129.924 536.688C129.924 535.088 129.42 533.824 128.412 532.896C127.42 531.952 126.084 531.48 124.404 531.48H120.852V541.896H124.404Z" fill="black"/>
<path d="M158.997 541.968V545.088H145.989V528.288H158.685V531.408H149.853V535.056H157.653V538.08H149.853V541.968H158.997Z" fill="black"/>
<path d="M163.29 528.288H170.922C172.746 528.288 174.354 528.64 175.746 529.344C177.154 530.032 178.242 531.008 179.01 532.272C179.794 533.536 180.186 535.008 180.186 536.688C180.186 538.368 179.794 539.84 179.01 541.104C178.242 542.368 177.154 543.352 175.746 544.056C174.354 544.744 172.746 545.088 170.922 545.088H163.29V528.288ZM170.73 541.896C172.41 541.896 173.746 541.432 174.738 540.504C175.746 539.56 176.25 538.288 176.25 536.688C176.25 535.088 175.746 533.824 174.738 532.896C173.746 531.952 172.41 531.48 170.73 531.48H167.178V541.896H170.73Z" fill="black"/>
<path d="M195.67 536.424H199.222V543.24C198.31 543.928 197.254 544.456 196.054 544.824C194.854 545.192 193.646 545.376 192.43 545.376C190.686 545.376 189.118 545.008 187.726 544.272C186.334 543.52 185.238 542.488 184.438 541.176C183.654 539.848 183.262 538.352 183.262 536.688C183.262 535.024 183.654 533.536 184.438 532.224C185.238 530.896 186.342 529.864 187.75 529.128C189.158 528.376 190.742 528 192.502 528C193.974 528 195.31 528.248 196.51 528.744C197.71 529.24 198.718 529.96 199.534 530.904L197.038 533.208C195.838 531.944 194.39 531.312 192.694 531.312C191.622 531.312 190.67 531.536 189.838 531.984C189.006 532.432 188.358 533.064 187.894 533.88C187.43 534.696 187.198 535.632 187.198 536.688C187.198 537.728 187.43 538.656 187.894 539.472C188.358 540.288 188.998 540.928 189.814 541.392C190.646 541.84 191.59 542.064 192.646 542.064C193.766 542.064 194.774 541.824 195.67 541.344V536.424Z" fill="black"/>
<path d="M217.042 541.968V545.088H204.034V528.288H216.73V531.408H207.898V535.056H215.698V538.08H207.898V541.968H217.042Z" fill="black"/>
<rect x="681.5" y="438.588" width="195" height="195" fill="white" stroke="#376BC3" stroke-width="5"/>
<path d="M719.862 545.376C717.462 545.376 715.59 544.712 714.246 543.384C712.918 542.056 712.254 540.16 712.254 537.696V528.288H716.142V537.552C716.142 540.56 717.39 542.064 719.886 542.064C721.102 542.064 722.03 541.704 722.67 540.984C723.31 540.248 723.63 539.104 723.63 537.552V528.288H727.47V537.696C727.47 540.16 726.798 542.056 725.454 543.384C724.126 544.712 722.262 545.376 719.862 545.376Z" fill="black"/>
<path d="M747.92 528.288V545.088H744.728L736.352 534.888V545.088H732.512V528.288H735.728L744.08 538.488V528.288H747.92Z" fill="black"/>
<path d="M752.831 532.176H756.575V545.088H752.831V532.176ZM754.703 530.376C754.015 530.376 753.455 530.176 753.023 529.776C752.591 529.376 752.375 528.88 752.375 528.288C752.375 527.696 752.591 527.2 753.023 526.8C753.455 526.4 754.015 526.2 754.703 526.2C755.391 526.2 755.951 526.392 756.383 526.776C756.815 527.16 757.031 527.64 757.031 528.216C757.031 528.84 756.815 529.36 756.383 529.776C755.951 530.176 755.391 530.376 754.703 530.376Z" fill="black"/>
<path d="M761.514 528.288H769.146C770.97 528.288 772.578 528.64 773.97 529.344C775.378 530.032 776.466 531.008 777.234 532.272C778.018 533.536 778.41 535.008 778.41 536.688C778.41 538.368 778.018 539.84 777.234 541.104C776.466 542.368 775.378 543.352 773.97 544.056C772.578 544.744 770.97 545.088 769.146 545.088H761.514V528.288ZM768.954 541.896C770.634 541.896 771.97 541.432 772.962 540.504C773.97 539.56 774.474 538.288 774.474 536.688C774.474 535.088 773.97 533.824 772.962 532.896C771.97 531.952 770.634 531.48 768.954 531.48H765.402V541.896H768.954Z" fill="black"/>
<path d="M805.947 528.288V545.088H802.059V538.2H794.427V545.088H790.539V528.288H794.427V534.912H802.059V528.288H805.947Z" fill="black"/>
<path d="M818.585 545.376C816.185 545.376 814.313 544.712 812.969 543.384C811.641 542.056 810.977 540.16 810.977 537.696V528.288H814.865V537.552C814.865 540.56 816.113 542.064 818.609 542.064C819.825 542.064 820.753 541.704 821.393 540.984C822.033 540.248 822.353 539.104 822.353 537.552V528.288H826.193V537.696C826.193 540.16 825.521 542.056 824.177 543.384C822.849 544.712 820.985 545.376 818.585 545.376Z" fill="black"/>
<path d="M843.571 536.352C844.531 536.656 845.283 537.168 845.827 537.888C846.371 538.592 846.643 539.464 846.643 540.504C846.643 541.976 846.067 543.112 844.915 543.912C843.779 544.696 842.115 545.088 839.923 545.088H831.235V528.288H839.443C841.491 528.288 843.059 528.68 844.147 529.464C845.251 530.248 845.803 531.312 845.803 532.656C845.803 533.472 845.603 534.2 845.203 534.84C844.819 535.48 844.275 535.984 843.571 536.352ZM835.099 531.216V535.176H838.963C839.923 535.176 840.651 535.008 841.147 534.672C841.643 534.336 841.891 533.84 841.891 533.184C841.891 532.528 841.643 532.04 841.147 531.72C840.651 531.384 839.923 531.216 838.963 531.216H835.099ZM839.635 542.16C840.659 542.16 841.427 541.992 841.939 541.656C842.467 541.32 842.731 540.8 842.731 540.096C842.731 538.704 841.699 538.008 839.635 538.008H835.099V542.16H839.635Z" fill="black"/>
<rect x="44.5" y="723.588" width="195" height="195" fill="white" stroke="#376BC3" stroke-width="5"/>
<path d="M75.3121 830.376C72.9121 830.376 71.0401 829.712 69.6961 828.384C68.3681 827.056 67.7041 825.16 67.7041 822.696V813.288H71.5921V822.552C71.5921 825.56 72.8401 827.064 75.3361 827.064C76.5521 827.064 77.4801 826.704 78.1201 825.984C78.7601 825.248 79.0801 824.104 79.0801 822.552V813.288H82.9201V822.696C82.9201 825.16 82.2481 827.056 80.9041 828.384C79.5761 829.712 77.7121 830.376 75.3121 830.376Z" fill="black"/>
<path d="M103.37 813.288V830.088H100.178L91.8022 819.888V830.088H87.9622V813.288H91.1782L99.5302 823.488V813.288H103.37Z" fill="black"/>
<path d="M108.281 817.176H112.025V830.088H108.281V817.176ZM110.153 815.376C109.465 815.376 108.905 815.176 108.473 814.776C108.041 814.376 107.825 813.88 107.825 813.288C107.825 812.696 108.041 812.2 108.473 811.8C108.905 811.4 109.465 811.2 110.153 811.2C110.841 811.2 111.401 811.392 111.833 811.776C112.265 812.16 112.481 812.64 112.481 813.216C112.481 813.84 112.265 814.36 111.833 814.776C111.401 815.176 110.841 815.376 110.153 815.376Z" fill="black"/>
<path d="M116.964 813.288H124.596C126.42 813.288 128.028 813.64 129.42 814.344C130.828 815.032 131.916 816.008 132.684 817.272C133.468 818.536 133.86 820.008 133.86 821.688C133.86 823.368 133.468 824.84 132.684 826.104C131.916 827.368 130.828 828.352 129.42 829.056C128.028 829.744 126.42 830.088 124.596 830.088H116.964V813.288ZM124.404 826.896C126.084 826.896 127.42 826.432 128.412 825.504C129.42 824.56 129.924 823.288 129.924 821.688C129.924 820.088 129.42 818.824 128.412 817.896C127.42 816.952 126.084 816.48 124.404 816.48H120.852V826.896H124.404Z" fill="black"/>
<path d="M158.997 826.968V830.088H145.989V813.288H158.685V816.408H149.853V820.056H157.653V823.08H149.853V826.968H158.997Z" fill="black"/>
<path d="M163.29 813.288H170.922C172.746 813.288 174.354 813.64 175.746 814.344C177.154 815.032 178.242 816.008 179.01 817.272C179.794 818.536 180.186 820.008 180.186 821.688C180.186 823.368 179.794 824.84 179.01 826.104C178.242 827.368 177.154 828.352 175.746 829.056C174.354 829.744 172.746 830.088 170.922 830.088H163.29V813.288ZM170.73 826.896C172.41 826.896 173.746 826.432 174.738 825.504C175.746 824.56 176.25 823.288 176.25 821.688C176.25 820.088 175.746 818.824 174.738 817.896C173.746 816.952 172.41 816.48 170.73 816.48H167.178V826.896H170.73Z" fill="black"/>
<path d="M195.67 821.424H199.222V828.24C198.31 828.928 197.254 829.456 196.054 829.824C194.854 830.192 193.646 830.376 192.43 830.376C190.686 830.376 189.118 830.008 187.726 829.272C186.334 828.52 185.238 827.488 184.438 826.176C183.654 824.848 183.262 823.352 183.262 821.688C183.262 820.024 183.654 818.536 184.438 817.224C185.238 815.896 186.342 814.864 187.75 814.128C189.158 813.376 190.742 813 192.502 813C193.974 813 195.31 813.248 196.51 813.744C197.71 814.24 198.718 814.96 199.534 815.904L197.038 818.208C195.838 816.944 194.39 816.312 192.694 816.312C191.622 816.312 190.67 816.536 189.838 816.984C189.006 817.432 188.358 818.064 187.894 818.88C187.43 819.696 187.198 820.632 187.198 821.688C187.198 822.728 187.43 823.656 187.894 824.472C188.358 825.288 188.998 825.928 189.814 826.392C190.646 826.84 191.59 827.064 192.646 827.064C193.766 827.064 194.774 826.824 195.67 826.344V821.424Z" fill="black"/>
<path d="M217.042 826.968V830.088H204.034V813.288H216.73V816.408H207.898V820.056H215.698V823.08H207.898V826.968H217.042Z" fill="black"/>
<rect x="1318.5" y="153.588" width="195" height="195" fill="white" stroke="#376BC3" stroke-width="5"/>
<path d="M1390.38 245.376C1387.98 245.376 1386.11 244.712 1384.77 243.384C1383.44 242.056 1382.78 240.16 1382.78 237.696V228.288H1386.66V237.552C1386.66 240.56 1387.91 242.064 1390.41 242.064C1391.62 242.064 1392.55 241.704 1393.19 240.984C1393.83 240.248 1394.15 239.104 1394.15 237.552V228.288H1397.99V237.696C1397.99 240.16 1397.32 242.056 1395.98 243.384C1394.65 244.712 1392.78 245.376 1390.38 245.376Z" fill="black"/>
<path d="M1418.44 228.288V245.088H1415.25L1406.87 234.888V245.088H1403.03V228.288H1406.25L1414.6 238.488V228.288H1418.44Z" fill="black"/>
<path d="M1423.35 232.176H1427.1V245.088H1423.35V232.176ZM1425.22 230.376C1424.54 230.376 1423.98 230.176 1423.54 229.776C1423.11 229.376 1422.9 228.88 1422.9 228.288C1422.9 227.696 1423.11 227.2 1423.54 226.8C1423.98 226.4 1424.54 226.2 1425.22 226.2C1425.91 226.2 1426.47 226.392 1426.9 226.776C1427.34 227.16 1427.55 227.64 1427.55 228.216C1427.55 228.84 1427.34 229.36 1426.9 229.776C1426.47 230.176 1425.91 230.376 1425.22 230.376Z" fill="black"/>
<path d="M1432.04 228.288H1439.67C1441.49 228.288 1443.1 228.64 1444.49 229.344C1445.9 230.032 1446.99 231.008 1447.76 232.272C1448.54 233.536 1448.93 235.008 1448.93 236.688C1448.93 238.368 1448.54 239.84 1447.76 241.104C1446.99 242.368 1445.9 243.352 1444.49 244.056C1443.1 244.744 1441.49 245.088 1439.67 245.088H1432.04V228.288ZM1439.48 241.896C1441.16 241.896 1442.49 241.432 1443.48 240.504C1444.49 239.56 1445 238.288 1445 236.688C1445 235.088 1444.49 233.824 1443.48 232.896C1442.49 231.952 1441.16 231.48 1439.48 231.48H1435.92V241.896H1439.48Z" fill="black"/>
<path d="M1372.27 274.376C1370.94 274.376 1369.65 274.2 1368.4 273.848C1367.17 273.48 1366.18 273.008 1365.43 272.432L1366.75 269.504C1367.47 270.032 1368.32 270.456 1369.31 270.776C1370.31 271.096 1371.3 271.256 1372.29 271.256C1373.39 271.256 1374.21 271.096 1374.74 270.776C1375.27 270.44 1375.53 270 1375.53 269.456C1375.53 269.056 1375.37 268.728 1375.05 268.472C1374.75 268.2 1374.35 267.984 1373.85 267.824C1373.37 267.664 1372.71 267.488 1371.88 267.296C1370.6 266.992 1369.55 266.688 1368.74 266.384C1367.92 266.08 1367.22 265.592 1366.63 264.92C1366.05 264.248 1365.76 263.352 1365.76 262.232C1365.76 261.256 1366.03 260.376 1366.55 259.592C1367.08 258.792 1367.87 258.16 1368.93 257.696C1370 257.232 1371.31 257 1372.84 257C1373.91 257 1374.96 257.128 1375.99 257.384C1377.01 257.64 1377.91 258.008 1378.67 258.488L1377.47 261.44C1375.92 260.56 1374.37 260.12 1372.82 260.12C1371.73 260.12 1370.92 260.296 1370.39 260.648C1369.88 261 1369.63 261.464 1369.63 262.04C1369.63 262.616 1369.92 263.048 1370.51 263.336C1371.12 263.608 1372.04 263.88 1373.27 264.152C1374.55 264.456 1375.6 264.76 1376.42 265.064C1377.23 265.368 1377.93 265.848 1378.51 266.504C1379.1 267.16 1379.39 268.048 1379.39 269.168C1379.39 270.128 1379.12 271.008 1378.58 271.808C1378.05 272.592 1377.25 273.216 1376.18 273.68C1375.11 274.144 1373.8 274.376 1372.27 274.376Z" fill="black"/>
<path d="M1386.5 260.456H1381.12V257.288H1395.76V260.456H1390.38V274.088H1386.5V260.456Z" fill="black"/>
<path d="M1406.23 274.376C1403.83 274.376 1401.96 273.712 1400.62 272.384C1399.29 271.056 1398.63 269.16 1398.63 266.696V257.288H1402.51V266.552C1402.51 269.56 1403.76 271.064 1406.26 271.064C1407.47 271.064 1408.4 270.704 1409.04 269.984C1409.68 269.248 1410 268.104 1410 266.552V257.288H1413.84V266.696C1413.84 269.16 1413.17 271.056 1411.83 272.384C1410.5 273.712 1408.63 274.376 1406.23 274.376Z" fill="black"/>
<path d="M1418.88 257.288H1426.52C1428.34 257.288 1429.95 257.64 1431.34 258.344C1432.75 259.032 1433.84 260.008 1434.6 261.272C1435.39 262.536 1435.78 264.008 1435.78 265.688C1435.78 267.368 1435.39 268.84 1434.6 270.104C1433.84 271.368 1432.75 272.352 1431.34 273.056C1429.95 273.744 1428.34 274.088 1426.52 274.088H1418.88V257.288ZM1426.32 270.896C1428 270.896 1429.34 270.432 1430.33 269.504C1431.34 268.56 1431.84 267.288 1431.84 265.688C1431.84 264.088 1431.34 262.824 1430.33 261.896C1429.34 260.952 1428 260.48 1426.32 260.48H1422.77V270.896H1426.32Z" fill="black"/>
<path d="M1439.91 257.288H1443.8V274.088H1439.91V257.288Z" fill="black"/>
<path d="M1457.12 274.376C1455.38 274.376 1453.8 274 1452.4 273.248C1451 272.496 1449.91 271.464 1449.11 270.152C1448.32 268.824 1447.93 267.336 1447.93 265.688C1447.93 264.04 1448.32 262.56 1449.11 261.248C1449.91 259.92 1451 258.88 1452.4 258.128C1453.8 257.376 1455.38 257 1457.12 257C1458.87 257 1460.44 257.376 1461.83 258.128C1463.22 258.88 1464.32 259.92 1465.12 261.248C1465.92 262.56 1466.32 264.04 1466.32 265.688C1466.32 267.336 1465.92 268.824 1465.12 270.152C1464.32 271.464 1463.22 272.496 1461.83 273.248C1460.44 274 1458.87 274.376 1457.12 274.376ZM1457.12 271.064C1458.12 271.064 1459.01 270.84 1459.81 270.392C1460.61 269.928 1461.24 269.288 1461.68 268.472C1462.15 267.656 1462.38 266.728 1462.38 265.688C1462.38 264.648 1462.15 263.72 1461.68 262.904C1461.24 262.088 1460.61 261.456 1459.81 261.008C1459.01 260.544 1458.12 260.312 1457.12 260.312C1456.13 260.312 1455.24 260.544 1454.44 261.008C1453.64 261.456 1453 262.088 1452.54 262.904C1452.09 263.72 1451.87 264.648 1451.87 265.688C1451.87 266.728 1452.09 267.656 1452.54 268.472C1453 269.288 1453.64 269.928 1454.44 270.392C1455.24 270.84 1456.13 271.064 1457.12 271.064Z" fill="black"/>
<rect x="1318.5" y="438.588" width="195" height="195" fill="white" stroke="#63646D" stroke-width="5"/>
<path d="M1378.23 530.376C1376.52 530.376 1374.97 530.008 1373.58 529.272C1372.2 528.52 1371.11 527.488 1370.31 526.176C1369.53 524.848 1369.14 523.352 1369.14 521.688C1369.14 520.024 1369.53 518.536 1370.31 517.224C1371.11 515.896 1372.2 514.864 1373.58 514.128C1374.97 513.376 1376.53 513 1378.26 513C1379.71 513 1381.03 513.256 1382.19 513.768C1383.38 514.28 1384.37 515.016 1385.17 515.976L1382.67 518.28C1381.54 516.968 1380.13 516.312 1378.45 516.312C1377.41 516.312 1376.48 516.544 1375.67 517.008C1374.85 517.456 1374.21 518.088 1373.75 518.904C1373.3 519.72 1373.07 520.648 1373.07 521.688C1373.07 522.728 1373.3 523.656 1373.75 524.472C1374.21 525.288 1374.85 525.928 1375.67 526.392C1376.48 526.84 1377.41 527.064 1378.45 527.064C1380.13 527.064 1381.54 526.4 1382.67 525.072L1385.17 527.376C1384.37 528.352 1383.38 529.096 1382.19 529.608C1381.01 530.12 1379.69 530.376 1378.23 530.376Z" fill="black"/>
<path d="M1388.99 513.288H1392.88V526.92H1401.31V530.088H1388.99V513.288Z" fill="black"/>
<path d="M1412.53 530.376C1410.79 530.376 1409.21 530 1407.81 529.248C1406.41 528.496 1405.32 527.464 1404.52 526.152C1403.73 524.824 1403.34 523.336 1403.34 521.688C1403.34 520.04 1403.73 518.56 1404.52 517.248C1405.32 515.92 1406.41 514.88 1407.81 514.128C1409.21 513.376 1410.79 513 1412.53 513C1414.28 513 1415.85 513.376 1417.24 514.128C1418.63 514.88 1419.73 515.92 1420.53 517.248C1421.33 518.56 1421.73 520.04 1421.73 521.688C1421.73 523.336 1421.33 524.824 1420.53 526.152C1419.73 527.464 1418.63 528.496 1417.24 529.248C1415.85 530 1414.28 530.376 1412.53 530.376ZM1412.53 527.064C1413.53 527.064 1414.42 526.84 1415.22 526.392C1416.02 525.928 1416.65 525.288 1417.09 524.472C1417.56 523.656 1417.79 522.728 1417.79 521.688C1417.79 520.648 1417.56 519.72 1417.09 518.904C1416.65 518.088 1416.02 517.456 1415.22 517.008C1414.42 516.544 1413.53 516.312 1412.53 516.312C1411.54 516.312 1410.65 516.544 1409.85 517.008C1409.05 517.456 1408.41 518.088 1407.95 518.904C1407.5 519.72 1407.28 520.648 1407.28 521.688C1407.28 522.728 1407.5 523.656 1407.95 524.472C1408.41 525.288 1409.05 525.928 1409.85 526.392C1410.65 526.84 1411.54 527.064 1412.53 527.064Z" fill="black"/>
<path d="M1433.31 530.376C1430.91 530.376 1429.04 529.712 1427.7 528.384C1426.37 527.056 1425.7 525.16 1425.7 522.696V513.288H1429.59V522.552C1429.59 525.56 1430.84 527.064 1433.34 527.064C1434.55 527.064 1435.48 526.704 1436.12 525.984C1436.76 525.248 1437.08 524.104 1437.08 522.552V513.288H1440.92V522.696C1440.92 525.16 1440.25 527.056 1438.9 528.384C1437.58 529.712 1435.71 530.376 1433.31 530.376Z" fill="black"/>
<path d="M1445.96 513.288H1453.59C1455.42 513.288 1457.03 513.64 1458.42 514.344C1459.83 515.032 1460.91 516.008 1461.68 517.272C1462.47 518.536 1462.86 520.008 1462.86 521.688C1462.86 523.368 1462.47 524.84 1461.68 526.104C1460.91 527.368 1459.83 528.352 1458.42 529.056C1457.03 529.744 1455.42 530.088 1453.59 530.088H1445.96V513.288ZM1453.4 526.896C1455.08 526.896 1456.42 526.432 1457.41 525.504C1458.42 524.56 1458.92 523.288 1458.92 521.688C1458.92 520.088 1458.42 518.824 1457.41 517.896C1456.42 516.952 1455.08 516.48 1453.4 516.48H1449.85V526.896H1453.4Z" fill="black"/>
<path d="M1357.57 559.376C1356.24 559.376 1354.95 559.2 1353.7 558.848C1352.47 558.48 1351.48 558.008 1350.73 557.432L1352.05 554.504C1352.77 555.032 1353.62 555.456 1354.61 555.776C1355.61 556.096 1356.6 556.256 1357.59 556.256C1358.69 556.256 1359.51 556.096 1360.04 555.776C1360.57 555.44 1360.83 555 1360.83 554.456C1360.83 554.056 1360.67 553.728 1360.35 553.472C1360.05 553.2 1359.65 552.984 1359.15 552.824C1358.67 552.664 1358.01 552.488 1357.18 552.296C1355.9 551.992 1354.85 551.688 1354.04 551.384C1353.22 551.08 1352.52 550.592 1351.93 549.92C1351.35 549.248 1351.06 548.352 1351.06 547.232C1351.06 546.256 1351.33 545.376 1351.85 544.592C1352.38 543.792 1353.17 543.16 1354.23 542.696C1355.3 542.232 1356.61 542 1358.14 542C1359.21 542 1360.26 542.128 1361.29 542.384C1362.31 542.64 1363.21 543.008 1363.97 543.488L1362.77 546.44C1361.22 545.56 1359.67 545.12 1358.12 545.12C1357.03 545.12 1356.22 545.296 1355.69 545.648C1355.18 546 1354.93 546.464 1354.93 547.04C1354.93 547.616 1355.22 548.048 1355.81 548.336C1356.42 548.608 1357.34 548.88 1358.57 549.152C1359.85 549.456 1360.9 549.76 1361.72 550.064C1362.53 550.368 1363.23 550.848 1363.81 551.504C1364.4 552.16 1364.69 553.048 1364.69 554.168C1364.69 555.128 1364.42 556.008 1363.88 556.808C1363.35 557.592 1362.55 558.216 1361.48 558.68C1360.41 559.144 1359.1 559.376 1357.57 559.376Z" fill="black"/>
<path d="M1381.56 555.968V559.088H1368.55V542.288H1381.25V545.408H1372.41V549.056H1380.21V552.08H1372.41V555.968H1381.56Z" fill="black"/>
<path d="M1396.56 559.088L1393.32 554.408H1393.12H1389.74V559.088H1385.85V542.288H1393.12C1394.61 542.288 1395.9 542.536 1396.99 543.032C1398.09 543.528 1398.94 544.232 1399.53 545.144C1400.12 546.056 1400.42 547.136 1400.42 548.384C1400.42 549.632 1400.12 550.712 1399.51 551.624C1398.92 552.52 1398.07 553.208 1396.96 553.688L1400.73 559.088H1396.56ZM1396.48 548.384C1396.48 547.44 1396.18 546.72 1395.57 546.224C1394.96 545.712 1394.08 545.456 1392.91 545.456H1389.74V551.312H1392.91C1394.08 551.312 1394.96 551.056 1395.57 550.544C1396.18 550.032 1396.48 549.312 1396.48 548.384Z" fill="black"/>
<path d="M1420.85 542.288L1413.58 559.088H1409.74L1402.49 542.288H1406.69L1411.8 554.288L1416.99 542.288H1420.85Z" fill="black"/>
<path d="M1423.45 542.288H1427.34V559.088H1423.45V542.288Z" fill="black"/>
<path d="M1440.57 559.376C1438.86 559.376 1437.31 559.008 1435.91 558.272C1434.54 557.52 1433.45 556.488 1432.65 555.176C1431.87 553.848 1431.47 552.352 1431.47 550.688C1431.47 549.024 1431.87 547.536 1432.65 546.224C1433.45 544.896 1434.54 543.864 1435.91 543.128C1437.31 542.376 1438.87 542 1440.59 542C1442.05 542 1443.36 542.256 1444.53 542.768C1445.71 543.28 1446.71 544.016 1447.51 544.976L1445.01 547.28C1443.87 545.968 1442.47 545.312 1440.79 545.312C1439.75 545.312 1438.82 545.544 1438 546.008C1437.19 546.456 1436.55 547.088 1436.08 547.904C1435.63 548.72 1435.41 549.648 1435.41 550.688C1435.41 551.728 1435.63 552.656 1436.08 553.472C1436.55 554.288 1437.19 554.928 1438 555.392C1438.82 555.84 1439.75 556.064 1440.79 556.064C1442.47 556.064 1443.87 555.4 1445.01 554.072L1447.51 556.376C1446.71 557.352 1445.71 558.096 1444.53 558.608C1443.35 559.12 1442.03 559.376 1440.57 559.376Z" fill="black"/>
<path d="M1464.34 555.968V559.088H1451.33V542.288H1464.03V545.408H1455.2V549.056H1463V552.08H1455.2V555.968H1464.34Z" fill="black"/>
<path d="M1474.15 559.376C1472.83 559.376 1471.54 559.2 1470.29 558.848C1469.06 558.48 1468.07 558.008 1467.31 557.432L1468.63 554.504C1469.35 555.032 1470.21 555.456 1471.2 555.776C1472.19 556.096 1473.19 556.256 1474.18 556.256C1475.28 556.256 1476.1 556.096 1476.63 555.776C1477.15 555.44 1477.42 555 1477.42 554.456C1477.42 554.056 1477.26 553.728 1476.94 553.472C1476.63 553.2 1476.23 552.984 1475.74 552.824C1475.26 552.664 1474.6 552.488 1473.77 552.296C1472.49 551.992 1471.44 551.688 1470.63 551.384C1469.81 551.08 1469.11 550.592 1468.51 549.92C1467.94 549.248 1467.65 548.352 1467.65 547.232C1467.65 546.256 1467.91 545.376 1468.44 544.592C1468.97 543.792 1469.76 543.16 1470.82 542.696C1471.89 542.232 1473.19 542 1474.73 542C1475.8 542 1476.85 542.128 1477.87 542.384C1478.9 542.64 1479.79 543.008 1480.56 543.488L1479.36 546.44C1477.81 545.56 1476.26 545.12 1474.71 545.12C1473.62 545.12 1472.81 545.296 1472.28 545.648C1471.77 546 1471.51 546.464 1471.51 547.04C1471.51 547.616 1471.81 548.048 1472.4 548.336C1473.01 548.608 1473.93 548.88 1475.16 549.152C1476.44 549.456 1477.49 549.76 1478.31 550.064C1479.12 550.368 1479.82 550.848 1480.39 551.504C1480.99 552.16 1481.28 553.048 1481.28 554.168C1481.28 555.128 1481.01 556.008 1480.47 556.808C1479.94 557.592 1479.14 558.216 1478.07 558.68C1476.99 559.144 1475.69 559.376 1474.15 559.376Z" fill="black"/>
<rect x="1318.5" y="723.588" width="195" height="195" fill="white" stroke="#63646D" stroke-width="5"/>
<path d="M1395.43 798.288H1399.32V815.088H1395.43V798.288Z" fill="black"/>
<path d="M1412.64 815.376C1410.9 815.376 1409.32 815 1407.91 814.248C1406.52 813.496 1405.42 812.464 1404.62 811.152C1403.84 809.824 1403.45 808.336 1403.45 806.688C1403.45 805.04 1403.84 803.56 1404.62 802.248C1405.42 800.92 1406.52 799.88 1407.91 799.128C1409.32 798.376 1410.9 798 1412.64 798C1414.38 798 1415.95 798.376 1417.34 799.128C1418.74 799.88 1419.83 800.92 1420.63 802.248C1421.43 803.56 1421.83 805.04 1421.83 806.688C1421.83 808.336 1421.43 809.824 1420.63 811.152C1419.83 812.464 1418.74 813.496 1417.34 814.248C1415.95 815 1414.38 815.376 1412.64 815.376ZM1412.64 812.064C1413.63 812.064 1414.53 811.84 1415.33 811.392C1416.13 810.928 1416.75 810.288 1417.2 809.472C1417.66 808.656 1417.9 807.728 1417.9 806.688C1417.9 805.648 1417.66 804.72 1417.2 803.904C1416.75 803.088 1416.13 802.456 1415.33 802.008C1414.53 801.544 1413.63 801.312 1412.64 801.312C1411.65 801.312 1410.75 801.544 1409.95 802.008C1409.15 802.456 1408.52 803.088 1408.06 803.904C1407.61 804.72 1407.38 805.648 1407.38 806.688C1407.38 807.728 1407.61 808.656 1408.06 809.472C1408.52 810.288 1409.15 810.928 1409.95 811.392C1410.75 811.84 1411.65 812.064 1412.64 812.064Z" fill="black"/>
<path d="M1429.2 801.456H1423.82V798.288H1438.46V801.456H1433.09V815.088H1429.2V801.456Z" fill="black"/>
<path d="M1350.9 827.288C1352.39 827.288 1353.68 827.536 1354.77 828.032C1355.87 828.528 1356.72 829.232 1357.31 830.144C1357.9 831.056 1358.2 832.136 1358.2 833.384C1358.2 834.616 1357.9 835.696 1357.31 836.624C1356.72 837.536 1355.87 838.24 1354.77 838.736C1353.68 839.216 1352.39 839.456 1350.9 839.456H1347.52V844.088H1343.63V827.288H1350.9ZM1350.69 836.288C1351.86 836.288 1352.74 836.04 1353.35 835.544C1353.96 835.032 1354.26 834.312 1354.26 833.384C1354.26 832.44 1353.96 831.72 1353.35 831.224C1352.74 830.712 1351.86 830.456 1350.69 830.456H1347.52V836.288H1350.69Z" fill="black"/>
<path d="M1362.18 827.288H1366.06V840.92H1374.49V844.088H1362.18V827.288Z" fill="black"/>
<path d="M1389.06 840.488H1381.26L1379.78 844.088H1375.79L1383.28 827.288H1387.12L1394.63 844.088H1390.55L1389.06 840.488ZM1387.84 837.536L1385.18 831.104L1382.51 837.536H1387.84Z" fill="black"/>
<path d="M1400.21 830.456H1394.84V827.288H1409.48V830.456H1404.1V844.088H1400.21V830.456Z" fill="black"/>
<path d="M1416.66 830.408V834.848H1424.43V837.968H1416.66V844.088H1412.77V827.288H1425.46V830.408H1416.66Z" fill="black"/>
<path d="M1437.27 844.376C1435.52 844.376 1433.95 844 1432.54 843.248C1431.15 842.496 1430.05 841.464 1429.25 840.152C1428.47 838.824 1428.08 837.336 1428.08 835.688C1428.08 834.04 1428.47 832.56 1429.25 831.248C1430.05 829.92 1431.15 828.88 1432.54 828.128C1433.95 827.376 1435.52 827 1437.27 827C1439.01 827 1440.58 827.376 1441.97 828.128C1443.36 828.88 1444.46 829.92 1445.26 831.248C1446.06 832.56 1446.46 834.04 1446.46 835.688C1446.46 837.336 1446.06 838.824 1445.26 840.152C1444.46 841.464 1443.36 842.496 1441.97 843.248C1440.58 844 1439.01 844.376 1437.27 844.376ZM1437.27 841.064C1438.26 841.064 1439.16 840.84 1439.96 840.392C1440.76 839.928 1441.38 839.288 1441.83 838.472C1442.29 837.656 1442.52 836.728 1442.52 835.688C1442.52 834.648 1442.29 833.72 1441.83 832.904C1441.38 832.088 1440.76 831.456 1439.96 831.008C1439.16 830.544 1438.26 830.312 1437.27 830.312C1436.28 830.312 1435.38 830.544 1434.58 831.008C1433.78 831.456 1433.15 832.088 1432.68 832.904C1432.24 833.72 1432.01 834.648 1432.01 835.688C1432.01 836.728 1432.24 837.656 1432.68 838.472C1433.15 839.288 1433.78 839.928 1434.58 840.392C1435.38 840.84 1436.28 841.064 1437.27 841.064Z" fill="black"/>
<path d="M1461.29 844.088L1458.05 839.408H1457.85H1454.47V844.088H1450.58V827.288H1457.85C1459.34 827.288 1460.63 827.536 1461.72 828.032C1462.82 828.528 1463.67 829.232 1464.26 830.144C1464.85 831.056 1465.15 832.136 1465.15 833.384C1465.15 834.632 1464.85 835.712 1464.24 836.624C1463.65 837.52 1462.8 838.208 1461.69 838.688L1465.46 844.088H1461.29ZM1461.21 833.384C1461.21 832.44 1460.91 831.72 1460.3 831.224C1459.69 830.712 1458.81 830.456 1457.64 830.456H1454.47V836.312H1457.64C1458.81 836.312 1459.69 836.056 1460.3 835.544C1460.91 835.032 1461.21 834.312 1461.21 833.384Z" fill="black"/>
<path d="M1484.72 844.088L1484.69 834.008L1479.75 842.312H1478L1473.08 834.224V844.088H1469.43V827.288H1472.65L1478.93 837.728L1485.13 827.288H1488.32L1488.37 844.088H1484.72Z" fill="black"/>
<line x1="242" y1="534.588" x2="679" y2="534.588" stroke="black" stroke-width="3"/>
<path d="M282.939 83.0272C282.354 83.613 282.354 84.5628 282.939 85.1486L292.485 94.6945C293.071 95.2803 294.021 95.2803 294.607 94.6945C295.192 94.1087 295.192 93.159 294.607 92.5732L286.121 84.0879L294.607 75.6026C295.192 75.0168 295.192 74.0671 294.607 73.4813C294.021 72.8955 293.071 72.8955 292.485 73.4813L282.939 83.0272ZM1275.06 85.1486C1275.65 84.5628 1275.65 83.613 1275.06 83.0272L1265.51 73.4813C1264.93 72.8955 1263.98 72.8955 1263.39 73.4813C1262.81 74.0671 1262.81 75.0168 1263.39 75.6026L1271.88 84.0879L1263.39 92.5732C1262.81 93.159 1262.81 94.1087 1263.39 94.6945C1263.98 95.2803 1264.93 95.2803 1265.51 94.6945L1275.06 85.1486ZM284 85.5879H1274V82.5879H284V85.5879Z" fill="black"/>
<line x1="239.815" y1="249.829" x2="679.815" y2="534.829" stroke="black" stroke-width="3"/>
<line x1="238.185" y1="819.829" x2="678.185" y2="534.829" stroke="black" stroke-width="3"/>
<line y1="-1.5" x2="437" y2="-1.5" transform="matrix(-1 8.74228e-08 8.74228e-08 1 1316 536.088)" stroke="black" stroke-width="3"/>
<line y1="-1.5" x2="524.238" y2="-1.5" transform="matrix(-0.839314 0.543647 0.543647 0.839314 1319 251.088)" stroke="black" stroke-width="3"/>
<line x1="1318.18" y1="822.347" x2="878.185" y2="537.347" stroke="black" stroke-width="3"/>
</svg>
