<svg width="233" height="233" viewBox="0 0 233 233" fill="none" xmlns="http://www.w3.org/2000/svg">
<path fill-rule="evenodd" clip-rule="evenodd" d="M62.9762 12.9959C25.5645 32.3815 0 71.4553 0 116.5C0 132.362 3.16989 147.483 8.91074 161.265L110.078 60.0976L62.9762 12.9959ZM117.149 67.1686L13.4419 170.876C32.9765 207.823 71.7981 233 116.5 233C161.545 233 200.619 207.435 220.004 170.024L117.149 67.1686ZM224.468 160.345L124.22 60.0976L170.876 13.4419C207.823 32.9765 233 71.7981 233 116.5C233 132.01 229.969 146.811 224.468 160.345ZM117.149 53.0265L72.6548 8.53231C86.1887 3.03075 100.99 0 116.5 0C132.362 0 147.483 3.16989 161.265 8.91074L117.149 53.0265Z" fill="#00143B"/>
</svg>
