<svg width="132" height="132" viewBox="0 0 132 132" fill="none" xmlns="http://www.w3.org/2000/svg">
<path d="M35.8297 26.53L45.6397 16.78H59.5197L57.2997 0L25.4697 13.11L35.8297 26.53Z" fill="#0000D2"/>
<path d="M16.88 59.1701V45.3801L26.69 35.6201L13.19 25.3101L0 56.9601L16.88 59.1701Z" fill="#0000D2"/>
<path d="M74.6702 0L72.4502 16.78H86.3102L96.1302 26.54L106.49 13.11L74.6702 0Z" fill="#0000D2"/>
<path d="M16.88 85.82V72.02L0 74.23L6.59 90.06L13.18 105.88L26.69 95.57L16.88 85.82Z" fill="#0000D2"/>
<path d="M105.27 35.6301L115.07 45.3801V59.1701L131.95 56.9601L118.77 25.3201L105.27 35.6301Z" fill="#0000D2"/>
<path d="M59.5197 114.42H45.6397L35.8297 104.67L25.4697 118.09L57.2997 131.2L59.5197 114.42Z" fill="#0000D2"/>
<path d="M115.07 72.02V85.82L105.27 95.57L118.77 105.87L131.95 74.23L115.07 72.02Z" fill="#0000D2"/>
<path d="M96.1302 104.66L86.3102 114.41L72.4502 114.42L74.6702 131.19L106.49 118.09L96.1302 104.66Z" fill="#0000D2"/>
</svg>
