<?xml version="1.0" encoding="UTF-8" standalone="no"?>
<!DOCTYPE svg PUBLIC "-//W3C//DTD SVG 1.1//EN" "http://www.w3.org/Graphics/SVG/1.1/DTD/svg11.dtd">
<svg width="100%" height="100%" viewBox="0 0 225 225" version="1.1" xmlns="http://www.w3.org/2000/svg" xmlns:xlink="http://www.w3.org/1999/xlink" xml:space="preserve" xmlns:serif="http://www.serif.com/" style="fill-rule:evenodd;clip-rule:evenodd;stroke-linejoin:round;stroke-miterlimit:2;">
    <g id="Artboard1" transform="matrix(0.692028,0,0,0.701405,-626.201,-845.776)">
        <rect x="904.878" y="1205.83" width="323.743" height="319.99" style="fill:none;"/>
        <g id="Logo" transform="matrix(2.40838,0,0,2.37618,263.174,170.49)">
            <path id="big_dot-1" serif:id="big_dot 1" d="M330.757,469.774C324.005,467.965 320.009,461.044 321.818,454.292C323.628,447.54 330.548,443.544 337.3,445.354C344.052,447.163 348.048,454.083 346.239,460.835C344.429,467.588 337.509,471.583 330.757,469.774Z" style="fill:rgb(1,191,165);"/>
            <path id="big_dot-2" serif:id="big_dot 2" d="M284.901,513.754C278.149,511.945 274.153,505.025 275.963,498.273C277.772,491.52 284.692,487.525 291.444,489.334C298.197,491.143 302.192,498.064 300.383,504.816C298.574,511.568 291.653,515.564 284.901,513.754Z" style="fill:rgb(1,191,165);"/>
            <path id="big_dot-3" serif:id="big_dot 3" d="M322.953,551.806C324.762,558.558 331.682,562.554 338.434,560.744C345.187,558.935 349.182,552.015 347.373,545.263C345.564,538.51 338.643,534.515 331.891,536.324C325.139,538.133 321.143,545.054 322.953,551.806Z" style="fill:rgb(1,191,165);"/>
            <path id="big_dot-4" serif:id="big_dot 4" d="M366.933,505.95C368.742,512.702 375.663,516.698 382.415,514.889C389.167,513.079 393.163,506.159 391.354,499.407C389.544,492.655 382.624,488.659 375.872,490.468C369.119,492.278 365.124,499.198 366.933,505.95Z" style="fill:rgb(1,191,165);"/>
            <path id="connector-1_2" serif:id="connector 1_2" d="M335.707,451.153L339.05,454.496L283.895,509.65L280.553,506.307L335.707,451.153Z" style="fill:rgb(1,191,165);"/>
            <path id="connector-3_4" serif:id="connector 3_4" d="M341.888,552.873L338.545,556.216L283.391,501.061L286.734,497.719L341.888,552.873Z" style="fill:rgb(1,191,165);"/>
            <path id="connector-5_6" serif:id="connector 5_6" d="M385.554,501L382.211,497.657L327.057,552.812L330.4,556.154L385.554,501Z" style="fill:rgb(1,191,165);"/>
            <path id="triangle_1" d="M315.316,475.717L325.224,452.631L337.709,465.233L315.316,475.717Z" style="fill:rgb(1,191,165);"/>
            <path id="triangle_2" d="M307.376,482.765L297.468,505.852L284.983,493.249L307.376,482.765Z" style="fill:rgb(1,191,165);"/>
            <path id="trinagle_3" d="M306.888,520.522L283.801,510.614L296.404,498.129L306.888,520.522Z" style="fill:rgb(1,191,165);"/>
            <path id="triangle_4" d="M314.529,528.856L337.615,538.764L325.013,551.249L314.529,528.856Z" style="fill:rgb(1,191,165);"/>
            <path id="triangle_5" d="M353.942,529.331L330.855,539.239L343.458,551.724L353.942,529.331Z" style="fill:rgb(1,191,165);"/>
            <path id="triangle_6" d="M360.99,521.391L384.076,511.483L371.474,498.998L360.99,521.391Z" style="fill:rgb(1,191,165);"/>
            <path id="dot_center" d="M334.503,509.297C330.635,509.297 327.508,506.17 327.508,502.302C327.508,498.433 330.635,495.307 334.503,495.307C338.371,495.307 341.498,498.433 341.498,502.302C341.498,506.17 338.371,509.297 334.503,509.297Z" style="fill:rgb(1,191,165);"/>
            <path id="dot_top_right" d="M379.976,463.441C376.107,463.441 372.981,460.314 372.981,456.446C372.981,452.578 376.107,449.451 379.976,449.451C383.844,449.451 386.97,452.578 386.97,456.446C386.97,460.314 383.844,463.441 379.976,463.441Z" style="fill:rgb(1,191,165);"/>
            <path id="dot_bottom_right" d="M379.976,555.152C376.107,555.152 372.981,552.026 372.981,548.158C372.981,544.289 376.107,541.163 379.976,541.163C383.844,541.163 386.97,544.289 386.97,548.158C386.97,552.026 383.844,555.152 379.976,555.152Z" style="fill:rgb(1,191,165);"/>
            <path id="dot_top_left" d="M288.264,463.441C284.396,463.441 281.269,460.314 281.269,456.446C281.269,452.578 284.396,449.451 288.264,449.451C292.132,449.451 295.259,452.578 295.259,456.446C295.259,460.314 292.132,463.441 288.264,463.441Z" style="fill:rgb(1,191,165);"/>
            <path id="dot_bottom_left" d="M288.264,555.152C284.396,555.152 281.269,552.026 281.269,548.158C281.269,544.289 284.396,541.163 288.264,541.163C292.132,541.163 295.259,544.289 295.259,548.158C295.259,552.026 292.132,555.152 288.264,555.152Z" style="fill:rgb(1,191,165);"/>
        </g>
    </g>
</svg>
